<?xml version="1.0" encoding="utf-8"?>
<!-- Generator: Adobe Illustrator 28.1.0, SVG Export Plug-In . SVG Version: 6.00 Build 0)  -->
<svg version="1.1" xmlns="http://www.w3.org/2000/svg" xmlns:xlink="http://www.w3.org/1999/xlink" x="0px" y="0px"
	 viewBox="0 0 298.2 80" style="enable-background:new 0 0 298.2 80;" xml:space="preserve">
<style type="text/css">
	.st0{display:none;fill-rule:evenodd;clip-rule:evenodd;}
	.st1{fill:#FFFFFF;}
	.st2{fill-rule:evenodd;clip-rule:evenodd;fill:#FFFFFF;}
</style>
<g id="katman_2">
</g>
<g id="katman_1">
	<rect class="st0" width="298.2" height="79.4"/>
	<path class="st1" d="M282.1,25.1c0,2.9-1.4,4.8-4.4,4.8h-5.9V13h5.9c3,0,4.4,2,4.4,4.8V25.1z M282.4,57.9l-1.5,4.6h16.1l-3.6-4.5
		l-6.1-20.6c3.6-0.9,5.1-3.5,5.1-8.2V12.7c0-5-2-7.4-7.1-7.4H259l2.5,4.6v48.1l-2.5,4.6h15.5l-2.6-4.6V37.7h1.6
		c3.4,0,4.4,1.7,5.2,5.2L282.4,57.9z M236.2,14.5l4.3,29.1h-8.7L236.2,14.5z M243.9,5.2h-15l-9.5,52.7l-2.9,4.6H232l-2.1-4.6l1-6.5
		h10.7l1,6.5l-2.2,4.6h16l-2.9-4.6L243.9,5.2z M207.4,25.8c0,2.9-1.4,4.8-4.4,4.8h-5.6V13h5.6c3,0,4.4,2,4.4,4.8V25.8z M187,9.8
		v48.1l-2.5,4.6H200l-2.6-4.6V38.3h13.3c5.1,0,7.1-2.4,7.1-7.4V12.7c0-5-2-7.4-7.1-7.4h-26.1L187,9.8z M151.3,62.5h29.3V50.3
		l-8.7,4.4h-7.8V9.8l2.6-4.6h-15.5l2.5,4.6v48.1L151.3,62.5z M134,16.7V51c0,2.2-1.1,3.7-3.4,3.7h-3.9c-2.3,0-3.4-1.5-3.4-3.7V16.7
		c0-2.2,1.1-3.7,3.4-3.7h3.9C132.9,13,134,14.5,134,16.7z M120.2,5.2c-5.1,0-7.1,2.5-7.1,7.4V55c0,5,2,7.4,7.1,7.4h16.9
		c5.2,0,7.2-2.5,7.2-7.4V12.7c0-5-2-7.4-7.2-7.4H120.2z M107.5,5.2H76.4V18l8.8-5.6h1.6v45.5l-2.5,4.6h15.4l-2.5-4.6V12.4h1.7
		l8.7,5.6V5.2z"/>
	<path class="st1" d="M14.1,43.3c0-0.2,0.1-0.3,0.1-0.5c0.1-0.2,0.1-0.3,0.2-0.4l-0.1,0c0.2-0.6,0.4-1.2,0.6-1.9
		c0.1,0,0.2,0,0.3-0.1c-0.1,0-0.2,0-0.2,0c0.6-1.7,1.4-3.4,2.3-5c2.4-4.1,5.9-7.5,10.1-9.9c0.3,0.3,0.6,0.6,0.8,0.9v0
		c-4.1,2.3-7.5,5.6-9.9,9.6c-1.7,2.9-2.9,6.1-3.5,9.5h0c-0.2,0-0.4-0.1-0.6-0.1C14.1,44.6,14,43.8,14.1,43.3 M22.9,70.7
		c-4.2-3.6-7.3-8.5-8.7-14.2c-0.8-3.3-1-6.7-0.7-9.9l0.3,0.1c0.3,0.1,0.6,0.2,0.9,0.2c-0.3,3-0.1,6.2,0.7,9.3
		c0.4,1.5,0.9,2.9,1.4,4.2l0,0c0.3,1.8,1.3,3.4,2.7,4.7l0,0c1,1.4,2.2,2.7,3.4,3.9v0C22.9,69.7,22.9,70.2,22.9,70.7z M25.8,73
		c-0.6-0.4-1.2-0.8-1.7-1.2c0.1-0.5,0.1-0.9,0.1-1.4v0c0.6,0.5,1.3,1,2,1.5l0,0C26.1,72.2,26,72.6,25.8,73z M28.9,74.7
		c-0.6-0.3-1.2-0.6-1.8-1c0.2-0.3,0.5-0.7,0.7-1c0.6,0.3,1.2,0.7,1.8,1l0,0C29.4,74.1,29.2,74.4,28.9,74.7z M68.9,51.4
		c-0.3,4.5-1.6,8.9-3.9,12.7c-3.7,6.1-9.6,10.8-17.1,12.7c-6.1,1.5-12.3,0.9-17.7-1.4c0.2-0.3,0.4-0.7,0.7-1
		c5.1,2.2,11,2.7,16.8,1.3c7.1-1.8,12.9-6.3,16.3-12.1c1.9-3.2,3.2-6.8,3.6-10.6l0,0c0.3-0.2,0.6-0.5,0.9-0.7l0.1-0.1l0.1-0.1
		C68.7,51.7,68.8,51.6,68.9,51.4z M68.1,43.1c0.5,2,0.7,4,0.8,5.9c-0.3,1-0.7,1.8-1,2.4c-0.1,0.1-0.1,0.1-0.2,0.2h0
		c0.1-1.7,0.1-3.3-0.1-5c0.1-0.1,0.1-0.2,0.2-0.3c-0.1,0-0.2-0.1-0.3-0.1l0,0c-0.1-1-0.3-1.9-0.6-2.9L66.8,43
		C67.3,43,67.7,43,68.1,43.1z M63.8,33.8c1.8,2.5,3.2,5.4,4,8.5c-0.3-0.1-0.7-0.1-1-0.1l-0.1,0l-0.1,0c0,0-0.1,0-0.1,0
		c-0.8-2.7-2-5.2-3.5-7.4C63.4,34.4,63.6,34.1,63.8,33.8z M54,25.2c0.5,0.2,0.9,0.5,1.4,0.8c2.9,1.7,5.5,4,7.6,6.7
		c-0.2,0.4-0.4,0.7-0.7,1l0,0c-2.1-2.7-4.6-5-7.5-6.7l0,0h0c0.1,0,0.1,0,0.2,0c-0.6-0.6-1.3-0.9-2-1h0l-0.4-0.2h0
		C53,25.5,53.5,25.3,54,25.2z M43.5,22.1c3.1,0.3,6,1,8.8,2.2c-0.4,0.2-0.7,0.3-1,0.6L51,25.1l0,0c-2.3-0.9-4.7-1.5-7.2-1.8l0,0
		C43.7,22.8,43.6,22.4,43.5,22.1z M34.3,22.8c2.6-0.7,5.2-0.9,7.8-0.8l0,0c0.1,0.4,0.2,0.8,0.3,1.2v0c-2.5-0.1-5.2,0.1-7.8,0.8
		c-2.2,0.5-4.2,1.4-6.1,2.4v0c-0.1-0.4-0.3-0.7-0.5-1.1C30,24.2,32.1,23.4,34.3,22.8z"/>
	<path class="st2" d="M68.1,27.1c2.1,1.4,4.1,3.6,5.7,6.6c0.5,0.9,0.4,1.9-0.4,2.1c-1,0.2-1.7,1.1-2.5,0.3c-1.5-1.5-4.8-1.7-7.4-4.9
		c-0.6,2.2-1.2,2.4-2.5,3.9c-4.9,5.5-0.3,6.8-2.5,9.9c2.8,0.6,4.9,0.8,6.4,0.5c3,2.4-2.3,5.3-1.5,8.1c-2.1,1.4-4,2.1-5.7,2
		c0.4-1.4,0.7-2,0.7-2c1.8-0.5,2.8-0.8,2.8-0.8c0.5-1.1,1-2,1.5-2.7c2.2-3.2-1.7-2.1-4-1.4c-2.3,0.8-4.2,2.4-6.7,0.7
		c-3.5,3.2-7.9,5.3-13.3,6.2c2.1,0.9,2.5,2.4,1.1,4.1c-2.2,2.7-2.6,4.5-6.8,5.4c-1.1,5.4-3,9.2-5.7,11.6c-0.3-1.6-0.5-2.4-0.5-2.4
		c1.6-1.8,2.4-3.6,2.5-5.3c0.3-5.7-2-1.2-2.3,0.9c-0.5,3-3.2,9.1-6.9,9.4c0.3-1.8,0.4-2.7,0.4-2.7c1.4-0.7,2.1-1,2.1-1
		c1.9-2.2,2.4-5.1,1.5-8.5c1.6-0.7,2.7-2,3.2-3.9c-1.6-3.7-2.2-7.1-1.6-10.3c-2.8,1.9-3.5,5.2-2.4,10c-1.3-0.7-2.1-2.1-2.7-4.2
		c-0.9,2.4-0.8,4.2,0.2,5.6c-9.3-8.8,9-17.7,16.1-19.3c-2.2-0.8-4.6-0.4-7.3,1.1c1.5-1.7,2-2.9,1.7-3.4c-1.7,2-3.5,3.1-5.3,3.4
		c1-2,1.3-3.3,0.7-3.9c-1.9,2.2-3.6,3.1-5.2,2.7c0.3-1.5,1-2.7,2.1-3.6c-1.8,0.5-3.4,1.5-4.9,3.1c-1.8,1-3.2,1.3-4.3,1
		C13.9,44,14,43,14.4,42.4c-1.4,0.2-2.1,0.3-2.1,0.3c1-1.3,2-2,2.9-2.2c-3.5,0.1-6.1-0.3-7.8-1.2c1.3-0.9,3.6-1.7,6.7-2.3
		c-4.3-0.3-7.5-0.9-9.6-1.6c1.5-1.2,4.1-1.8,7.8-1.8c-4.9-1.2-8.2-2.4-9.9-3.5c1.7-0.8,4-1.1,6.9-0.8c-3.9-1.4-6.4-2.8-7.6-4.3
		c2.6,0.6,4.5,0.8,5.8,0.5c-3.7-1.6-6.1-3.2-7.5-4.9c2.5,0.4,4.8,1,7.1,1.9c-2.9-2.2-4.9-4.2-6-6.1c4.1,2.5,7.8,3.9,11,4.2
		c9.3,1.2,14.9,3.5,16.5,6.8c0.1-1.5-1.1-3-3.5-4.6c-3.7-1.6-5.9-3.2-6.6-4.8c3.2,1.8,5.5,2.7,6.9,2.6c-3.1-3.1-5-5.7-5.9-8
		c2.8,1,4.8,2,5.9,3c-2.6-2.7-3.8-5-3.6-7c1.7,1.4,2.9,2.5,3.7,3.2c-1.7-2.7-2.6-5.4-2.8-7.9c2.3,2.1,4.1,3.9,5.2,5.6
		c-1.8-3.8-2.5-6.9-2-9.2c2.2,4.6,3.9,7.5,5.3,8.8c6.6,3.2,10.2,7.6,11,13.3c1.3,6,2.7,9.6,4.2,10.9c1.2,0.3,2-0.4,2.6-2.2
		c-1.7,0.3-2.6,0.4-2.6,0.4c1-1.2,2.6-1.9,4.8-2c-1.3-0.6-2.4-0.8-3-0.8c2-0.9,4.3-1.4,6.9-1.5c-0.8-0.9-1.8-1.2-3-0.9
		c1.8-1.1,3.8-1.3,6-0.5c-0.3-1-0.5-1.4-0.5-1.4c2.4-0.2,4.6,0.3,6.6,1.6c-0.2-1.2,0.4-2.2,2.1-2.9c0.2,1.2,0.2,2.2,0,2.9
		c2.1-0.3,3.8,0,5,1.1C70.2,27.2,69.2,27.3,68.1,27.1"/>
	<path class="st2" d="M65.2,44.7c-2-0.1-3.8-0.2-5.4-0.4c0.3-0.6,0.4-1.5,0.2-2.9c2.3,1.2,4.5,1.7,6.7,1.5c2.6,0.2,3.5,1.2,2.8,3.1
		c-0.5,2.5-1,4.3-1.8,5.4c-1.1,1-2.2,1.6-3.4,1.8c0.1-1,0.3-1.8,0.6-2.4c1.1-0.4,1.7-0.6,1.7-0.6c-0.2-1.2,0.1-2.6,1-4
		C66.6,45.8,65.8,45.3,65.2,44.7"/>
	<rect x="85.5" y="69.7" class="st2" width="212.7" height="4.8"/>
</g>
</svg>
