<?xml version="1.0" encoding="UTF-8"?>
<!DOCTYPE svg PUBLIC "-//W3C//DTD SVG 1.0//EN" "http://www.w3.org/TR/2001/REC-SVG-20010904/DTD/svg10.dtd">
<!-- Creator: CorelDRAW 2019 (64-Bit) -->
<svg xmlns="http://www.w3.org/2000/svg" xml:space="preserve" width="181px" height="349px" version="1.0" shape-rendering="geometricPrecision" text-rendering="geometricPrecision" image-rendering="optimizeQuality" fill-rule="evenodd" clip-rule="evenodd"
viewBox="0 0 180.26 347.8"
 xmlns:xlink="http://www.w3.org/1999/xlink">
 <defs>
    <radialGradient id="id0" gradientUnits="userSpaceOnUse" gradientTransform="matrix(0.911663 -0.99305 1.00488 0.900932 -102 94)" cx="83.65" cy="108.87" r="9.93" fx="83.65" fy="108.87">
     <stop offset="0" stop-opacity="1" stop-color="#FCFCFA"/>
     <stop offset="0.0588235" stop-opacity="1" stop-color="#FCFCFA"/>
     <stop offset="0.14902" stop-opacity="1" stop-color="#F4ECD6"/>
     <stop offset="0.301961" stop-opacity="1" stop-color="#E8D5A0"/>
     <stop offset="0.439216" stop-opacity="1" stop-color="#DEC473"/>
     <stop offset="0.54902" stop-opacity="1" stop-color="#D7B851"/>
     <stop offset="0.65098" stop-opacity="1" stop-color="#D2B03C"/>
     <stop offset="0.709804" stop-opacity="1" stop-color="#D0AE33"/>
     <stop offset="0.960784" stop-opacity="1" stop-color="#D0AE33"/>
     <stop offset="1" stop-opacity="1" stop-color="#D0AE33"/>
    </radialGradient>
    <linearGradient id="id1" gradientUnits="userSpaceOnUse" x1="90.88" y1="127.67" x2="90.88" y2="112.83">
     <stop offset="0" stop-opacity="1" stop-color="#F9F7F3"/>
     <stop offset="0.101961" stop-opacity="1" stop-color="#F9F7F3"/>
     <stop offset="0.65098" stop-opacity="1" stop-color="#D0AE33"/>
     <stop offset="1" stop-opacity="1" stop-color="#D0AE33"/>
    </linearGradient>
    <linearGradient id="id2" gradientUnits="userSpaceOnUse" x1="90.88" y1="165.91" x2="83.27" y2="165.91">
     <stop offset="0" stop-opacity="1" stop-color="#FCFCFA"/>
     <stop offset="0.0588235" stop-opacity="1" stop-color="#FCFCFA"/>
     <stop offset="0.788235" stop-opacity="1" stop-color="#D0AE33"/>
     <stop offset="1" stop-opacity="1" stop-color="#D0AE33"/>
    </linearGradient>
    <linearGradient id="id3" gradientUnits="userSpaceOnUse" x1="90.88" y1="249.63" x2="83.27" y2="249.63">
     <stop offset="0" stop-opacity="1" stop-color="#FCFCFA"/>
     <stop offset="0.788235" stop-opacity="1" stop-color="#D0AE33"/>
     <stop offset="1" stop-opacity="1" stop-color="#D0AE33"/>
    </linearGradient>
    <linearGradient id="id4" gradientUnits="userSpaceOnUse" x1="90.88" y1="318.12" x2="83.27" y2="318.12">
     <stop offset="0" stop-opacity="1" stop-color="#FCFCFA"/>
     <stop offset="0.788235" stop-opacity="1" stop-color="#D0AE33"/>
     <stop offset="1" stop-opacity="1" stop-color="#D0AE33"/>
    </linearGradient>
 </defs>
 <g id="Слой_x0020_1">
  <metadata id="CorelCorpID_0Corel-Layer"/>
  <g id="_1873909330176">
   <path fill="#D0AE33" d="M166.99 105.79c0.76,9.13 -20.55,16.74 -22.07,8.37 0,-8.37 15.22,-2.29 22.07,-8.37l0 0zm-25.12 -22.84l0 0c1.52,-8.37 16.74,-5.32 25.88,-6.08 4.56,0 6.85,-3.81 10.65,-3.81 0.76,3.81 -2.28,8.37 -5.33,11.42 -9.13,8.37 -32.72,10.65 -31.2,-1.53l0 0zm4.57 17.51c-0.76,11.41 28.92,2.28 26.63,-9.13 -2.28,-0.76 -3.8,3.04 -8.37,3.8 -7.61,0.76 -18.26,-1.52 -18.26,5.33l0 0 0 0zm-109.59 13.7l0 0c-2.29,8.37 -22.84,0.76 -22.07,-8.37 6.08,6.08 21.3,0 22.07,8.37l0 0zm-35.77 -57.08c-0.76,0.76 -1.53,3.8 -0.76,6.09 4.56,17.5 42.61,0 45.66,14.46 0.76,5.32 -6.09,12.17 -7.61,19.02 -1.52,12.94 5.33,16.75 12.17,21.31 -3.8,5.33 -11.41,9.14 -14.46,14.46 16.75,0 35.77,0 54.04,0 18.26,0 37.29,0 54.03,0 -3.04,-6.09 -10.65,-9.13 -14.46,-14.46 6.85,-4.56 14.46,-8.37 12.18,-21.31 -0.76,-7.61 -8.37,-14.46 -7.61,-19.02 3.04,-14.46 40.34,3.04 45.66,-14.46 0.76,-2.29 0,-5.33 0,-6.85 -15.98,9.13 -44.9,-1.52 -54.79,9.89 -13.7,17.51 12.94,31.2 -2.29,41.86 -4.56,-3.04 -7.61,-9.89 -13.69,-15.22 -3.81,-3.81 -11.42,-5.33 -19.03,-6.09 -7.61,0 -15.22,2.28 -19.03,6.09 -6.09,5.33 -9.13,12.18 -13.7,15.22 -15.22,-10.66 11.42,-25.12 -2.28,-41.86 -9.89,-11.41 -38.81,0 -54.03,-9.13l0 0 0 0zm12.17 20.55l0 0c9.14,0 24.36,-2.29 25.88,6.09 1.52,12.17 -22.07,9.89 -31.2,1.52 -3.05,-3.05 -6.85,-7.61 -5.33,-11.42 3.8,0 6.09,3.81 10.65,3.81l0 0zm3.05 16.74c-4.57,-0.76 -6.09,-4.57 -8.37,-3.8 -2.29,12.17 28.15,20.54 26.63,9.13 0,-6.09 -10.65,-3.81 -18.26,-5.33l0 0z"/>
   <path fill="#D0AE33" d="M50.54 231.36c4.57,-16.74 31.97,-27.4 44.15,-32.73 12.17,-4.56 41.85,-12.17 38.05,-36.53 -0.76,-4.56 -3.81,-11.41 -11.42,-11.41 -4.56,0 -6.09,4.56 -6.85,10.65 -0.76,4.57 -6.85,1.53 -9.89,-1.52 -3.04,-3.04 -0.76,-17.5 8.37,-20.55 17.51,-4.56 32.73,4.57 34.25,19.03 3.8,29.68 -23.59,43.38 -41.1,50.23 -22.07,8.37 -45.66,15.22 -42.62,40.33 1.52,12.18 6.09,16.75 18.27,26.64 0,-15.98 -0.76,-52.51 -0.76,-52.51 0,0 3.04,-2.28 12.93,-6.09 9.14,-3.81 16.75,-6.09 16.75,-6.09 17.5,9.9 23.59,22.07 21.31,38.82 -2.29,17.5 -22.83,33.48 -34.25,39.57 -11.42,6.09 -28.16,13.7 -30.44,26.64 -1.52,7.61 -0.76,13.7 6.85,15.98 3.8,0.76 4.56,3.04 4.56,3.8 0,1.53 -4.56,3.05 -10.65,0.77 -5.33,-2.29 -9.13,-7.62 -8.37,-15.99 0.76,-7.61 3.04,-22.83 19.78,-31.2 16.75,-8.37 30.45,-15.98 35.77,-32.73 4.57,-13.69 0,-25.87 -15.22,-35 -0.76,22.07 -1.52,53.27 -1.52,53.27 -3.04,2.28 -7.61,4.57 -11.42,6.85 -3.8,2.28 -7.61,3.8 -9.13,4.57 -15.98,-12.18 -35.01,-26.64 -27.4,-54.8z"/>
   <path fill="#D0AE33" d="M90.12 296.81c3.04,-1.52 8.37,-4.57 11.42,-6.09 15.98,12.18 19.02,20.55 19.78,28.16 0.76,8.37 -3.04,13.7 -8.37,15.98 -6.09,3.05 -10.65,0.76 -10.65,-0.76 0,-1.52 0.76,-3.04 4.56,-3.8 8.37,-2.29 8.37,-6.85 6.85,-14.46 -1.52,-3.81 -7.61,-10.66 -14.46,-16.75l-0.76 47.19 -15.22 0 -0.76 -45.66c0,0.76 3.8,-1.53 7.61,-3.81z"/>
   <path fill="#D0AE33" d="M33.04 159.06c2.28,-14.46 16.74,-23.59 35.01,-19.03 9.13,2.29 12.18,16.75 8.37,20.55 -3.04,3.05 -9.13,6.09 -9.89,1.52 -0.76,-6.08 -2.29,-10.65 -6.85,-10.65 -7.61,-0.76 -10.66,6.09 -11.42,11.42 -3.8,21.3 19.03,29.68 33.49,34.24 0,-12.17 -0.76,-60.12 -0.76,-60.12l19.78 0 -0.76 57.08c0,0 -11.41,3.8 -15.98,6.09 -5.33,2.28 -10.65,5.32 -13.7,6.85 -18.26,-7.61 -40.33,-21.31 -37.29,-47.95z"/>
   <path fill="url(#id0)" d="M62.72 119.49c4.57,8.37 18.27,10.65 29.68,3.8 11.42,-6.09 16.75,-18.26 12.18,-27.4 -4.57,-8.37 -18.27,-10.65 -29.68,-3.8 -11.42,6.85 -16.74,19.02 -12.18,27.4z"/>
   <path fill="url(#id1)" d="M131.22 120.25c3.8,4.56 6.08,5.32 8.37,6.85 -73.82,0.76 -94.37,0.76 -97.42,0 3.81,-3.05 5.33,-4.57 7.61,-6.85 46.43,0.76 81.44,0 81.44,0z"/>
   <g>
    <path fill="#CEAD79" d="M122.84 140.03c-2.28,1.53 6.09,5.33 12.18,9.9 6.09,4.56 7.61,12.17 9.9,11.41 5.32,-0.76 -0.77,-12.93 -6.09,-17.5 -5.33,-3.81 -13.7,-5.33 -15.99,-3.81z"/>
    <path fill="#D0B384" d="M144.92 161.34c5.32,-0.76 -0.77,-12.93 -6.09,-16.74 -5.33,-3.81 -13.7,-6.09 -15.99,-4.57 -2.28,1.53 6.09,4.57 12.18,9.14 6.09,5.32 7.61,12.17 9.9,12.17z"/>
    <path fill="#D2B98F" d="M144.15 160.58c4.57,-0.76 -0.76,-12.17 -6.08,-15.98 -5.33,-3.81 -12.94,-5.33 -15.23,-4.57 -2.28,1.53 6.09,4.57 11.42,9.14 6.85,4.56 7.61,12.17 9.89,11.41z"/>
    <path fill="#D8BF9A" d="M144.15 159.82c4.57,-0.76 -0.76,-12.18 -5.32,-15.22 -4.57,-3.81 -12.94,-5.33 -15.22,-3.81 -2.29,1.53 5.32,4.57 11.41,9.14 5.33,3.8 6.85,10.65 9.13,9.89z"/>
    <path fill="#DBC4A3" d="M144.15 159.82c4.57,-1.52 -0.76,-11.41 -5.32,-15.22 -4.57,-3.81 -12.18,-5.33 -14.46,-3.81 -2.29,1.53 5.32,4.57 11.41,8.38 4.57,4.56 6.09,11.41 8.37,10.65z"/>
    <path fill="#DECBAB" d="M144.15 159.06c3.81,-1.52 -0.76,-11.42 -5.32,-14.46 -4.57,-3.81 -12.18,-5.33 -13.7,-3.81 -2.29,1.53 5.33,4.57 10.65,8.38 4.57,3.8 6.09,10.65 8.37,9.89z"/>
    <path fill="#E1D0B4" d="M144.15 159.06c3.81,-1.52 -0.76,-10.65 -5.32,-13.7 -4.57,-3.04 -11.42,-5.33 -13.7,-3.8 -1.52,1.52 5.33,3.8 10.65,8.37 4.57,3.04 6.09,9.13 8.37,9.13z"/>
    <path fill="#E2D3BB" d="M144.15 158.3c3.81,-1.52 -0.76,-9.89 -5.32,-13.7 -4.57,-3.04 -11.42,-5.33 -12.94,-3.81 -1.52,1.53 5.33,3.81 9.89,7.62 4.57,4.56 6.09,10.65 8.37,9.89z"/>
    <path fill="#E6D7C3" d="M143.39 157.54c3.05,-1.52 -0.76,-9.9 -5.32,-12.94 -4.57,-3.04 -10.66,-5.33 -12.94,-3.81 -1.52,1.53 4.56,3.81 9.89,7.62 5.33,4.56 6.85,9.89 8.37,9.13z"/>
    <path fill="#E7DCCA" d="M143.39 157.54c3.05,-1.52 -0.76,-9.13 -4.56,-12.18 -3.81,-3.04 -10.66,-5.33 -12.18,-3.8 -1.52,1.52 4.57,3.8 9.13,7.61 4.57,3.04 6.09,9.13 7.61,8.37z"/>
    <path fill="#EADFD0" d="M143.39 156.78c3.05,-1.53 -0.76,-9.14 -4.56,-12.18 -3.81,-3.04 -9.9,-4.57 -12.18,-3.81 -1.52,0.77 4.57,3.05 9.13,6.85 4.57,4.57 6.09,9.9 7.61,9.14z"/>
    <path fill="#ECE4D7" d="M143.39 156.78c2.29,-1.53 -0.76,-8.37 -4.56,-11.42 -3.81,-3.04 -9.9,-4.57 -11.42,-3.8 -1.52,0.76 4.57,3.04 9.13,6.85 3.81,3.8 5.33,9.13 6.85,8.37z"/>
    <path fill="#EFE8DC" d="M143.39 156.02c2.29,-1.53 -0.76,-8.38 -4.56,-10.66 -3.81,-3.04 -9.14,-4.57 -10.66,-3.8 -1.52,0.76 3.81,3.04 8.37,6.85 3.81,3.04 5.33,8.37 6.85,7.61z"/>
    <path fill="#F0EBE1" d="M142.63 156.02c2.29,-1.53 -0.76,-7.61 -4.56,-9.9 -3.81,-3.04 -9.14,-4.56 -10.66,-3.8 -1.52,0.76 3.81,3.04 8.37,6.09 4.57,3.04 6.09,8.37 6.85,7.61z"/>
    <path fill="#F2EDE5" d="M142.63 155.25c2.29,-1.52 -0.76,-6.84 -4.56,-9.89 -3.81,-2.28 -8.38,-4.57 -9.9,-3.8 -1.52,0.76 3.81,2.28 7.61,6.08 4.57,3.81 6.09,8.38 6.85,7.61z"/>
    <path fill="#F4EFE8" d="M142.63 154.49c1.52,-1.52 -0.76,-6.85 -4.56,-9.13 -3.05,-2.28 -8.38,-4.57 -9.9,-3.8 -1.52,0.76 3.81,2.28 7.61,6.08 4.57,3.05 6.09,7.61 6.85,6.85z"/>
    <path fill="#F5F1EC" d="M142.63 154.49c1.52,-1.52 -0.76,-6.08 -3.8,-8.37 -3.05,-2.28 -7.61,-4.56 -9.14,-3.04 -1.52,0.76 3.05,2.28 7.61,5.33 3.05,2.28 4.57,6.84 5.33,6.08z"/>
    <path fill="#F6F3EF" d="M142.63 153.73c1.52,-1.52 -0.76,-6.09 -3.8,-8.37 -3.05,-2.28 -7.61,-4.57 -9.14,-3.04 -1.52,0.76 3.05,2.28 6.85,5.32 3.81,3.05 4.57,6.85 6.09,6.09z"/>
    <path fill="#F7F5F2" d="M142.63 153.73c0.76,-0.76 -0.76,-5.32 -3.8,-7.61 -3.05,-2.28 -6.85,-3.8 -8.37,-3.04 -1.53,0 2.28,1.52 6.08,4.56 3.81,3.05 4.57,6.85 6.09,6.09z"/>
    <path fill="#FBF9F6" d="M141.87 152.97c0.76,-0.76 -0.76,-4.56 -3.8,-6.85 -3.05,-2.28 -6.85,-3.8 -8.38,-3.04 -1.52,0.76 3.05,1.52 6.09,4.56 3.81,2.29 5.33,6.09 6.09,5.33z"/>
    <path fill="#FCFBF8" d="M141.87 152.21c0.76,-0.76 -0.76,-4.57 -3.8,-6.09 -3.05,-2.28 -6.09,-3.8 -7.61,-3.04 -0.77,0.76 2.28,1.52 6.08,4.56 3.05,2.29 4.57,6.09 5.33,4.57z"/>
    <path fill="#FEFEFC" d="M131.22 143.08c-0.76,0.76 2.28,1.52 6.08,4.56 3.05,2.29 4.57,6.09 4.57,4.57 0.76,-0.76 -0.76,-3.8 -3.8,-6.09 -2.29,-2.28 -6.09,-3.8 -6.85,-3.04z"/>
   </g>
   <g>
    <path fill="#CEAD79" d="M57.39 140.79c-1.52,1.53 3.81,3.81 8.38,6.85 4.56,3.05 8.37,9.9 9.89,7.61 2.28,-5.32 -2.28,-11.41 -6.09,-13.69 -3.8,-2.29 -10.65,-2.29 -12.18,-0.77z"/>
    <path fill="#D0B384" d="M75.66 154.49c1.52,-4.56 -2.28,-10.65 -6.09,-12.93 -3.8,-2.29 -9.89,-2.29 -11.41,-1.53 -1.53,1.53 3.8,3.81 8.37,6.85 4.56,3.05 8.37,9.9 9.13,7.61z"/>
    <path fill="#D2B98F" d="M75.66 154.49c1.52,-4.56 -2.28,-10.65 -6.09,-12.93 -3.8,-2.29 -9.89,-2.29 -11.41,-1.53 -1.53,1.53 3.8,3.81 8.37,6.09 4.56,3.05 8.37,10.66 9.13,8.37z"/>
    <path fill="#D8BF9A" d="M75.66 153.73c1.52,-4.56 -2.28,-9.89 -6.09,-12.17 -3.8,-2.29 -9.13,-2.29 -10.65,-1.53 -1.53,1.53 3.8,3.81 7.61,6.09 4.56,3.05 8.37,9.9 9.13,7.61z"/>
    <path fill="#DBC4A3" d="M74.9 153.73c1.52,-4.56 -2.28,-9.89 -6.09,-11.41 -3.81,-2.29 -9.13,-2.29 -10.65,-1.53 -1.53,1.53 3.8,3.81 7.61,6.09 4.56,2.29 9.13,9.14 9.13,6.85z"/>
    <path fill="#DECBAB" d="M74.9 153.73c1.52,-3.8 -2.28,-9.13 -6.09,-11.41 -3.81,-2.29 -9.13,-2.29 -9.89,-1.53 -1.53,1.53 3.8,3.05 7.61,6.09 3.8,2.29 7.61,8.37 8.37,6.85z"/>
    <path fill="#E1D0B4" d="M74.9 152.97c1.52,-3.8 -2.28,-9.13 -5.33,-10.65 -3.04,-2.29 -8.37,-2.29 -9.89,-1.53 -1.52,1.53 3.04,3.05 7.61,5.33 3.04,2.29 6.85,8.37 7.61,6.85z"/>
    <path fill="#E2D3BB" d="M74.9 152.97c1.52,-3.8 -2.28,-8.37 -5.33,-10.65 -3.04,-2.29 -8.37,-2.29 -9.89,-1.53 -1.52,0.77 3.04,3.05 6.85,5.33 3.8,2.29 7.61,8.37 8.37,6.85z"/>
    <path fill="#E6D7C3" d="M74.9 152.21c1.52,-3.8 -2.28,-8.37 -5.33,-9.89 -3.04,-1.53 -8.37,-2.29 -9.13,-1.53 -1.52,0.77 3.04,3.05 6.85,5.33 3.04,2.29 6.85,7.61 7.61,6.09z"/>
    <path fill="#E7DCCA" d="M74.14 152.21c1.52,-3.04 -2.29,-7.61 -5.33,-9.89 -3.04,-1.53 -7.61,-2.29 -9.13,-1.53 -1.52,0.77 3.04,3.05 6.85,5.33 3.8,2.29 7.61,7.61 7.61,6.09z"/>
    <path fill="#EADFD0" d="M74.14 151.45c0.76,-3.04 -2.29,-7.61 -5.33,-9.13 -3.04,-1.53 -7.61,-2.29 -8.37,-1.53 -0.76,0.77 3.04,3.05 6.09,4.57 3.8,2.28 7.61,7.61 7.61,6.09z"/>
    <path fill="#ECE4D7" d="M74.14 151.45c0.76,-3.04 -2.29,-7.61 -4.57,-9.13 -3.04,-1.53 -7.61,-2.29 -8.37,-1.53 -0.76,0.77 3.04,2.29 6.09,4.57 3.04,2.28 6.09,7.61 6.85,6.09z"/>
    <path fill="#EFE8DC" d="M74.14 150.69c0.76,-2.28 -2.29,-6.85 -4.57,-8.37 -3.04,-1.53 -6.85,-2.29 -8.37,-1.53 -0.76,0.77 2.28,2.29 6.09,4.57 3.04,2.28 6.09,6.85 6.85,5.33z"/>
    <path fill="#F0EBE1" d="M74.14 150.69c0.76,-2.28 -2.29,-6.85 -4.57,-8.37 -3.04,-1.53 -6.85,-2.29 -7.61,-1.53 -1.52,1.53 2.28,2.29 5.33,4.57 3.04,2.28 6.09,6.85 6.85,5.33z"/>
    <path fill="#F2EDE5" d="M74.14 149.93c0.76,-2.29 -2.29,-6.09 -4.57,-7.61 -2.28,-1.53 -6.09,-2.29 -7.61,-1.53 -0.76,0.77 2.28,2.29 5.33,4.57 3.04,2.28 6.09,6.09 6.85,4.57z"/>
    <path fill="#F4EFE8" d="M73.38 149.93c0.76,-2.29 -2.29,-6.09 -4.57,-7.61 -2.28,-1.53 -6.09,-2.29 -6.85,-1.53 -0.76,0.77 2.28,2.29 5.33,3.81 3.04,2.28 6.09,6.85 6.09,5.33z"/>
    <path fill="#F5F1EC" d="M73.38 149.93c0.76,-1.52 -1.53,-5.33 -4.57,-6.85 -2.28,-1.52 -6.09,-2.29 -6.85,-1.52 0,0.76 2.28,1.52 6.09,3.8 2.28,1.52 5.33,5.33 5.33,4.57z"/>
    <path fill="#F6F3EF" d="M73.38 149.17c0.76,-1.53 -1.53,-5.33 -3.81,-6.09 -2.28,-1.52 -5.33,-2.29 -6.85,-1.52 -0.76,0.76 2.28,1.52 5.33,3.8 2.28,1.52 4.57,5.33 5.33,3.81z"/>
    <path fill="#F7F5F2" d="M73.38 149.17c0.76,-1.53 -1.53,-4.57 -3.81,-6.09 -2.28,-1.52 -5.33,-2.29 -6.09,-1.52 -1.52,0.76 1.52,1.52 4.57,3.04 2.28,2.28 4.57,5.33 5.33,4.57z"/>
    <path fill="#FBF9F6" d="M73.38 148.41c0.76,-1.53 -1.53,-4.57 -3.81,-5.33 -2.28,-1.52 -5.33,-2.29 -6.09,-1.52 -0.76,0.76 1.52,1.52 4.57,3.04 2.28,1.52 4.57,5.33 5.33,3.81z"/>
    <path fill="#FCFBF8" d="M72.62 148.41c0,-0.77 -1.53,-3.81 -3.81,-5.33 -2.28,-1.52 -4.57,-2.29 -5.33,-1.52 -0.76,0.76 1.52,1.52 4.57,3.04 2.28,1.52 4.57,4.57 4.57,3.81z"/>
    <path fill="#FEFEFC" d="M64.24 141.56c-0.76,0.76 1.53,1.52 3.81,3.04 2.28,1.52 4.57,4.57 4.57,3.04 0,-0.76 -1.53,-3.8 -3.81,-4.56 -1.52,-1.52 -3.81,-2.29 -4.57,-1.52z"/>
   </g>
   <path fill="#CEAD79" d="M125.89 184.94c3.04,-2.29 3.04,5.32 -6.09,12.17 -9.13,6.85 -31.2,15.22 -38.05,18.27 -6.85,3.04 -19.79,12.94 -21.31,12.17 -2.28,-1.52 -1.52,-7.61 4.56,-12.17 7.62,-6.09 19.79,-12.18 29.69,-15.22 11.41,-3.81 25.11,-10.66 31.2,-15.22z"/>
   <path fill="#D2B586" d="M81.75 214.62c-6.85,3.04 -19.03,13.7 -21.31,12.17 -2.28,-0.76 -1.52,-7.61 4.56,-12.17 7.62,-6.09 19.03,-12.18 29.69,-15.22 11.41,-3.81 25.11,-9.9 30.44,-14.46 3.04,-2.29 3.04,5.32 -6.09,11.41 -8.37,6.85 -30.44,15.98 -37.29,18.27z"/>
   <path fill="#D4BB92" d="M81.75 214.62c-6.85,3.04 -19.03,12.93 -21.31,12.17 -2.28,-0.76 -0.76,-7.61 4.56,-12.17 7.62,-6.09 19.03,-11.42 29.69,-15.22 11.41,-3.81 24.35,-9.9 30.44,-13.7 3.04,-2.29 3.04,4.56 -6.09,10.65 -9.13,6.85 -30.44,15.22 -37.29,18.27z"/>
   <path fill="#D8C09B" d="M81.75 214.62c-6.85,3.04 -19.03,12.93 -21.31,12.17 -1.52,-0.76 -0.76,-6.85 4.56,-11.41 7.62,-6.09 19.03,-11.42 28.92,-14.46 11.42,-3.81 24.36,-9.9 29.69,-13.7 2.28,-2.28 3.04,4.57 -5.33,10.65 -8.37,5.33 -29.68,13.7 -36.53,16.75z"/>
   <path fill="#DBC5A4" d="M81.75 213.86c-6.85,3.04 -19.03,12.93 -21.31,12.17 -1.52,-0.76 0,-6.85 5.33,-11.41 7.61,-6.09 19.02,-11.42 28.92,-14.46 11.41,-3.81 23.59,-9.14 29.68,-13.7 2.28,-1.52 3.04,4.56 -5.33,9.89 -9.13,6.85 -29.68,14.46 -37.29,17.51z"/>
   <path fill="#DECCAD" d="M81.75 213.86c-6.85,3.04 -19.03,12.93 -20.55,12.17 -1.52,-0.76 -0.76,-6.85 4.57,-11.41 7.61,-6.09 19.02,-11.42 28.92,-14.46 11.41,-3.81 23.59,-9.14 28.92,-12.94 2.28,-1.52 3.04,4.57 -5.33,9.89 -8.37,6.09 -28.92,13.7 -36.53,16.75z"/>
   <path fill="#E2D2B7" d="M81.75 213.09c-6.85,3.05 -19.03,12.94 -20.55,12.18 -1.52,0 -0.76,-6.09 5.33,-10.65 7.61,-6.09 19.02,-11.42 28.92,-14.46 10.65,-3.81 22.83,-9.14 28.16,-12.94 2.28,-1.52 2.28,3.8 -5.33,9.13 -9.13,6.85 -28.92,13.7 -36.53,16.74z"/>
   <path fill="#E4D5BE" d="M81.75 213.09c-6.85,3.05 -18.27,12.18 -20.55,12.18 -1.52,-0.76 -0.76,-6.09 5.33,-10.65 7.61,-6.09 19.02,-10.66 28.92,-14.46 10.65,-3.81 22.83,-9.14 28.16,-12.94 2.28,-1.52 2.28,3.8 -4.57,9.13 -9.89,6.85 -29.68,13.7 -37.29,16.74z"/>
   <path fill="#E7DAC6" d="M81.75 213.09c-6.85,3.05 -18.27,12.18 -20.55,12.18 -1.52,0 -0.76,-6.09 5.33,-10.65 7.61,-5.33 18.26,-10.66 28.16,-13.7 10.65,-3.05 22.07,-9.13 27.39,-12.18 2.29,-1.52 2.29,3.81 -4.56,8.37 -8.37,5.33 -28.16,12.94 -35.77,15.98z"/>
   <path fill="#E7DECD" d="M82.51 212.33c-6.85,3.05 -18.27,11.42 -20.55,12.18 -1.52,0 -0.76,-5.33 5.33,-9.89 7.61,-5.33 18.26,-10.66 28.16,-13.7 10.65,-3.05 22.07,-8.37 27.39,-12.18 2.29,-1.52 2.29,3.05 -4.56,8.37 -9.9,5.33 -28.92,12.18 -35.77,15.22z"/>
   <path fill="#ECE2D3" d="M82.51 212.33c-6.85,3.05 -18.27,11.42 -20.55,12.18 -1.52,0 -0.76,-5.33 5.33,-9.89 7.61,-5.33 18.26,-10.66 28.16,-13.7 10.65,-3.05 21.31,-8.37 26.63,-12.18 2.29,-1.52 2.29,3.05 -4.56,7.61 -9.14,6.09 -28.16,12.94 -35.01,15.98z"/>
   <path fill="#EFE6DA" d="M82.51 211.57c-6.85,3.05 -17.51,11.42 -19.79,12.18 -1.52,0 -0.76,-5.33 5.33,-9.13 6.85,-5.33 18.26,-10.66 28.16,-13.7 10.65,-3.05 21.31,-8.37 26.63,-11.42 2.29,-1.52 2.29,3.05 -4.56,6.85 -9.9,6.09 -28.92,12.18 -35.77,15.22z"/>
   <path fill="#EFE9DE" d="M82.51 211.57c-6.85,3.05 -17.51,11.42 -19.79,12.18 -1.52,0 0,-5.33 5.33,-9.13 6.85,-5.33 18.26,-10.66 28.16,-13.7 10.65,-3.05 20.55,-8.37 25.87,-11.42 2.29,-1.52 2.29,3.05 -3.8,6.85 -9.9,6.09 -28.92,12.18 -35.77,15.22z"/>
   <path fill="#F2ECE2" d="M82.51 211.57c-7.61,3.05 -17.51,10.66 -19.79,12.18 -1.52,0 0,-4.57 5.33,-9.13 6.85,-5.33 18.26,-9.9 27.4,-12.94 10.65,-3.05 20.55,-8.37 25.11,-11.42 2.28,-1.52 1.52,2.29 -3.8,6.09 -9.14,6.09 -27.4,11.42 -34.25,15.22z"/>
   <path fill="#F3EDE6" d="M82.51 210.81c-7.61,3.05 -17.51,10.66 -19.79,12.18 -1.52,0 0,-4.57 5.33,-8.37 6.85,-5.33 18.26,-9.9 27.4,-12.94 10.65,-3.05 19.78,-7.61 25.11,-10.66 2.28,-1.52 1.52,2.29 -3.8,6.09 -9.14,5.33 -27.4,10.66 -34.25,13.7z"/>
   <path fill="#F5F1EB" d="M82.51 210.81c-7.61,3.05 -16.74,10.66 -19.79,12.18 -0.76,0.76 0,-4.57 5.33,-8.37 6.85,-5.33 18.26,-9.9 27.4,-12.94 10.65,-3.05 19.78,-7.61 24.35,-10.66 1.52,-0.76 1.52,2.29 -3.8,5.33 -8.38,6.09 -25.88,11.42 -33.49,14.46z"/>
   <path fill="#F6F2ED" d="M82.51 210.05c-7.61,3.04 -16.74,10.66 -19.03,12.18 -0.76,0.76 0,-3.81 5.33,-8.37 6.85,-5.33 17.5,-9.9 27.4,-12.94 10.65,-3.05 19.02,-7.61 24.35,-10.66 1.52,-0.76 1.52,1.53 -3.8,5.33 -9.14,6.09 -26.64,11.42 -34.25,14.46z"/>
   <path fill="#F7F5F0" d="M82.51 210.05c-7.61,3.04 -16.74,10.66 -19.03,12.18 -0.76,0.76 0,-3.81 5.33,-7.61 6.85,-5.33 17.5,-9.9 27.4,-12.94 10.65,-3.05 19.02,-7.61 23.59,-9.89 1.52,-0.77 1.52,1.52 -3.04,4.56 -9.9,5.33 -26.64,10.66 -34.25,13.7z"/>
   <path fill="#F9F7F3" d="M82.51 210.05c-7.61,3.04 -15.98,10.66 -19.03,12.18 -0.76,0.76 0,-3.81 5.33,-7.61 6.85,-5.33 17.5,-9.14 26.64,-12.18 10.65,-3.04 18.26,-7.61 22.83,-9.89 1.52,-0.76 1.52,1.52 -3.05,3.8 -8.37,5.33 -25.11,9.9 -32.72,13.7z"/>
   <path fill="white" d="M82.51 209.29c-7.61,3.04 -15.98,9.89 -19.03,12.18 -0.76,0.76 0,-3.05 5.33,-7.61 6.85,-5.33 17.5,-9.14 26.64,-12.18 9.89,-3.05 17.5,-6.85 22.83,-9.89 1.52,-0.77 1.52,1.52 -3.05,3.8 -8.37,6.09 -25.11,10.66 -32.72,13.7z"/>
   <path fill="#FCFCFA" d="M82.51 209.29c-7.61,3.04 -15.98,9.89 -19.03,12.18 -0.76,0.76 0,-3.05 5.33,-6.85 6.85,-4.57 17.5,-9.14 26.64,-12.18 9.89,-3.04 17.5,-6.85 22.07,-9.13 1.52,-0.76 0.76,0.76 -3.05,3.04 -8.37,5.33 -24.35,9.13 -31.96,12.94z"/>
   <path fill="#FEFEFD" d="M117.52 193.31c1.52,-0.76 0.76,0.76 -2.29,3.04 -8.37,5.33 -25.11,9.13 -32.72,12.94 -7.61,3.04 -15.98,9.89 -18.27,12.18 -0.76,0.76 0,-3.05 5.33,-6.85 6.85,-4.57 17.51,-9.14 26.64,-12.18 9.89,-3.04 16.74,-6.85 21.31,-9.13z"/>
   <g>
    <path fill="#CEAD79" d="M71.09 199.4c2.29,0 8.37,-1.53 2.29,-3.81 -8.38,-3.8 -14.46,-7.61 -18.27,-10.65 -7.61,-6.85 -7.61,-13.7 -10.65,-14.46 -1.53,-0.77 -2.29,9.13 0,12.93 3.04,4.57 6.85,8.38 12.17,11.42 6.85,3.04 11.42,4.57 14.46,4.57z"/>
    <path fill="#D2B586" d="M55.11 184.94c-7.61,-6.09 -7.61,-12.94 -10.65,-14.46 -1.53,-0.77 -2.29,8.37 0,12.17 3.04,4.57 6.85,8.37 12.17,11.42 6.09,3.04 10.66,4.56 13.7,4.56 2.29,0 8.37,-1.52 2.29,-3.8 -7.62,-3.04 -13.7,-6.85 -17.51,-9.89z"/>
    <path fill="#D4BB92" d="M55.11 184.94c-6.85,-6.09 -7.61,-12.94 -10.65,-13.7 -1.53,-0.76 -2.29,8.37 0.76,12.17 3.04,4.57 6.85,8.38 12.17,11.42 6.09,3.04 9.9,4.57 13.7,4.57 2.29,0 7.61,-1.53 2.29,-3.81 -8.38,-3.8 -14.46,-7.61 -18.27,-10.65z"/>
    <path fill="#D8C09B" d="M55.11 185.7c-6.85,-6.09 -7.61,-12.94 -10.65,-13.7 -1.53,-0.76 -1.53,8.37 0.76,11.41 3.04,4.57 6.85,8.38 12.17,10.66 6.09,3.04 9.9,4.56 12.94,4.56 2.29,0 7.61,-1.52 2.29,-3.8 -7.62,-3.04 -13.7,-6.85 -17.51,-9.13z"/>
    <path fill="#DBC5A4" d="M55.11 185.7c-6.85,-6.09 -8.37,-12.94 -10.65,-13.7 -1.53,-0.76 -1.53,7.61 0.76,11.41 3.04,4.57 6.85,7.61 12.17,10.66 6.09,3.04 9.9,4.56 12.94,4.56 2.29,0 7.61,-0.76 2.29,-3.04 -7.62,-3.8 -13.7,-7.61 -17.51,-9.89z"/>
    <path fill="#DECCAD" d="M55.11 185.7c-6.09,-5.33 -7.61,-12.18 -9.89,-12.94 -1.52,-0.76 -1.52,7.61 0.76,10.65 3.04,4.57 6.85,7.61 12.18,10.66 6.08,3.04 9.13,4.56 12.17,4.56 2.29,0 6.85,-0.76 2.29,-3.04 -7.62,-3.8 -14.46,-7.61 -17.51,-9.89z"/>
    <path fill="#E2D2B7" d="M55.11 185.7c-6.09,-5.33 -7.61,-12.18 -9.89,-12.94 -1.52,-0.76 -1.52,6.85 0.76,10.65 3.04,4.57 6.09,7.61 12.18,10.66 6.08,3.04 9.13,4.56 12.17,4.56 2.29,0 6.85,-0.76 2.29,-3.04 -7.62,-3.8 -14.46,-6.85 -17.51,-9.89z"/>
    <path fill="#E4D5BE" d="M55.11 185.7c-6.09,-5.33 -7.61,-11.42 -9.89,-12.18 -1.52,-0.76 -1.52,6.85 0.76,9.89 3.04,4.57 6.09,7.61 12.18,10.66 6.08,3.04 9.13,3.8 12.17,4.56 2.29,0 6.09,-0.76 2.29,-3.04 -7.62,-3.8 -14.46,-6.85 -17.51,-9.89z"/>
    <path fill="#E7DAC6" d="M55.11 186.46c-6.09,-5.33 -7.61,-12.18 -9.89,-12.94 -1.52,-0.76 -1.52,6.09 0.76,9.89 3.04,4.57 6.09,7.61 11.41,9.9 6.09,3.04 8.38,3.8 11.42,4.56 2.28,0 6.09,-0.76 1.52,-3.04 -5.33,-3.04 -12.17,-6.09 -15.22,-8.37z"/>
    <path fill="#E7DECD" d="M55.11 186.46c-6.09,-5.33 -7.61,-11.42 -9.89,-12.18 -1.52,-0.76 -1.52,6.09 1.52,9.13 3.04,4.57 6.09,7.61 11.42,9.9 6.08,3.04 8.37,3.8 11.41,4.56 2.28,0 6.09,-0.76 1.52,-2.28 -6.09,-3.04 -12.93,-6.85 -15.98,-9.13z"/>
    <path fill="#ECE2D3" d="M55.11 186.46c-6.09,-4.57 -8.37,-11.42 -9.89,-12.18 -1.52,-0.76 -0.76,5.33 1.52,9.13 3.04,4.57 6.09,6.85 11.42,9.9 6.08,3.04 7.61,3.8 11.41,3.8 1.52,0 5.33,-0.76 1.52,-2.28 -6.09,-2.28 -12.93,-6.09 -15.98,-8.37z"/>
    <path fill="#EFE6DA" d="M55.11 186.46c-5.33,-4.57 -8.37,-11.42 -9.89,-11.42 -1.52,0 -0.76,5.33 1.52,8.37 3.04,4.57 6.09,6.85 11.42,9.9 6.08,3.04 7.61,3.8 10.65,3.8 1.52,0 5.33,-0.76 1.52,-2.28 -5.33,-2.28 -12.17,-6.09 -15.22,-8.37z"/>
    <path fill="#EFE9DE" d="M55.11 186.46c-5.33,-4.57 -8.37,-10.66 -9.89,-11.42 -1.52,0 -0.76,4.57 1.52,8.37 3.04,4.57 6.09,6.85 11.42,9.9 6.08,3.04 7.61,3.8 10.65,3.8 1.52,0 4.57,-0.76 1.52,-2.28 -5.33,-2.28 -12.17,-6.09 -15.22,-8.37z"/>
    <path fill="#F2ECE2" d="M55.11 187.22c-5.33,-4.57 -8.37,-10.66 -9.13,-11.42 -0.76,0 -0.76,4.57 1.52,7.61 3.04,4.57 6.09,6.85 11.42,9.9 6.08,3.04 6.85,3.04 9.89,3.8 1.52,0 4.57,-0.76 1.52,-2.28 -6.09,-2.28 -12.17,-5.33 -15.22,-7.61z"/>
    <path fill="#F3EDE6" d="M55.11 187.22c-5.33,-3.81 -8.37,-10.66 -9.13,-10.66 -0.76,0 -0.76,3.81 1.52,7.61 3.04,3.81 6.09,6.85 11.42,9.14 6.08,3.04 6.85,3.04 9.89,3.8 1.52,0 3.81,-0.76 1.52,-1.52 -6.09,-3.04 -12.17,-6.09 -15.22,-8.37z"/>
    <path fill="#F5F1EB" d="M55.11 187.22c-5.33,-3.81 -8.37,-10.66 -9.13,-10.66 -0.76,0 -0.76,3.81 1.52,6.85 3.04,3.81 6.09,6.85 11.42,9.14 6.08,3.04 6.85,3.8 9.89,3.8 1.52,0 3.81,-0.76 1.52,-1.52 -6.09,-2.28 -12.17,-5.33 -15.22,-7.61z"/>
    <path fill="#F6F2ED" d="M55.11 187.22c-4.57,-3.81 -8.37,-9.89 -9.13,-10.66 -0.76,0 -0.76,3.81 1.52,6.85 3.04,3.81 6.09,6.09 11.42,9.14 6.08,3.04 6.08,3.04 9.13,3.8 1.52,0 3.8,-0.76 1.52,-1.52 -5.33,-2.28 -11.41,-5.33 -14.46,-7.61z"/>
    <path fill="#F7F5F0" d="M55.11 187.22c-4.57,-3.81 -8.37,-9.89 -9.13,-9.89 -0.76,0 0,3.04 2.28,6.08 3.05,3.81 6.09,6.09 11.42,9.14 5.32,3.04 6.09,3.04 8.37,3.8 1.52,0 3.04,-0.76 1.52,-1.52 -5.33,-2.28 -11.41,-5.33 -14.46,-7.61z"/>
    <path fill="#F9F7F3" d="M55.11 187.98c-4.57,-3.04 -8.37,-9.89 -9.13,-9.89 -0.76,0 0,3.04 2.28,6.08 3.05,3.81 6.09,6.09 11.42,9.14 5.32,2.28 5.32,2.28 8.37,3.04 1.52,0 3.04,0 0.76,-0.76 -4.57,-2.28 -10.65,-6.09 -13.7,-7.61z"/>
    <path fill="#FCFBF8" d="M55.11 187.98c-4.57,-3.04 -8.37,-9.13 -9.13,-9.89 -0.76,0 0,2.28 2.28,5.32 3.05,3.81 6.09,6.09 11.42,8.38 5.32,3.04 5.32,3.04 8.37,3.8 1.52,0 2.28,0 0.76,-0.76 -4.57,-1.52 -10.65,-5.33 -13.7,-6.85z"/>
    <path fill="#FCFCFA" d="M55.11 187.98c-3.8,-3.04 -8.37,-9.13 -8.37,-9.13 -0.76,0 0,2.28 2.28,5.32 3.05,3.81 6.09,6.09 10.66,8.38 5.32,3.04 5.32,3.04 8.37,3.8 1.52,0.76 2.28,0 0.76,-0.76 -4.57,-2.28 -10.65,-5.33 -13.7,-7.61z"/>
    <path fill="#FEFEFD" d="M68.05 195.59c1.52,0.76 2.28,0 0.76,-0.76 -4.57,-1.52 -10.65,-4.57 -13.7,-6.85 -3.8,-3.04 -8.37,-9.13 -8.37,-9.13 -0.76,0 0,1.52 2.28,4.56 3.05,3.81 6.09,6.09 10.66,8.38 6.09,3.04 5.32,3.04 8.37,3.8z"/>
   </g>
   <g>
    <path fill="#CEAD79" d="M116.76 252.67c0.76,-3.04 7.61,3.04 2.28,13.7 -5.33,13.7 -25.88,21.31 -31.96,25.11 -6.09,3.81 -14.46,9.14 -15.99,8.37 -0.76,0 -2.28,-2.28 3.05,-6.84 6.85,-6.09 16.74,-9.9 25.11,-15.99 9.13,-6.09 15.22,-13.7 17.51,-24.35z"/>
    <path fill="#D2B586" d="M87.08 290.72c-6.09,3.81 -14.46,8.37 -15.99,8.37 -0.76,0 -2.28,-2.28 3.05,-6.85 6.85,-6.08 16.74,-9.89 24.35,-15.22 9.13,-6.09 15.22,-13.7 17.51,-24.35 0.76,-3.04 6.84,2.28 2.28,13.7 -5.33,12.94 -25.12,20.55 -31.2,24.35z"/>
    <path fill="#D4BB92" d="M87.08 290.72c-6.09,3.81 -14.46,8.37 -15.23,8.37 -0.76,0 -2.28,-2.28 2.29,-6.08 6.85,-5.33 16.74,-9.9 24.35,-15.23 9.13,-6.08 15.22,-13.69 17.51,-23.59 0.76,-3.04 6.84,2.28 2.28,12.94 -5.33,12.18 -25.12,19.79 -31.2,23.59z"/>
    <path fill="#D8C09B" d="M87.84 290.72c-6.09,3.81 -13.7,8.37 -15.22,8.37 -0.77,0 -2.29,-2.28 2.28,-6.08 6.85,-5.33 16.74,-9.9 24.35,-15.23 9.13,-6.08 14.46,-12.93 17.51,-23.59 0.76,-3.04 6.85,2.28 1.52,12.94 -5.33,12.18 -25.12,19.79 -30.44,23.59z"/>
    <path fill="#DBC5A4" d="M87.84 289.96c-6.09,3.81 -13.7,8.37 -15.22,8.37 -0.77,0 -2.29,-2.28 2.28,-6.09 6.85,-5.32 16.74,-9.89 24.35,-15.22 9.13,-6.09 14.46,-12.93 17.51,-22.83 0.76,-3.04 6.08,2.28 1.52,12.18 -5.33,12.18 -25.12,20.55 -30.44,23.59z"/>
    <path fill="#DECCAD" d="M87.84 289.96c-6.09,3.81 -13.7,8.37 -14.46,7.61 -0.76,0 -2.29,-1.52 2.28,-5.33 6.85,-5.32 15.98,-9.89 24.35,-15.22 9.14,-6.09 14.46,-12.93 17.51,-22.83 0.76,-3.04 6.09,2.28 1.52,11.42 -6.85,12.94 -25.88,21.31 -31.2,24.35z"/>
    <path fill="#E2D2B7" d="M87.84 289.96c-6.09,3.81 -13.7,7.61 -14.46,7.61 -0.76,0 -2.29,-1.52 2.28,-5.33 6.85,-5.32 15.98,-9.89 23.59,-15.22 9.13,-6.09 14.46,-12.93 16.75,-22.07 0.76,-3.04 6.08,2.29 1.52,11.42 -5.33,11.41 -24.36,19.79 -29.68,23.59z"/>
    <path fill="#E4D5BE" d="M87.84 289.96c-6.09,3.81 -12.94,7.61 -14.46,7.61 -0.76,0 -2.29,-1.52 2.28,-5.33 6.85,-5.32 15.98,-9.89 23.59,-14.46 9.13,-6.08 14.46,-12.93 16.75,-21.31 0.76,-3.04 5.32,1.53 1.52,10.66 -5.33,10.65 -24.36,19.03 -29.68,22.83z"/>
    <path fill="#E7DAC6" d="M87.84 289.2c-6.09,3.81 -12.94,7.61 -13.7,7.61 -0.76,0 -2.29,-1.52 2.28,-4.57 6.85,-5.32 15.98,-9.13 23.59,-14.46 8.37,-6.08 13.7,-12.93 16.75,-21.31 0.76,-3.04 5.32,1.53 0.76,10.66 -5.33,10.65 -24.36,19.03 -29.68,22.07z"/>
    <path fill="#E7DECD" d="M87.84 289.2c-6.09,3.81 -12.94,7.61 -13.7,7.61 -0.76,0 -2.29,-1.52 2.28,-4.57 6.09,-4.56 15.98,-9.13 23.59,-14.46 8.37,-6.08 13.7,-12.17 16.75,-20.54 0.76,-3.05 5.32,1.52 0.76,9.89 -6.09,9.89 -24.36,19.03 -29.68,22.07z"/>
    <path fill="#ECE2D3" d="M87.84 289.2c-6.09,3.81 -12.18,7.61 -13.7,7.61 -0.76,0 -2.29,-1.52 2.28,-4.57 6.09,-4.56 15.22,-9.13 22.83,-14.46 8.37,-6.08 13.7,-12.17 16.75,-19.78 0.76,-3.05 4.56,1.52 0.76,9.13 -5.33,9.89 -23.6,19.03 -28.92,22.07z"/>
    <path fill="#EFE6DA" d="M87.84 289.2c-6.09,3.81 -12.18,6.85 -12.94,7.61 -0.76,0 -2.28,-0.76 2.28,-3.8 6.09,-4.57 15.22,-9.14 22.83,-14.46 8.37,-6.09 13.7,-12.18 15.99,-19.79 0.76,-3.05 4.56,1.52 0.76,9.13 -5.33,8.37 -23.6,17.5 -28.92,21.31z"/>
    <path fill="#EFE9DE" d="M87.84 288.44c-6.09,3.8 -12.18,6.85 -12.94,6.85 -0.76,0 -2.28,-0.76 2.28,-3.81 6.09,-4.56 15.22,-9.13 22.83,-14.46 8.37,-5.32 13.7,-12.17 15.99,-19.02 0.76,-3.05 3.8,1.52 0,8.37 -4.57,9.89 -22.84,19.02 -28.16,22.07z"/>
    <path fill="#F2ECE2" d="M87.84 288.44c-6.09,3.8 -11.42,6.85 -12.18,6.85 -0.76,0 -2.28,-0.76 1.52,-3.81 6.09,-4.56 15.22,-9.13 22.83,-13.7 8.37,-5.32 12.94,-12.17 15.99,-19.02 0.76,-3.05 3.8,0.76 0,8.37 -5.33,9.13 -22.84,18.26 -28.16,21.31z"/>
    <path fill="#F3EDE6" d="M87.84 288.44c-6.09,3.8 -11.42,6.85 -12.18,6.85 -0.76,0 -2.28,-0.76 1.52,-3.05 6.09,-4.56 14.46,-9.13 22.07,-13.69 8.37,-5.33 12.94,-11.42 15.98,-18.27 0.77,-2.28 3.81,0.76 0,7.61 -4.56,7.61 -22.07,17.5 -27.39,20.55z"/>
    <path fill="#F5F1EB" d="M88.6 288.44c-6.09,3.8 -11.42,6.85 -12.18,6.85 -0.76,0 -1.52,-0.76 1.52,-3.05 6.09,-4.56 14.46,-9.13 22.07,-13.69 8.37,-5.33 12.94,-11.42 15.99,-17.51 1.52,-2.28 3.04,0.76 0,6.85 -5.33,7.61 -22.08,16.74 -27.4,20.55z"/>
    <path fill="#F6F2ED" d="M88.6 287.68c-6.09,3.8 -11.42,6.85 -12.18,6.85 -0.76,0 -1.52,-0.76 1.52,-3.05 6.09,-4.56 14.46,-9.13 22.07,-13.7 8.37,-5.32 12.94,-11.41 15.22,-17.5 1.53,-2.28 3.05,0.76 -0.76,6.85 -3.8,8.37 -20.55,17.5 -25.87,20.55z"/>
    <path fill="#F7F5F0" d="M88.6 287.68c-6.85,3.8 -11.42,6.09 -11.42,6.85 -0.76,0 -1.52,0 1.52,-2.29 5.33,-3.8 14.46,-8.37 22.07,-13.69 8.38,-5.33 12.94,-11.42 15.23,-16.75 1.52,-2.28 3.04,0.76 -0.77,6.09 -5.32,6.85 -21.31,16.74 -26.63,19.79z"/>
    <path fill="#F9F7F3" d="M88.6 287.68c-6.85,3.8 -10.66,6.09 -11.42,6.09 -0.76,0 -1.52,0 1.52,-2.29 5.33,-3.8 14.46,-8.37 21.31,-13.7 8.37,-5.32 12.94,-11.41 15.22,-15.98 1.53,-2.28 2.29,0.76 -0.76,6.09 -4.56,6.85 -20.55,16.74 -25.87,19.79z"/>
    <path fill="#FCFBF8" d="M88.6 286.92c-6.85,3.8 -10.66,6.09 -11.42,6.09 -1.52,0 -1.52,0 1.52,-2.29 5.33,-3.8 13.7,-8.37 21.31,-12.94 8.37,-5.32 12.18,-11.41 15.22,-15.98 1.53,-2.28 2.29,0 -0.76,5.33 -4.56,6.85 -20.55,17.5 -25.87,19.79z"/>
    <path fill="#FCFCFA" d="M88.6 286.92c-6.85,3.8 -10.66,6.09 -10.66,6.09 -1.52,0 -1.52,0 1.52,-1.53 5.33,-3.8 13.7,-8.37 21.31,-12.93 8.38,-5.33 12.18,-10.66 15.23,-15.23 1.52,-2.28 1.52,0 -1.53,4.57 -4.56,6.09 -20.55,15.98 -25.87,19.03z"/>
    <path fill="#FEFEFD" d="M115.23 263.32c1.53,-2.28 1.53,0 -1.52,4.57 -3.8,6.09 -19.79,15.98 -25.11,19.03 -6.85,3.8 -10.66,6.09 -10.66,6.09 -1.52,0 -1.52,0 1.52,-1.53 5.33,-3.8 13.7,-8.37 21.31,-12.93 7.61,-5.33 11.42,-11.42 14.46,-15.23z"/>
   </g>
   <g>
    <path fill="#CEAD79" d="M33.8 63.17c-1.52,-2.29 14.46,-2.29 20.55,3.8 9.13,9.9 1.52,22.07 -0.76,28.92 -3.05,9.9 3.04,12.18 3.8,14.46 0,0.76 -6.08,0.76 -8.37,-3.8 -4.56,-9.9 1.52,-19.03 2.29,-25.88 0,-14.46 -11.42,-12.94 -17.51,-17.5z"/>
    <path fill="#D2B586" d="M53.59 95.13c-3.05,9.9 3.04,12.18 3.04,14.46 0,0.76 -6.09,0.76 -8.37,-3.8 -4.56,-9.14 1.52,-19.03 2.28,-25.88 0.77,-13.7 -10.65,-12.18 -15.98,-17.5 -1.52,-1.53 13.7,-1.53 19.79,4.56 9.13,9.9 1.52,21.31 -0.76,28.16z"/>
    <path fill="#D4BB92" d="M53.59 94.37c-3.81,9.89 2.28,12.18 3.04,15.22 0,0.76 -5.32,0.76 -7.61,-3.8 -4.56,-9.14 2.29,-19.03 2.29,-25.88 0.76,-13.7 -10.66,-12.18 -15.99,-16.74 -1.52,-1.52 12.94,-1.52 19.03,3.8 8.37,9.9 1.52,21.31 -0.76,27.4z"/>
    <path fill="#D8C09B" d="M53.59 94.37c-3.81,9.89 2.28,12.94 3.04,15.22 0,0.76 -5.32,0.76 -7.61,-3.8 -4.56,-9.14 2.29,-18.27 2.29,-25.88 0.76,-13.7 -9.9,-12.18 -15.23,-16.74 -1.52,-1.52 12.94,-1.52 18.27,3.8 8.37,9.14 1.52,20.55 -0.76,27.4z"/>
    <path fill="#DBC5A4" d="M53.59 93.61c-3.81,10.65 1.52,12.94 2.28,15.22 0,0.76 -5.33,0.76 -7.61,-3.8 -4.56,-9.14 2.28,-18.27 2.28,-25.12 1.53,-12.94 -9.13,-12.18 -13.69,-16.74 -1.53,-1.52 12.17,-1.52 17.5,4.56 7.61,8.38 1.52,19.79 -0.76,25.88z"/>
    <path fill="#DECCAD" d="M53.59 93.61c-3.81,10.65 1.52,12.94 2.28,15.98 0,0.76 -5.33,0.76 -6.85,-3.8 -3.8,-9.14 2.29,-18.27 3.05,-25.12 0.76,-13.7 -10.66,-12.94 -14.46,-17.5 -1.53,-0.76 11.41,-0.76 16.74,4.56 7.61,8.38 1.52,19.03 -0.76,25.88z"/>
    <path fill="#E2D2B7" d="M53.59 92.85c-3.81,10.65 1.52,13.7 2.28,15.98 0,0.76 -4.56,0.76 -6.85,-3.8 -3.8,-9.14 2.29,-18.27 3.05,-25.12 0.76,-12.94 -9.9,-12.18 -14.46,-15.98 -0.76,-1.52 11.41,-1.52 15.98,3.8 7.61,8.38 2.28,19.03 0,25.12z"/>
    <path fill="#E4D5BE" d="M53.59 92.09c-3.81,10.65 0.76,13.7 1.52,16.74 0,0.76 -4.57,0 -6.85,-3.8 -3.8,-8.38 2.28,-18.27 3.05,-25.12 1.52,-12.18 -9.14,-12.18 -12.94,-15.98 -0.76,-1.52 10.65,-1.52 15.22,3.8 7.61,8.38 2.28,19.03 0,24.36z"/>
    <path fill="#E7DAC6" d="M53.59 92.09c-3.81,10.65 0.76,13.7 1.52,16.74 0,0.76 -4.57,0 -6.09,-3.8 -3.8,-8.38 2.29,-18.27 3.05,-25.12 0.76,-12.18 -9.14,-12.18 -12.94,-15.98 -1.52,-1.52 10.65,-0.76 14.46,3.8 7.61,7.61 2.28,18.27 0,24.36z"/>
    <path fill="#E7DECD" d="M53.59 91.33c-4.57,11.41 0,14.46 1.52,16.74 0,0.76 -4.57,0 -6.09,-3.81 -3.8,-8.37 3.05,-18.26 3.05,-25.11 0.76,-11.42 -9.14,-11.42 -12.18,-15.22 -1.52,-0.76 9.89,-0.76 13.7,3.8 6.85,7.61 2.28,18.27 0,23.6z"/>
    <path fill="#ECE2D3" d="M53.59 91.33c-4.57,11.41 0,14.46 1.52,17.5 0,0.76 -3.8,0 -6.09,-3.8 -3.8,-8.38 3.05,-18.27 3.05,-25.12 0.76,-12.18 -9.14,-12.94 -12.18,-15.98 -0.76,-0.76 9.89,0 13.7,3.8 6.85,7.61 2.28,17.51 0,23.6z"/>
    <path fill="#EFE6DA" d="M53.59 90.57c-4.57,11.41 0,14.46 0.76,17.5 0,0.76 -3.81,0 -5.33,-3.81 -3.8,-8.37 3.05,-17.5 3.05,-24.35 0.76,-12.18 -9.14,-12.94 -11.42,-15.22 -0.76,-0.76 9.13,0 12.18,3.8 6.85,6.85 3.04,16.75 0.76,22.08z"/>
    <path fill="#EFE9DE" d="M53.59 89.8c-4.57,11.42 -0.76,15.23 0.76,18.27 0,0.76 -3.81,0 -5.33,-3.81 -3.04,-8.37 3.05,-17.5 3.81,-24.35 0.76,-11.42 -8.37,-12.94 -10.66,-15.22 -0.76,-0.76 8.37,0 11.42,3.8 6.09,6.85 2.28,15.99 0,21.31z"/>
    <path fill="#F2ECE2" d="M53.59 89.8c-4.57,11.42 -0.76,15.23 0.76,18.27 0,0.76 -3.81,0 -5.33,-3.81 -3.04,-8.37 3.81,-17.5 3.81,-24.35 0.76,-11.42 -8.37,-12.94 -10.66,-15.22 -0.76,-0.76 7.61,0 11.42,3.8 5.33,6.09 2.28,15.99 0,21.31z"/>
    <path fill="#F3EDE6" d="M53.59 89.04c-4.57,11.42 -0.76,15.22 0,18.27 0,0.76 -3.05,0 -4.57,-3.81 -3.04,-7.61 3.05,-17.5 3.81,-24.35 0.76,-11.42 -8.37,-12.94 -9.9,-15.22 -0.76,-0.76 6.85,0 10.66,3.8 5.33,6.85 2.28,15.99 0,21.31z"/>
    <path fill="#F5F1EB" d="M54.35 89.04c-5.33,12.18 -1.52,15.99 0,19.03 0,0.76 -3.04,-0.76 -4.57,-3.81 -3.04,-7.61 3.05,-17.5 3.81,-24.35 0.76,-11.42 -8.37,-12.94 -9.89,-15.22 -0.77,-0.76 6.84,0 9.89,3.8 4.57,6.09 3.04,15.23 0.76,20.55z"/>
    <path fill="#F6F2ED" d="M54.35 88.28c-5.33,12.18 -1.52,15.98 0,19.03 0,0.76 -3.04,-0.76 -4.57,-3.81 -3.04,-7.61 3.81,-17.5 3.81,-24.35 0.76,-9.89 -8.37,-12.18 -9.13,-13.7 -0.76,-0.76 6.08,0 9.13,3.81 4.57,5.32 3.04,13.69 0.76,19.02z"/>
    <path fill="#F7F5F0" d="M54.35 88.28c-5.33,12.18 -2.28,15.98 -0.76,19.79 0,0.76 -3.05,-0.76 -3.81,-3.81 -3.04,-7.61 3.81,-17.5 3.81,-23.59 0.76,-11.41 -7.61,-13.7 -8.37,-15.22 0,-0.76 5.32,0 8.37,3.81 3.8,5.32 3.04,13.69 0.76,19.02z"/>
    <path fill="#F9F7F3" d="M54.35 87.52c-5.33,12.18 -2.28,16.74 -0.76,19.79 0.76,0.76 -2.28,-0.76 -3.81,-3.81 -3.04,-7.61 3.81,-17.5 3.81,-23.59 0.76,-10.65 -7.61,-12.94 -8.37,-14.46 0,-0.76 5.32,0.76 7.61,3.04 4.56,5.33 3.8,13.7 1.52,19.03z"/>
    <path fill="#FCFBF8" d="M54.35 86.76c-5.33,12.18 -2.28,16.74 -0.76,19.79 0.76,0.76 -2.28,-0.76 -3.81,-3.81 -2.28,-7.61 3.81,-16.74 4.57,-23.59 0.76,-9.89 -7.61,-12.94 -7.61,-14.46 0,-0.76 4.57,0.76 6.85,3.04 3.8,6.09 3.04,14.46 0.76,19.03z"/>
    <path fill="#FCFCFA" d="M54.35 86.76c-5.33,12.94 -3.04,17.5 -1.52,20.55 0.76,0.76 -2.29,-0.76 -3.05,-3.81 -2.28,-7.61 3.81,-16.74 4.57,-23.59 0.76,-9.89 -7.61,-12.94 -7.61,-13.7 0,-0.76 3.8,0.76 6.09,3.05 3.8,4.56 3.8,12.17 1.52,17.5z"/>
    <path fill="#FEFEFD" d="M47.5 66.21c0,0 3.81,0.76 5.33,3.05 3.04,4.56 3.8,12.17 1.52,16.74 -6.09,12.94 -3.04,17.5 -1.52,20.55 0.76,0.76 -2.29,-0.76 -3.05,-3.81 -2.28,-6.85 3.81,-16.74 4.57,-23.59 0.76,-9.13 -6.85,-12.94 -6.85,-12.94z"/>
   </g>
   <g>
    <path fill="#CEAD79" d="M126.65 88.28c-0.76,2.29 -6.85,-7.61 -3.04,-16.74 4.56,-11.42 19.78,-9.89 26.63,-10.66 7.61,0 10.66,0 13.7,0 0.76,0 2.28,0.77 0,3.05 -4.56,3.8 -20.55,1.52 -26.64,3.8 -12.17,5.33 -8.37,14.46 -10.65,20.55z"/>
    <path fill="#D2B586" d="M150.24 61.65c7.61,0 11.42,0 13.7,0 0.76,0 2.28,0.76 0,3.04 -4.56,3.8 -20.55,1.52 -27.4,3.8 -11.41,4.57 -8.37,13.7 -10.65,19.03 -0.76,2.28 -6.09,-6.85 -3.05,-15.98 5.33,-10.66 19.79,-9.89 27.4,-9.89z"/>
    <path fill="#D4BB92" d="M149.48 61.65c7.61,0 11.42,0 13.7,0 0.76,0 2.28,0.76 0,3.04 -4.57,3.8 -19.79,1.52 -26.64,3.8 -11.41,4.57 -8.37,12.94 -10.65,19.03 -0.76,2.28 -6.09,-6.85 -2.28,-15.22 4.56,-11.42 19.02,-10.65 25.87,-10.65z"/>
    <path fill="#D8C09B" d="M148.72 61.65c8.37,0 11.42,0 13.7,0 0.76,0 2.28,0.76 0,2.28 -4.57,3.04 -19.79,1.52 -25.88,3.8 -11.41,3.81 -8.37,12.94 -10.65,18.27 -0.76,2.28 -6.09,-6.85 -2.28,-15.22 4.56,-9.9 19.02,-9.13 25.11,-9.13z"/>
    <path fill="#DBC5A4" d="M148.72 61.65c8.37,0 11.42,0 14.46,0 0.76,0 2.28,0.76 0,2.28 -4.57,3.04 -19.03,1.52 -25.88,3.8 -10.65,3.81 -8.37,12.18 -10.65,18.27 -0.76,2.28 -5.33,-6.09 -2.28,-14.46 3.8,-9.89 17.5,-9.13 24.35,-9.89z"/>
    <path fill="#DECCAD" d="M147.96 61.65c8.37,0 12.18,0 14.46,0 0.76,0 2.28,0.76 0,2.28 -4.57,3.04 -19.03,1.52 -25.88,3.8 -10.65,3.81 -8.37,12.18 -10.65,17.51 -0.76,2.28 -5.33,-6.09 -2.28,-13.7 4.56,-9.89 18.26,-9.13 24.35,-9.89z"/>
    <path fill="#E2D2B7" d="M147.96 62.41c8.37,0 12.18,0 14.46,0 0.76,0 2.28,0.76 0,2.28 -4.57,3.04 -19.03,1.52 -25.12,3.8 -10.65,3.81 -8.37,11.42 -10.65,17.51 -0.76,2.28 -5.33,-6.09 -2.28,-13.7 3.8,-10.65 16.74,-9.89 23.59,-9.89z"/>
    <path fill="#E4D5BE" d="M147.2 62.41c8.37,0 12.18,0 14.46,0 0.76,0 2.28,0.76 0,2.28 -4.57,2.28 -19.03,0.76 -25.12,3.04 -9.89,3.81 -8.37,11.42 -10.65,16.75 -0.76,2.28 -5.33,-6.09 -1.52,-12.94 3.8,-9.13 16.74,-9.13 22.83,-9.13z"/>
    <path fill="#E7DAC6" d="M147.2 62.41c9.13,0 12.18,0 14.46,0 0.76,0 2.28,0.76 0,2.28 -4.57,2.28 -19.03,0.76 -25.12,3.04 -9.89,3.81 -8.37,10.66 -10.65,16.75 -0.76,2.28 -4.57,-5.33 -1.52,-12.94 3.8,-9.13 15.98,-9.13 22.83,-9.13z"/>
    <path fill="#E7DECD" d="M146.44 62.41c9.13,0 12.17,0 14.46,0 0.76,0 2.28,0.76 0,2.28 -4.57,2.28 -18.27,0.76 -24.36,3.04 -9.89,3.81 -9.13,10.66 -10.65,15.99 -0.76,2.28 -4.57,-5.33 -1.52,-12.18 3.8,-9.13 15.98,-9.13 22.07,-9.13z"/>
    <path fill="#ECE2D3" d="M145.68 62.41c9.13,0 12.93,0 15.22,0 0.76,0 2.28,0.76 0,1.52 -4.57,3.04 -18.27,1.52 -24.36,3.8 -9.13,3.05 -9.13,9.9 -10.65,15.99 -0.76,2.28 -4.57,-5.33 -1.52,-11.42 3.8,-9.13 15.22,-9.89 21.31,-9.89z"/>
    <path fill="#EFE6DA" d="M145.68 62.41c9.13,-0.76 12.93,0 15.22,0 0.76,0 2.28,0.76 0,1.52 -4.57,2.28 -17.51,0.76 -24.36,3.04 -9.13,3.05 -9.13,9.9 -10.65,15.22 -0.76,2.29 -3.81,-5.32 -1.52,-11.41 3.8,-7.61 15.22,-8.37 21.31,-8.37z"/>
    <path fill="#EFE9DE" d="M144.92 62.41c9.89,-0.76 12.93,0 15.22,0 0.76,0 2.28,0.76 0,1.52 -4.57,2.28 -17.51,0.76 -23.6,3.04 -9.13,3.05 -9.13,9.9 -10.65,15.22 -0.76,2.29 -3.81,-4.56 -0.76,-10.65 3.04,-8.37 13.7,-8.37 19.79,-9.13z"/>
    <path fill="#F2ECE2" d="M144.92 62.41c9.89,-0.76 12.93,0 15.22,0 0.76,0 2.28,0.76 -0.76,1.52 -4.57,1.52 -17.51,0.76 -23.6,3.04 -9.13,3.05 -9.13,9.14 -10.65,14.46 -0.76,2.29 -3.81,-4.56 -0.76,-9.89 3.8,-7.61 14.46,-8.37 20.55,-9.13z"/>
    <path fill="#F3EDE6" d="M144.15 62.41c9.9,-0.76 13.7,0 15.23,0 0.76,0 2.28,0.76 -0.77,1.52 -4.56,1.52 -16.74,0.76 -23.59,3.04 -8.37,3.05 -9.13,9.14 -10.65,14.46 -0.76,2.29 -3.05,-4.56 -0.76,-9.89 4.56,-7.61 14.46,-8.37 20.54,-9.13z"/>
    <path fill="#F5F1EB" d="M144.15 63.17c9.9,-0.76 13.7,0 15.23,0 0.76,0 2.28,0.76 -0.77,1.52 -4.56,1.52 -16.74,0 -22.83,2.28 -8.37,3.05 -9.13,8.37 -10.65,13.7 -0.76,2.28 -3.05,-3.8 -0.76,-9.13 3.8,-7.61 13.7,-8.37 19.78,-8.37z"/>
    <path fill="#F6F2ED" d="M143.39 63.17c10.66,-0.76 13.7,0 15.99,0 0.76,0 2.28,0.76 -0.77,1.52 -4.56,1.52 -16.74,0 -22.83,2.28 -8.37,3.05 -9.13,8.37 -10.65,13.7 -0.76,2.28 -3.05,-3.8 -0.76,-8.37 3.8,-7.61 12.93,-9.13 19.02,-9.13z"/>
    <path fill="#F7F5F0" d="M142.63 63.17c10.66,-0.76 13.7,0 15.98,0 0.77,0 2.29,0.76 -0.76,0.76 -4.56,1.52 -16.74,0 -22.83,2.28 -7.61,3.05 -9.13,7.61 -10.65,12.94 -0.76,2.28 -3.05,-3.81 0,-8.37 3.8,-6.09 12.93,-7.61 18.26,-7.61z"/>
    <path fill="#F9F7F3" d="M142.63 63.17c10.66,-0.76 13.7,0 15.98,0 0.77,0 2.29,0.76 -0.76,0.76 -4.56,0.76 -15.98,0 -22.07,2.28 -7.61,2.28 -9.13,7.61 -10.65,12.94 -0.76,2.28 -2.29,-3.81 0,-7.61 3.04,-6.85 11.41,-8.37 17.5,-8.37z"/>
    <path fill="#FCFBF8" d="M141.87 63.17c10.66,-0.76 14.46,0 15.98,0 0.76,0 2.29,0.76 -0.76,0.76 -4.56,0.76 -15.98,0 -22.07,2.28 -7.61,2.28 -9.13,6.85 -10.65,12.18 -0.76,2.28 -2.29,-3.05 0,-7.61 3.8,-5.33 12.17,-7.61 17.5,-7.61z"/>
    <path fill="#FCFCFA" d="M141.87 63.17c10.66,-0.76 14.46,0 15.98,0 0.76,0 1.53,0.76 -0.76,0.76 -4.56,0.76 -15.98,0 -22.07,2.28 -6.85,2.28 -9.89,6.85 -10.65,12.18 -0.76,2.28 -2.29,-3.05 0,-6.85 3.8,-6.09 12.17,-7.61 17.5,-8.37z"/>
    <path fill="#FEFEFD" d="M125.13 77.63c0,2.28 -1.52,-3.05 0,-6.09 3.8,-6.09 10.65,-7.61 15.98,-8.37 11.42,-0.76 14.46,0 16.74,0 0.76,0 1.53,0.76 -0.76,0.76 -4.56,0.76 -15.22,0 -22.07,2.28 -6.85,2.28 -9.13,6.09 -9.89,11.42z"/>
   </g>
   <polygon fill="url(#id2)" points="96.97,140.79 96.21,194.83 84.79,198.63 84.79,140.79 "/>
   <polygon fill="url(#id3)" points="96.21,219.94 96.21,275.5 85.55,281.59 84.79,224.51 "/>
   <polygon fill="url(#id4)" points="96.21,297.57 96.21,347.8 84.79,347.8 84.79,302.9 "/>
   <g>
    <path fill="#D0AE33" d="M88.6 28.92c0,0 0,0 0,0 0,0.76 0,0.76 0,0.76 0.76,0 0.76,0 0,-0.76 0.76,0.76 0.76,0 0,0z"/>
    <path fill="#D0AE33" d="M80.23 21.31c-0.77,0 -0.77,0.76 -1.53,0.76 3.81,1.52 6.85,3.04 9.9,4.57 0,0 0.76,-0.76 0.76,-0.76 -2.28,-1.53 -6.09,-3.05 -9.13,-4.57z"/>
    <path fill="#D0AE33" d="M100.77 21.31c-3.04,-2.28 -6.08,-3.04 -9.89,-3.04 -3.8,0 -6.85,0.76 -9.89,3.04 3.8,1.52 6.85,3.04 9.89,5.33 3.04,-2.29 6.09,-4.57 9.89,-5.33z"/>
    <path fill="#D0AE33" d="M90.88 30.44c0,0 -0.76,0 0,0 0,0.76 0,0.76 0,0.76 0,0 0,0 0,-0.76 0,0.76 0,0 0,0z"/>
    <path fill="#D0AE33" d="M102.3 22.07c0,0 -0.76,-0.76 -0.76,-0.76 -3.81,1.52 -6.85,3.04 -9.9,5.33 0,0 0.76,0 0.76,0.76 3.05,-2.29 6.09,-3.81 9.9,-5.33z"/>
    <path fill="#D0AE33" d="M89.36 31.96c-4.57,5.33 -7.61,11.42 -8.37,19.79 0,0 0.76,0.76 0.76,0.76 0.76,-7.61 3.04,-14.46 7.61,-20.55 0,0.77 0,0 0,0z"/>
    <path fill="#D0AE33" d="M87.84 31.2c0,-0.76 0,-0.76 0,0 -6.09,4.57 -9.14,10.66 -9.9,19.03 0,0 0.76,0.76 0.76,0.76 0.76,-8.37 3.81,-15.22 9.14,-19.79z"/>
    <path fill="#D0AE33" d="M86.31 29.68c-2.28,-2.28 -5.32,-3.8 -9.13,-5.33 -3.04,3.05 -4.56,7.61 -4.56,12.18 0,4.57 1.52,8.37 4.56,12.18 0,-8.37 3.81,-14.46 9.13,-19.03z"/>
    <path fill="#D0AE33" d="M77.94 22.83c0,0 0,0.76 0,0 3.05,2.28 6.09,3.81 9.14,5.33 0,0 0,0 0.76,0 -3.05,-2.28 -6.09,-3.81 -9.9,-5.33z"/>
    <path fill="#D0AE33" d="M90.88 27.4c-0.76,0 -0.76,0.76 0,0 -0.76,0.76 0,0.76 0,0.76 0,0 0,0 0,-0.76 0,0.76 0,0 0,0z"/>
    <path fill="#D0AE33" d="M93.16 31.2c5.33,5.33 8.38,11.42 9.14,19.79 0,0 0.76,-0.76 0.76,-0.76 -0.76,-8.37 -3.81,-15.22 -9.9,-19.03 0.76,-0.76 0.76,-0.76 0,0z"/>
    <path fill="#D0AE33" d="M91.64 32.73c4.57,5.32 7.61,12.17 8.37,19.78 0,0 0.76,0 0.76,-0.76 -0.76,-8.37 -3.8,-14.46 -9.13,-19.02 0.76,-0.77 0,0 0,0z"/>
    <path fill="#D0AE33" d="M127.41 42.62c-2.28,-5.33 -8.37,-3.05 -12.94,-3.81 0,0 0,0 0,0 6.85,-0.76 7.61,-3.8 12.94,-1.52 -3.04,-4.56 -8.37,-1.52 -12.94,-1.52 0,0 0,0 0,0 6.09,-1.52 6.85,-5.33 12.94,-3.81 -3.8,-3.8 -8.37,0 -12.94,0 0,0 0,0 0,0 6.09,-2.28 6.09,-6.08 12.18,-6.08 -3.81,-3.81 -8.37,1.52 -12.94,2.28 0,0 0,0 0,0 5.33,-3.05 4.57,-6.85 10.66,-7.61 -4.57,-3.05 -8.37,2.28 -12.18,4.56 0,0 0,0 0,0 5.33,-4.56 3.81,-7.61 9.13,-9.13 -4.56,-2.28 -7.61,3.81 -11.41,6.09 0,0 0,0 0,0 4.56,-5.33 2.28,-8.37 8.37,-10.65 -5.33,-1.53 -7.61,4.56 -10.66,7.61 0,0 0,0 0,0 3.81,-5.33 0.76,-8.38 6.09,-11.42 -5.33,-0.76 -6.09,6.09 -9.13,9.89 0,0 0,0 0,0 2.28,-6.08 0,-8.37 4.57,-12.17 -5.33,0 -5.33,6.85 -7.61,10.65 0,0 0,0 0,0 1.52,-6.09 -1.53,-8.37 2.28,-12.94 -5.33,0.77 -4.57,7.61 -6.09,11.42 0,0 0,0 0,0 0.76,-6.85 -3.04,-8.37 0,-12.94 -5.33,2.29 -3.04,8.37 -3.81,12.18 0,0 0,0 0,0 -0.76,-6.85 -4.56,-7.61 -1.52,-12.94 -4.56,3.05 -1.52,8.37 -1.52,12.94 0,0 0,0 0,0 -3.8,-7.61 -7.61,-8.37 -6.09,-13.7 -4.56,3.81 0,8.37 0,12.94 0,0 0,0 0,0 -2.28,-6.09 -6.09,-6.09 -6.09,-12.18 -3.04,4.57 1.53,9.13 3.05,12.94 0,0 0,0 0,0 -3.81,-5.33 -7.61,-5.33 -7.61,-10.66 -3.05,4.57 2.28,8.38 4.56,12.18 0,0 0,0 0,0 -5.32,-4.57 -9.13,-3.04 -9.89,-9.13 -2.28,4.56 3.81,7.61 6.09,11.41 0,0 0,0 0,0 -5.33,-3.8 -8.37,-1.52 -10.66,-7.61 -1.52,5.33 5.33,6.85 7.61,10.66 0,0 0,0 0,0 -5.32,-3.05 -8.37,-0.76 -11.41,-6.09 -0.76,5.33 6.09,6.09 9.13,9.13 0,0 0,0 0,0 -6.09,-2.28 -8.37,0.76 -12.18,-3.8 0,5.32 6.85,5.32 10.66,7.61 0,0 0,0 0,0 -6.85,-1.52 -9.13,1.52 -12.94,-2.29 1.52,5.33 7.61,4.57 12.18,6.09 0,0 0,0 0,0 -6.85,-0.76 -9.13,2.29 -13.7,-0.76 2.28,5.33 8.37,3.05 12.94,3.81 0,0 0,0 0,0 -6.85,0.76 -8.37,4.56 -13.7,2.28 3.04,4.57 8.37,1.52 12.94,1.52 0,0 0,0 0,0 -6.09,1.52 -6.85,5.33 -12.18,3.81 3.8,4.56 8.37,0 12.94,0 0,0 0,0 0,0 -6.09,3.04 -6.09,6.85 -12.18,6.09 4.57,3.8 9.13,-1.53 12.94,-2.29 0,0 0,0 0,0 -5.33,3.05 -4.57,6.85 -10.66,7.61 4.57,3.05 8.37,-2.28 12.94,-4.56 0,0 0,0 0,0 -5.33,4.56 -3.8,7.61 -9.13,9.13 4.56,2.28 7.61,-3.04 11.41,-6.09 0,0 0,0 0,0 -4.56,5.33 -2.28,9.13 -8.37,10.66 5.33,1.52 7.61,-4.57 10.66,-7.61 0,0 0,0 0,0 -3.05,6.08 -0.76,9.13 -6.09,11.41 5.33,0.76 6.85,-5.33 9.13,-9.13 0,0 0,0 0,0 -2.28,6.09 0,8.37 -4.56,12.18 5.32,-0.77 5.32,-6.85 7.61,-10.66 0,0 0,0 0,0 -1.53,6.09 1.52,8.37 -2.29,12.94 5.33,-1.52 4.57,-7.61 6.09,-11.42 0,0 0,0 0,0 -0.76,6.85 3.05,8.37 0,12.94 5.33,-2.28 3.05,-8.37 3.81,-12.18 0,0 0,0 0,0 0.76,6.85 4.56,7.61 1.52,12.94 4.56,-3.04 1.52,-8.37 1.52,-12.94 0,0 0,0 0,0 1.52,6.09 5.33,6.85 3.81,12.18 4.56,-3.04 0,-8.37 0,-12.94 0,0 0,0 0,0 2.28,6.09 6.08,6.09 6.08,12.18 3.81,-3.81 -1.52,-8.37 -2.28,-12.94 0,0 0,0 0,0 3.81,5.33 7.61,4.57 7.61,10.66 3.05,-4.57 -2.28,-8.37 -4.56,-12.18 0,0 0,0 0,0 4.56,5.33 7.61,3.81 9.13,9.13 2.28,-5.32 -3.81,-7.61 -6.09,-11.41 0,0 0,0 0,0 5.33,4.56 8.37,2.28 10.65,7.61 1.53,-5.33 -4.56,-6.85 -7.61,-10.66 0,0 0,0 0,0 6.09,3.05 8.38,1.52 11.42,6.09 0.76,-5.33 -6.09,-6.09 -9.89,-9.13 0,0 0,0 0,0 6.08,2.28 9.13,0 12.17,4.56 0,-5.32 -6.85,-5.32 -10.65,-7.61 0,0 0,0 0,0 6.09,1.53 8.37,-1.52 12.94,2.29 -1.53,-5.33 -7.61,-3.81 -12.18,-5.33 0,0 0,0 0,0 9.89,-0.76 11.41,-3.81 15.98,-0.76zm-36.53 14.46c-11.42,0 -20.55,-9.13 -20.55,-20.55 0,-11.42 9.13,-20.55 20.55,-20.55 11.42,0 20.55,9.13 20.55,20.55 -0.76,11.42 -9.89,20.55 -20.55,20.55z"/>
    <path fill="#D0AE33" d="M95.45 29.68c5.32,4.57 9.13,10.66 9.89,19.03 2.28,-3.05 3.81,-6.85 3.81,-11.42 0,-4.56 -1.53,-9.13 -4.57,-12.18 -3.81,0.77 -6.85,2.29 -9.13,4.57z"/>
    <path fill="#D0AE33" d="M83.27 54.03c2.28,0.77 4.57,1.53 6.85,1.53 2.28,0 5.33,-0.76 7.61,-1.53 -0.76,-8.37 -3.04,-14.46 -7.61,-19.78 -3.81,4.56 -6.09,11.41 -6.85,19.78z"/>
    <path fill="#D0AE33" d="M92.4 28.92c0,0 0,0.76 0,0 -0.76,0.76 0,0.76 0,0.76 0,0 0.76,0 0,-0.76 0.76,0 0,0 0,0z"/>
    <path fill="#D0AE33" d="M103.06 22.83c-3.81,1.52 -6.85,3.05 -9.14,5.33 0,0 0,0 0.77,0.76 2.28,-2.28 5.32,-3.81 8.37,-6.09 0,0.76 0,0 0,0z"/>
   </g>
  </g>
 </g>
</svg>
