<svg width="1623" height="520" viewBox="0 0 1623 520" fill="none" xmlns="http://www.w3.org/2000/svg">
<g clip-path="url(#clip0_3129_2985)">
<g clip-path="url(#clip1_3129_2985)">
<path d="M1559.69 6.18543C1568.07 11.0086 1574.11 16.0028 1577.54 25.2011C1578.05 27.7306 1577.7 29.0548 1577 31.4979C1577.27 33.8391 1577.6 36.1754 1578 38.4979C1577.01 38.4979 1576.02 38.4979 1575 38.4979C1575.06 40.1067 1575.06 40.1067 1575.12 41.7479C1575 45.3543 1574.52 46.4519 1573 49.4979C1573.32 52.8477 1573.59 54.0897 1576 56.4979C1575.98 59.3182 1575.98 59.3182 1575.62 62.6229C1575.51 63.7186 1575.4 64.8143 1575.29 65.9432C1575.19 66.7863 1575.1 67.6293 1575 68.4979C1573.52 68.9929 1573.52 68.9929 1572 69.4979C1572 70.8179 1572 72.1379 1572 73.4979C1570.38 74.887 1568.7 76.2113 1567 77.4979C1566.1 78.5395 1565.23 79.6029 1564.38 80.6854C1562 83.4979 1562 83.4979 1559 84.4979C1556.67 84.5375 1554.33 84.5419 1552 84.4979C1552.23 85.5498 1552.45 86.6017 1552.69 87.6854C1552.82 88.2771 1552.94 88.8688 1553.07 89.4784C1554.43 92.4331 1556.69 94.2374 1559 96.4979C1560.41 98.3497 1561.78 100.226 1563.12 102.123C1566.4 106.586 1569.82 110.478 1573.81 114.31C1577.77 118.177 1580.97 121.318 1583 126.498C1582.61 127.909 1582.61 127.909 1582.21 129.349C1581.62 132.718 1581.62 132.718 1584.43 135.314C1585.56 136.252 1586.71 137.167 1587.88 138.06C1588.47 138.539 1589.06 139.017 1589.67 139.509C1593.68 142.673 1597.79 145.369 1602.39 147.596C1604 148.498 1604 148.498 1605 150.498C1605.62 156.54 1604.72 159.824 1601.48 164.932C1599.72 166.789 1598.49 167.119 1596 167.498C1595.16 166.322 1595.16 166.322 1594.31 165.123C1591.83 162.306 1590.4 161.826 1587 160.498C1585.31 158.852 1583.65 157.185 1582 155.498C1580.35 154.468 1578.69 153.463 1577 152.498C1577.01 153.36 1577.02 154.221 1577.03 155.109C1577.07 158.346 1577.09 161.583 1577.11 164.821C1577.12 166.215 1577.13 167.608 1577.15 169.002C1577.31 182.084 1577.31 182.084 1575.82 187.471C1574.59 192.132 1575.81 195.182 1577.69 199.498C1582.36 211.421 1584.75 223.63 1584 236.498C1582.02 237.158 1580.04 237.818 1578 238.498C1578.23 241.209 1578.48 243.915 1578.75 246.623C1578.84 247.764 1578.84 247.764 1578.94 248.928C1579.47 254.083 1580.59 257.406 1584 261.498C1588.66 264.982 1594.4 266.298 1600 267.498C1600.12 270.873 1600.12 270.873 1600 274.498C1599.34 275.158 1598.68 275.818 1598 276.498C1606.25 276.828 1614.5 277.158 1623 277.498C1623 285.748 1623 293.998 1623 302.498C1614.42 302.498 1605.84 302.498 1597 302.498C1597 328.898 1597 355.298 1597 382.498C1588.09 382.498 1579.18 382.498 1570 382.498C1570 356.098 1570 329.698 1570 302.498C1561.42 302.498 1552.84 302.498 1544 302.498C1544 294.248 1544 285.998 1544 277.498C1550.27 277.498 1556.54 277.498 1563 277.498C1562.67 275.188 1562.34 272.878 1562 270.498C1561.89 269.226 1561.78 267.953 1561.66 266.642C1561.06 261.814 1559.32 257.616 1557.38 253.185C1557.06 252.388 1556.74 251.591 1556.41 250.769C1554.2 245.649 1554.2 245.649 1549.34 243.006C1546 241.498 1546 241.498 1545.19 239.693C1544.7 237.354 1544.41 235.065 1544.19 232.685C1544 231.095 1543.8 229.505 1543.61 227.916C1543.52 227.162 1543.43 226.409 1543.33 225.632C1542.89 222.791 1542.02 220.179 1541 217.498C1532.15 223.864 1524.16 230.414 1518 239.498C1516.82 239.168 1515.65 238.838 1514.44 238.498C1511.6 238.153 1510.46 238.165 1508.12 239.861C1502.98 245.602 1495.63 254.451 1496 262.498C1497.94 266.381 1499.57 268.227 1503.25 270.56C1504.16 271.2 1505.07 271.839 1506 272.498C1506.17 275.119 1506.17 275.119 1506 277.498C1507.48 278.242 1507.48 278.242 1509 279.002C1522.24 285.756 1531.08 292.456 1536.81 306.685C1538 310.498 1538 310.498 1539 317.498C1529.76 317.498 1520.52 317.498 1511 317.498C1509.68 314.858 1508.36 312.218 1507 309.498C1502.35 304.579 1496.08 302.828 1489.5 302.123C1481.11 303.022 1474.42 305.824 1469 312.498C1464.04 321.245 1463.41 331.683 1466.06 341.31C1468.63 347.795 1473.03 352.822 1479.25 355.998C1486.3 358.701 1494.27 358.628 1501.22 355.607C1506.69 352.201 1509.18 347.141 1512 341.498C1520.91 341.498 1529.82 341.498 1539 341.498C1537.68 353.39 1534.26 364.007 1525.12 372.178C1514.58 380.472 1503.04 384.076 1489.69 383.935C1488.68 383.928 1487.67 383.92 1486.63 383.912C1471.99 383.59 1459.72 378.514 1448.88 368.529C1438.33 357.127 1434.58 342.622 1434.72 327.424C1435.75 312.846 1440.79 299.611 1451.59 289.498C1459.83 282.67 1469.48 278.405 1480 276.498C1479.3 276.172 1478.6 275.846 1477.88 275.51C1476.97 275.073 1476.06 274.636 1475.12 274.185C1474.22 273.756 1473.32 273.327 1472.38 272.885C1470 271.498 1470 271.498 1468 268.498C1467.22 265.358 1467.27 262.649 1468 259.498C1469.77 256.932 1471.78 254.695 1473.84 252.357C1476.69 248.585 1478.22 244.579 1479.84 240.2C1482.11 234.05 1484.95 228.308 1488 222.498C1487.34 222.498 1486.68 222.498 1486 222.498C1485.07 216.041 1488.38 211.47 1491.44 206.06C1496.09 197.812 1498.88 191.781 1497.19 182.123C1497.02 181.084 1496.84 180.045 1496.67 178.974C1496.45 178.157 1496.23 177.34 1496 176.498C1495.34 176.168 1494.68 175.838 1494 175.498C1490.02 181.373 1487.36 186.385 1486.42 193.467C1486 195.498 1486 195.498 1484 197.498C1482.98 197.413 1481.97 197.328 1480.92 197.24C1475.36 197.606 1472.53 200.233 1468.25 203.623C1466.57 204.907 1464.89 206.191 1463.21 207.474C1462.36 208.139 1461.5 208.803 1460.62 209.487C1456.4 212.727 1452.1 215.858 1447.81 218.998C1445.58 220.639 1443.35 222.281 1441.13 223.941C1439.68 225.001 1438.2 226.022 1436.7 227.008C1432.21 229.94 1432.21 229.94 1430.14 234.717C1430.18 235.799 1430.21 236.882 1430.25 237.998C1430.15 244.951 1428.89 247.608 1424 252.498C1424.32 253.028 1424.64 253.558 1424.98 254.103C1426.27 257.119 1426.34 259.536 1426.38 262.81C1426.4 263.9 1426.43 264.989 1426.46 266.111C1426 269.498 1426 269.498 1424 272.739C1421.76 276.538 1421.5 279.591 1421.49 284.035C1421.48 284.753 1421.47 285.471 1421.46 286.211C1421.45 288.564 1421.45 290.917 1421.46 293.271C1421.45 294.921 1421.44 296.571 1421.43 298.221C1421.39 302.555 1421.38 306.888 1421.38 311.221C1421.37 318.149 1421.33 325.076 1421.29 332.003C1421.27 334.41 1421.27 336.816 1421.28 339.223C1421.24 352.197 1419.96 363.177 1410.94 373.185C1401.05 382.45 1388.63 384.973 1375.56 384.748C1363.94 383.933 1353.31 379.806 1345 371.498C1339.41 363.631 1336.67 356.367 1336.77 346.635C1336.77 345.883 1336.77 345.131 1336.77 344.356C1336.77 341.894 1336.79 339.432 1336.8 336.971C1336.81 335.254 1336.81 333.538 1336.81 331.822C1336.82 327.322 1336.84 322.823 1336.86 318.323C1336.88 313.724 1336.89 309.126 1336.9 304.527C1336.92 295.517 1336.96 286.508 1337 277.498C1345.58 277.498 1354.16 277.498 1363 277.498C1363.02 280.677 1363.02 280.677 1363.04 283.92C1363.09 290.933 1363.16 297.946 1363.24 304.959C1363.28 309.209 1363.32 313.46 1363.35 317.711C1363.37 321.815 1363.41 325.919 1363.46 330.024C1363.48 331.587 1363.49 333.151 1363.5 334.715C1363.51 336.91 1363.54 339.104 1363.57 341.299C1363.58 342.547 1363.59 343.795 1363.6 345.081C1364.11 349.447 1365.31 353.093 1368.76 355.959C1374.42 358.644 1379.15 359.83 1385.21 357.732C1389.24 355.9 1391.36 354.729 1393 350.498C1393.36 347.137 1393.36 347.137 1393.38 343.33C1393.41 342.259 1393.41 342.259 1393.43 341.166C1393.48 338.809 1393.52 336.452 1393.55 334.096C1393.58 332.454 1393.61 330.813 1393.64 329.171C1393.7 325.733 1393.75 322.294 1393.8 318.855C1393.86 314.451 1393.95 310.049 1394.04 305.647C1394.11 302.257 1394.16 298.868 1394.21 295.478C1394.23 293.855 1394.26 292.232 1394.3 290.609C1394.35 288.337 1394.38 286.067 1394.39 283.795C1394.41 282.504 1394.44 281.212 1394.46 279.882C1393.92 275.907 1392.66 274.414 1390 271.498C1389.03 268.603 1388.84 266.64 1388.81 263.623C1388.8 262.78 1388.78 261.937 1388.77 261.068C1389 258.498 1389 258.498 1391 253.498C1359.32 253.168 1327.64 252.838 1295 252.498C1295.66 253.818 1296.32 255.138 1297 256.498C1297.92 263.828 1297.74 269.898 1293.39 276.01C1292 277.498 1292 277.498 1289 279.498C1289.75 279.827 1290.5 280.155 1291.27 280.494C1304.32 286.559 1313.8 295.148 1319.28 308.654C1324.83 324.68 1324.54 341.29 1317.31 356.81C1309.16 371.835 1298.34 377.472 1282 382.498C1265.5 382.498 1249 382.498 1232 382.498C1232 347.848 1232 313.198 1232 277.498C1248.33 277.003 1248.33 277.003 1265 276.498C1263.68 274.848 1262.36 273.198 1261 271.498C1258.86 265.069 1259.32 257.699 1262 251.498C1260.79 250.353 1260.79 250.353 1259.56 249.185C1255.56 244.983 1255.87 241.309 1255.94 235.81C1255.94 235.109 1255.95 234.407 1255.95 233.683C1255.96 231.955 1255.98 230.226 1256 228.498C1259.96 228.498 1263.92 228.498 1268 228.498C1267.58 227.678 1267.16 226.858 1266.72 226.014C1266.17 224.936 1265.63 223.858 1265.06 222.748C1264.52 221.681 1263.97 220.613 1263.41 219.514C1259.37 210.88 1259.62 199.308 1262.75 190.373C1264.43 186.424 1266.39 182.922 1269 179.498C1269.89 178.291 1269.89 178.291 1270.8 177.06C1276.56 170.34 1285.3 165.898 1294 164.498C1301.66 163.918 1308.6 164.491 1316 166.498C1315.3 165.859 1314.6 165.219 1313.88 164.56C1305.93 156.499 1302.01 147.315 1301.62 135.998C1302.04 124.429 1306.13 114.463 1314.29 106.17C1322.86 98.8152 1331.06 96.1878 1342.19 96.0604C1342.94 96.0501 1343.68 96.0398 1344.46 96.0292C1349.88 96.1154 1354.01 97.3687 1359 99.4979C1359.11 98.8121 1359.22 98.1264 1359.33 97.4198C1360.12 93.9858 1361.33 90.9743 1362.75 87.7479C1363.48 86.0232 1363.48 86.0232 1364.23 84.2636C1366 81.4979 1366 81.4979 1368.52 80.4823C1371 80.4979 1371 80.4979 1374 82.4979C1373.56 88.0832 1372.16 91.3798 1368.94 95.9354C1368.2 96.986 1367.47 98.0366 1366.71 99.119C1366.15 99.9041 1365.58 100.689 1365 101.498C1365.74 102.213 1366.48 102.929 1367.24 103.666C1376.28 112.951 1381.71 122.553 1382.25 135.623C1382.08 145.49 1379.22 153.867 1373 161.498C1372.5 162.124 1371.99 162.751 1371.48 163.396C1366.15 169.344 1357.95 174.214 1350 175.498C1347.36 175.593 1344.76 175.637 1342.12 175.623C1341.43 175.627 1340.74 175.631 1340.02 175.635C1335.91 175.627 1332.03 175.294 1328 174.498C1328.89 175.447 1329.77 176.395 1330.69 177.373C1339.41 187.518 1340.87 198.306 1340.25 211.236C1339.68 216.435 1337.47 220.958 1335 225.498C1334.67 226.158 1334.34 226.818 1334 227.498C1343.9 227.993 1343.9 227.993 1354 228.498C1353.03 226.6 1352.06 224.703 1351.06 222.748C1346.32 213.466 1345.48 203.545 1347.68 193.318C1351.9 180.969 1359.18 172.859 1370.92 167.053C1371.9 166.601 1372.87 166.15 1373.88 165.685C1379.5 163.027 1383.72 159.565 1388.33 155.478C1394.44 150.108 1401.05 145.345 1409.44 145.373C1410.2 145.37 1410.96 145.368 1411.75 145.365C1414 145.498 1414 145.498 1418 146.498C1420.97 142.538 1423.94 138.578 1427 134.498C1428.65 134.828 1430.3 135.158 1432 135.498C1432.78 137.697 1432.78 137.697 1433 140.498C1431.13 142.955 1431.13 142.955 1428.56 145.31C1427.3 146.496 1427.3 146.496 1426 147.705C1425.34 148.297 1424.68 148.888 1424 149.498C1424.3 150.077 1424.59 150.656 1424.89 151.252C1429.15 159.896 1430 167.937 1427.49 177.405C1425.29 185.712 1425.99 194.055 1426.34 202.574C1426.52 211.331 1425 217.711 1421 225.498C1420.67 226.158 1420.34 226.818 1420 227.498C1424.94 228.078 1428.73 228.186 1432.82 225.111C1434.08 224.033 1435.33 222.931 1436.56 221.81C1437.95 220.617 1439.34 219.424 1440.72 218.232C1441.78 217.307 1441.78 217.307 1442.85 216.363C1446.33 213.342 1449.92 210.456 1453.5 207.56C1454.13 207.042 1454.77 206.524 1455.42 205.989C1459.86 202.368 1464.4 198.903 1469 195.498C1468.51 194.838 1468.01 194.178 1467.5 193.498C1465.46 189.409 1465.57 187.055 1466 182.498C1467.38 179.998 1467.38 179.998 1469 178.498C1469.66 178.498 1470.32 178.498 1471 178.498C1471.25 177.962 1471.51 177.425 1471.77 176.873C1473.82 172.906 1476.27 169.163 1478.64 165.373C1480.2 162.722 1480.2 162.722 1479.77 160.498C1479.52 159.838 1479.26 159.178 1479 158.498C1477.32 151.427 1479.79 146.695 1482.5 140.185C1482.99 139.002 1483.48 137.819 1483.98 136.6C1490.53 121.245 1498.9 106.455 1509.49 93.5123C1511.84 90.385 1513.38 87.0526 1515 83.4979C1514.15 83.1473 1513.31 82.7967 1512.44 82.4354C1508.15 80.0206 1505.27 77.1279 1502 73.4979C1501.45 72.9346 1500.9 72.3713 1500.33 71.7909C1495.6 66.4246 1494.79 60.6663 1493.84 53.7909C1492.87 49.9894 1492.05 49.6631 1489 47.4979C1487.94 42.5508 1488.15 37.8754 1490.81 33.5604C1491.53 32.5498 1492.26 31.5392 1493 30.4979C1493.49 28.5726 1493.92 26.6326 1494.31 24.6854C1496.25 16.1725 1501.05 10.5993 1508 5.49793C1522.87 -2.81109 1544.42 -0.98189 1559.69 6.18543ZM1274.12 258.623C1272.43 261.441 1272.46 263.285 1273 266.498C1275.09 268.668 1275.09 268.668 1278 269.498C1280.76 269.162 1280.76 269.162 1283 267.498C1284.66 265.255 1284.66 265.255 1285 262.498C1284.17 259.587 1284.17 259.587 1282 257.498C1278.79 256.962 1276.94 256.932 1274.12 258.623ZM1403.06 258.56C1401.38 261.623 1402.31 264.192 1403 267.498C1404.98 268.158 1406.96 268.818 1409 269.498C1411.67 267.332 1411.67 267.332 1414 264.498C1413.92 261.052 1413.44 259.942 1411 257.498C1407.9 257.168 1405.83 257.045 1403.06 258.56ZM1259 302.498C1259 320.648 1259 338.798 1259 357.498C1275.91 358.382 1275.91 358.382 1288.82 350.771C1293.91 344.786 1295.57 337.602 1296.38 329.935C1295.43 321.246 1292.74 313.653 1286.06 307.748C1277.68 301.587 1269.42 302.498 1259 302.498Z" fill="#306633"/>
<path d="M1559.69 6.18543C1568.07 11.0086 1574.11 16.0028 1577.54 25.2011C1578.05 27.7306 1577.7 29.0548 1577 31.4979C1577.27 33.8391 1577.6 36.1754 1578 38.4979C1577.01 38.4979 1576.02 38.4979 1575 38.4979C1575.04 39.5704 1575.08 40.6429 1575.12 41.7479C1575 45.3543 1574.52 46.4519 1573 49.4979C1573.32 52.8477 1573.59 54.0897 1576 56.4979C1575.98 59.3182 1575.98 59.3182 1575.62 62.6229C1575.51 63.7186 1575.4 64.8143 1575.29 65.9432C1575.19 66.7863 1575.1 67.6293 1575 68.4979C1574.01 68.8279 1573.02 69.1579 1572 69.4979C1572 70.8179 1572 72.1379 1572 73.4979C1570.38 74.887 1568.7 76.2113 1567 77.4979C1566.1 78.5395 1565.23 79.6029 1564.38 80.6854C1562 83.4979 1562 83.4979 1559 84.4979C1556.67 84.5375 1554.33 84.5419 1552 84.4979C1552.23 85.5498 1552.45 86.6017 1552.69 87.6854C1552.82 88.2771 1552.94 88.8688 1553.07 89.4784C1554.43 92.4331 1556.69 94.2374 1559 96.4979C1560.41 98.3497 1561.78 100.226 1563.12 102.123C1566.4 106.586 1569.82 110.478 1573.81 114.31C1577.77 118.177 1580.97 121.318 1583 126.498C1582.74 127.439 1582.48 128.38 1582.21 129.349C1581.62 132.718 1581.62 132.718 1584.43 135.314C1585.56 136.252 1586.71 137.167 1587.88 138.06C1588.47 138.539 1589.06 139.017 1589.67 139.509C1593.68 142.673 1597.79 145.369 1602.39 147.596C1604 148.498 1604 148.498 1605 150.498C1605.62 156.54 1604.72 159.824 1601.48 164.932C1599.72 166.789 1598.49 167.119 1596 167.498C1595.44 166.714 1594.89 165.93 1594.31 165.123C1591.83 162.306 1590.4 161.826 1587 160.498C1585.31 158.852 1583.65 157.185 1582 155.498C1580.35 154.468 1578.69 153.463 1577 152.498C1577.01 153.36 1577.02 154.221 1577.03 155.109C1577.07 158.346 1577.09 161.583 1577.11 164.821C1577.12 166.215 1577.13 167.608 1577.15 169.002C1577.31 182.084 1577.31 182.084 1575.82 187.471C1574.59 192.132 1575.81 195.182 1577.69 199.498C1582.36 211.421 1584.75 223.63 1584 236.498C1581.03 237.488 1581.03 237.488 1578 238.498C1578.23 241.209 1578.48 243.915 1578.75 246.623C1578.81 247.383 1578.87 248.144 1578.94 248.928C1579.47 254.083 1580.59 257.406 1584 261.498C1588.66 264.982 1594.4 266.298 1600 267.498C1600.12 270.873 1600.12 270.873 1600 274.498C1599.34 275.158 1598.68 275.818 1598 276.498C1606.25 276.828 1614.5 277.158 1623 277.498C1623 285.748 1623 293.998 1623 302.498C1614.42 302.498 1605.84 302.498 1597 302.498C1597 328.898 1597 355.298 1597 382.498C1588.09 382.498 1579.18 382.498 1570 382.498C1570 356.098 1570 329.698 1570 302.498C1561.42 302.498 1552.84 302.498 1544 302.498C1544 294.248 1544 285.998 1544 277.498C1550.27 277.498 1556.54 277.498 1563 277.498C1562.51 274.033 1562.51 274.033 1562 270.498C1561.89 269.226 1561.78 267.953 1561.66 266.642C1561.06 261.814 1559.32 257.616 1557.38 253.185C1557.06 252.388 1556.74 251.591 1556.41 250.769C1554.2 245.649 1554.2 245.649 1549.34 243.006C1546 241.498 1546 241.498 1545.19 239.693C1544.7 237.354 1544.41 235.065 1544.19 232.685C1544 231.095 1543.8 229.505 1543.61 227.916C1543.52 227.162 1543.43 226.409 1543.33 225.632C1542.89 222.791 1542.02 220.179 1541 217.498C1532.15 223.864 1524.16 230.414 1518 239.498C1516.82 239.168 1515.65 238.838 1514.44 238.498C1511.6 238.153 1510.46 238.165 1508.12 239.861C1502.98 245.602 1495.63 254.451 1496 262.498C1497.94 266.381 1499.57 268.227 1503.25 270.56C1504.16 271.2 1505.07 271.839 1506 272.498C1506.17 275.119 1506.17 275.119 1506 277.498C1506.99 277.994 1507.98 278.491 1509 279.002C1522.24 285.756 1531.08 292.456 1536.81 306.685C1538 310.498 1538 310.498 1539 317.498C1529.76 317.498 1520.52 317.498 1511 317.498C1509.02 313.538 1509.02 313.538 1507 309.498C1502.35 304.579 1496.08 302.828 1489.5 302.123C1481.11 303.022 1474.42 305.824 1469 312.498C1464.04 321.245 1463.41 331.683 1466.06 341.31C1468.63 347.795 1473.03 352.822 1479.25 355.998C1486.3 358.701 1494.27 358.628 1501.22 355.607C1506.69 352.201 1509.18 347.141 1512 341.498C1520.91 341.498 1529.82 341.498 1539 341.498C1537.68 353.39 1534.26 364.007 1525.12 372.178C1514.58 380.472 1503.04 384.076 1489.69 383.935C1488.17 383.924 1488.17 383.924 1486.63 383.912C1471.99 383.59 1459.72 378.514 1448.88 368.529C1438.33 357.127 1434.58 342.622 1434.72 327.424C1435.75 312.846 1440.79 299.611 1451.59 289.498C1459.83 282.67 1469.48 278.405 1480 276.498C1479.3 276.172 1478.6 275.846 1477.88 275.51C1476.97 275.073 1476.06 274.636 1475.12 274.185C1474.22 273.756 1473.32 273.327 1472.38 272.885C1470 271.498 1470 271.498 1468 268.498C1467.22 265.358 1467.27 262.649 1468 259.498C1469.77 256.932 1471.78 254.695 1473.84 252.357C1476.69 248.585 1478.22 244.579 1479.84 240.2C1482.11 234.05 1484.95 228.308 1488 222.498C1487.34 222.498 1486.68 222.498 1486 222.498C1485.07 216.041 1488.38 211.47 1491.44 206.06C1496.09 197.812 1498.88 191.781 1497.19 182.123C1497.02 181.084 1496.84 180.045 1496.67 178.974C1496.34 177.749 1496.34 177.749 1496 176.498C1495.34 176.168 1494.68 175.838 1494 175.498C1490.02 181.373 1487.36 186.385 1486.42 193.467C1486 195.498 1486 195.498 1484 197.498C1480.38 197.123 1480.38 197.123 1477 196.498C1477.66 194.848 1478.32 193.198 1479 191.498C1477.93 192.014 1476.85 192.529 1475.75 193.06C1473.44 194.046 1472.23 194.51 1469.69 194.373C1468 193.498 1468 193.498 1466 190.498C1465.45 183.507 1465.45 183.507 1467.38 179.998C1469 178.498 1469 178.498 1471 178.498C1471.38 177.694 1471.38 177.694 1471.77 176.873C1473.82 172.906 1476.27 169.163 1478.64 165.373C1480.2 162.722 1480.2 162.722 1479.77 160.498C1479.52 159.838 1479.26 159.178 1479 158.498C1477.32 151.427 1479.79 146.695 1482.5 140.185C1482.99 139.002 1483.48 137.819 1483.98 136.6C1490.53 121.245 1498.9 106.455 1509.49 93.5123C1511.84 90.385 1513.38 87.0526 1515 83.4979C1514.15 83.1473 1513.31 82.7967 1512.44 82.4354C1508.15 80.0206 1505.27 77.1279 1502 73.4979C1501.45 72.9346 1500.9 72.3713 1500.33 71.7909C1495.6 66.4246 1494.79 60.6663 1493.84 53.7909C1492.87 49.9894 1492.05 49.6631 1489 47.4979C1487.94 42.5508 1488.15 37.8754 1490.81 33.5604C1491.53 32.5498 1492.26 31.5392 1493 30.4979C1493.49 28.5726 1493.92 26.6326 1494.31 24.6854C1496.25 16.1725 1501.05 10.5993 1508 5.49793C1522.87 -2.81109 1544.42 -0.98189 1559.69 6.18543Z" fill="#2F6633"/>
<path d="M1367 80.498C1372.71 81.2123 1372.71 81.2122 1374 82.4979C1373.68 88.0817 1372.14 91.4053 1368.94 95.9354C1367.84 97.5113 1367.84 97.5113 1366.71 99.119C1366.15 99.9041 1365.58 100.689 1365 101.498C1365.74 102.213 1366.48 102.929 1367.24 103.666C1376.28 112.951 1381.71 122.553 1382.25 135.623C1382.08 145.49 1379.22 153.867 1373 161.498C1372.5 162.124 1371.99 162.751 1371.48 163.396C1366.15 169.344 1357.95 174.214 1350 175.498C1347.36 175.593 1344.76 175.637 1342.12 175.623C1341.08 175.629 1341.08 175.629 1340.02 175.635C1335.91 175.627 1332.03 175.294 1328 174.498C1329.33 175.921 1329.33 175.921 1330.69 177.373C1339.41 187.521 1340.87 198.308 1340.24 211.241C1339.55 217.654 1336.52 223.215 1333 228.498C1330.29 228.859 1330.29 228.859 1326.81 228.839C1325.5 228.838 1324.2 228.838 1322.86 228.838C1321.44 228.823 1320.01 228.807 1318.59 228.791C1317.13 228.785 1315.68 228.781 1314.22 228.778C1310.39 228.767 1306.56 228.737 1302.73 228.704C1298.82 228.673 1294.92 228.66 1291.01 228.645C1283.34 228.612 1275.67 228.561 1268 228.498C1267.02 226.584 1266.04 224.667 1265.06 222.748C1264.52 221.681 1263.97 220.613 1263.41 219.514C1259.37 210.877 1259.62 199.299 1262.75 190.373C1264.43 186.424 1266.39 182.922 1269 179.498C1269.6 178.694 1270.19 177.889 1270.8 177.06C1276.56 170.34 1285.3 165.898 1294 164.498C1301.66 163.918 1308.6 164.491 1316 166.498C1315.3 165.859 1314.6 165.219 1313.88 164.56C1305.93 156.499 1302.01 147.315 1301.62 135.998C1302.04 124.429 1306.13 114.463 1314.29 106.17C1322.86 98.8152 1331.06 96.1878 1342.19 96.0604C1342.94 96.0501 1343.68 96.0398 1344.46 96.0292C1349.88 96.1154 1354.01 97.3687 1359 99.4979C1359.1 98.8121 1359.21 98.1265 1359.31 97.4199C1360.13 93.9399 1361.48 90.9813 1363 87.748C1363.54 86.5982 1364.07 85.4484 1364.62 84.2637C1366 81.498 1366 81.498 1367 80.498Z" fill="#EC3237"/>
<path d="M1196 285.498C1207.59 294.588 1214.34 306.778 1216.4 321.307C1218.04 336.222 1216.05 351.289 1207.19 363.748C1206.15 365.015 1205.08 366.265 1204 367.498C1203.45 368.164 1202.9 368.831 1202.33 369.517C1192.9 380.04 1178.73 384.773 1164.91 385.627C1150.6 386.014 1136.84 382.023 1126 372.498C1125 371.672 1125 371.672 1123.98 370.83C1115.38 363.118 1109.72 351.339 1108.78 339.825C1107.99 320.5 1109.95 305.058 1123.5 290.31C1143.17 271.612 1173.82 271.158 1196 285.498ZM1143.69 310.529C1137.11 318.189 1136.35 326.742 1137 336.498C1138.2 343.583 1141.62 348.783 1147 353.498C1153.02 357.384 1158.82 359.068 1166 358.498C1173.54 356.655 1179.44 353.925 1184 347.498C1188.96 339.254 1189.34 329.952 1187.41 320.662C1185.15 313.895 1180.94 309.356 1175 305.498C1163.78 300.554 1152.68 301.96 1143.69 310.529Z" fill="#2F6633"/>
<path d="M1193.5 150.873C1204.58 159.401 1212.97 170.279 1215 184.498C1216.64 204.057 1214.15 218.532 1202.75 234.685C1191.82 245.859 1177.3 251.285 1161.88 251.873C1147.13 251.595 1132.74 246.678 1121.84 236.537C1110.81 224.339 1106.75 209.449 1107.04 193.312C1107.73 180.549 1111.5 169.15 1120 159.498C1120.52 158.893 1121.05 158.289 1121.59 157.666C1139.5 138.361 1172.04 136.659 1193.5 150.873ZM1141.19 178.248C1136.11 185.797 1134.99 193.501 1136 202.498C1137.67 210.04 1140.59 215.997 1147 220.498C1154.04 224.416 1160.69 225.878 1168.54 223.838C1175.6 221.372 1180.48 217.739 1184.32 211.279C1188.07 203.222 1188.29 194.217 1185.94 185.685C1183.45 179.352 1179.03 174.326 1173.06 171.06C1161.24 165.944 1150.15 169.489 1141.19 178.248Z" fill="#2F6633"/>
<path d="M1015 277.498C1077.31 277.498 1077.31 277.498 1089.69 288.623C1097.55 296.824 1099.33 307.235 1099.21 318.15C1098.47 329.859 1092.3 337.832 1085 346.498C1087.23 350.165 1089.46 353.832 1091.69 357.498C1092.31 358.528 1092.94 359.558 1093.58 360.619C1094.2 361.631 1094.82 362.643 1095.45 363.686C1096.05 364.681 1096.65 365.676 1097.27 366.701C1098.35 368.438 1099.44 370.16 1100.57 371.857C1101.03 372.543 1101.49 373.229 1101.96 373.936C1102.36 374.512 1102.75 375.088 1103.16 375.682C1104.25 378.031 1104.14 379.943 1104 382.498C1099.7 382.722 1095.39 382.884 1091.08 382.992C1089.62 383.038 1088.16 383.099 1086.7 383.177C1074.64 383.805 1074.64 383.805 1070.88 380.804C1069.28 378.444 1068.15 376.103 1067 373.498C1066.02 371.833 1065.02 370.177 1064.01 368.533C1063.04 366.877 1062.08 365.22 1061.12 363.561C1060.63 362.712 1060.13 361.863 1059.62 360.988C1059.15 360.178 1058.68 359.368 1058.2 358.533C1057.56 357.441 1057.56 357.441 1056.91 356.326C1056 354.498 1056 354.498 1056 352.498C1051.38 352.498 1046.76 352.498 1042 352.498C1042 362.398 1042 372.298 1042 382.498C1033.09 382.498 1024.18 382.498 1015 382.498C1015 347.848 1015 313.198 1015 277.498ZM1042 302.498C1042 310.748 1042 318.998 1042 327.498C1047.26 327.653 1047.26 327.653 1052.62 327.811C1053.72 327.856 1054.81 327.902 1055.94 327.948C1062.2 328.059 1062.2 328.059 1067.61 325.252C1070.91 321.453 1071.88 318.484 1072 313.498C1070.53 308.237 1068.7 305.266 1064 302.498C1060.21 302.011 1056.5 302.122 1052.69 302.248C1047.4 302.372 1047.4 302.372 1042 302.498Z" fill="#306733"/>
<path d="M1079.71 417.478C1086.02 422.856 1089.38 427.63 1092 435.498C1092 438.468 1092 441.438 1092 444.498C1083.42 444.498 1074.84 444.498 1066 444.498C1065.01 442.518 1064.02 440.538 1063 438.498C1058.26 435.764 1054.43 434.916 1049 435.498C1045.42 436.691 1042.8 437.774 1040 440.31C1038.55 443.476 1038.89 445.234 1040 448.498C1043.69 451.242 1046.98 452.07 1051.48 452.744C1052.73 452.942 1053.97 453.14 1055.26 453.344C1057.86 453.735 1060.46 454.126 1063.06 454.515C1072.98 456.092 1082.88 457.878 1090 465.498C1095.73 473.81 1097.1 483.354 1095.44 493.248C1093.27 501.121 1087.85 508.119 1081 512.498C1065.57 520.456 1049.56 521.476 1033 516.498C1023.59 512.743 1017.1 506.89 1012.06 498.123C1011 494.498 1011 494.498 1010 483.498C1018.91 483.498 1027.82 483.498 1037 483.498C1037.99 485.478 1038.98 487.458 1040 489.498C1045.15 493.056 1051.03 493.889 1057.18 493.283C1062.09 492.309 1065.12 490.588 1068 486.498C1067.68 483.367 1067.68 483.367 1067 480.498C1060.19 478.529 1053.54 477.257 1046.5 476.56C1034.05 475.218 1024.36 472.44 1016 462.498C1010.69 454.715 1010.94 444.556 1012 435.498C1013.95 427.204 1019.88 420.351 1026.88 415.685C1042.46 406.73 1064.94 406.687 1079.71 417.478Z" fill="#2F6633"/>
<path d="M1084.35 154.24C1092.78 161.808 1097.28 172.359 1098 183.498C1093.63 183.76 1089.25 183.92 1084.88 184.061C1083.64 184.136 1082.4 184.211 1081.12 184.289C1072.08 184.508 1072.08 184.508 1068.93 181.56C1067.37 179.15 1067.37 179.15 1066.19 176.74C1064.15 172.899 1060.96 171.067 1057 169.498C1049.72 167.723 1042.53 168.154 1035.84 171.619C1029.26 175.966 1026.14 182.116 1024.19 189.623C1024.13 190.572 1024.06 191.521 1024 192.498C1023.92 193.736 1023.83 194.973 1023.75 196.248C1023.89 203.828 1026.32 210.879 1031.15 216.736C1036.32 221.661 1041.98 223.781 1049.06 224.061C1055.93 223.743 1061.47 222.03 1066.38 217.123C1068.09 214.349 1069.54 211.416 1071 208.498C1080.24 208.498 1089.48 208.498 1099 208.498C1096.01 221.473 1092.85 232.376 1082 240.498C1066.07 249.815 1049.99 252.843 1032 248.498C1018.86 244.182 1008.37 236.301 1001 224.498C994.137 210.331 992.208 193.57 996.625 178.248C998.733 172.562 1001.52 167.454 1005 162.498C1005.44 161.863 1005.88 161.227 1006.33 160.572C1013.76 150.924 1026.65 145.115 1038.4 142.815C1055.36 140.749 1070.55 144.003 1084.35 154.24Z" fill="#2F6633"/>
<path d="M916 277.498C977.641 277.498 977.641 277.498 988.07 286.533C996.226 294.837 1000.08 305.413 1000.5 316.998C1000.08 328.483 996.325 339.49 987.895 347.498C979.886 354.114 971.543 356.651 961.164 356.596C960.205 356.593 959.245 356.591 958.256 356.588C957.058 356.579 955.86 356.57 954.625 356.561C950.789 356.54 946.952 356.519 943 356.498C943 365.078 943 373.658 943 382.498C934.09 382.498 925.18 382.498 916 382.498C916 347.848 916 313.198 916 277.498ZM943 302.498C943 312.068 943 321.638 943 331.498C946.362 331.56 949.724 331.622 953.188 331.686C954.238 331.713 955.289 331.74 956.372 331.768C963.195 331.856 963.195 331.856 969 328.498C972.043 323.717 973.723 318.827 972.492 313.158C971.27 309.19 970.282 306.195 967 303.498C964.059 302.518 962.175 302.382 959.113 302.4C957.845 302.404 957.845 302.404 956.552 302.408C955.483 302.417 954.414 302.426 953.312 302.436C949.909 302.456 946.506 302.477 943 302.498Z" fill="#2F6633"/>
<path d="M916 143.498C937.78 143.498 959.56 143.498 982 143.498C982 151.748 982 159.998 982 168.498C969.13 168.498 956.26 168.498 943 168.498C943 173.118 943 177.738 943 182.498C954.88 182.498 966.76 182.498 979 182.498C979 190.748 979 198.998 979 207.498C967.12 207.498 955.24 207.498 943 207.498C943 213.108 943 218.718 943 224.498C956.2 224.498 969.4 224.498 983 224.498C983 232.748 983 240.998 983 249.498C960.89 249.498 938.78 249.498 916 249.498C916 214.518 916 179.538 916 143.498Z" fill="#306734"/>
<path d="M949 410.498C953.29 410.498 957.58 410.498 962 410.498C968 422.294 973.652 434.228 979.188 446.248C980.023 448.059 980.86 449.869 981.696 451.679C983.358 455.276 985.019 458.874 986.679 462.472C989.317 468.186 991.964 473.896 994.616 479.604C995.686 481.909 996.755 484.215 997.822 486.521C999.961 491.141 1002.11 495.753 1004.35 500.326C1004.69 501.027 1005.03 501.727 1005.38 502.449C1006.22 504.176 1007.07 505.896 1007.93 507.615C1009 510.498 1009 510.498 1009 516.498C1000.09 516.498 991.18 516.498 982 516.498C976 505.498 976 505.498 976 503.498C962.8 503.828 949.6 504.158 936 504.498C934.02 508.458 932.04 512.418 930 516.498C920.76 516.498 911.52 516.498 902 516.498C902.835 510.654 903.608 507.629 906.07 502.537C906.54 501.555 906.54 501.555 907.018 500.553C907.693 499.143 908.372 497.734 909.055 496.328C910.9 492.527 912.713 488.71 914.531 484.896C914.906 484.113 915.28 483.33 915.666 482.524C919.425 474.646 923.035 466.704 926.625 458.748C931.64 447.653 936.719 436.591 941.875 425.561C942.18 424.907 942.486 424.253 942.801 423.58C947.723 413.053 947.723 413.053 949 410.498ZM955 454.498C953.33 458.476 951.665 462.456 950 466.436C949.523 467.572 949.046 468.708 948.555 469.879C948.104 470.958 947.652 472.038 947.188 473.15C946.769 474.151 946.35 475.151 945.918 476.181C944.939 478.238 944.939 478.238 945 479.498C951.93 479.498 958.86 479.498 966 479.498C963.793 472.685 963.793 472.685 961.176 466.119C960.87 465.426 960.563 464.733 960.248 464.02C959.939 463.332 959.631 462.644 959.312 461.936C958.992 461.213 958.672 460.491 958.342 459.746C957.565 457.995 956.783 456.246 956 454.498C955.67 454.498 955.34 454.498 955 454.498Z" fill="#2F6633"/>
<path d="M1203 410.498C1207.62 410.498 1212.24 410.498 1217 410.498C1217.51 411.593 1218.01 412.689 1218.54 413.817C1220.48 418.018 1222.43 422.218 1224.38 426.418C1225.69 429.256 1227.01 432.095 1228.32 434.933C1233.98 447.154 1233.98 447.154 1239.66 459.365C1242.24 464.895 1244.81 470.43 1247.37 475.969C1248.54 478.511 1249.72 481.051 1250.91 483.59C1252.57 487.152 1254.21 490.719 1255.85 494.29C1256.49 495.663 1257.12 497.034 1257.76 498.403C1258.65 500.302 1259.52 502.208 1260.39 504.115C1261.15 505.749 1261.15 505.749 1261.92 507.416C1263 510.498 1263 510.498 1263 516.498C1254.09 516.498 1245.18 516.498 1236 516.498C1234.02 512.538 1232.04 508.578 1230 504.498C1216.8 504.498 1203.6 504.498 1190 504.498C1188.02 508.458 1186.04 512.418 1184 516.498C1175.09 516.498 1166.18 516.498 1157 516.498C1157 510.774 1157.38 508.963 1159.75 504.072C1160.05 503.461 1160.34 502.849 1160.64 502.219C1161.27 500.897 1161.91 499.577 1162.55 498.259C1163.94 495.415 1165.3 492.559 1166.66 489.704C1167.37 488.21 1168.09 486.717 1168.8 485.224C1172.48 477.533 1176 469.77 1179.5 461.998C1185.33 449.096 1191.29 436.261 1197.34 423.461C1197.65 422.813 1197.95 422.165 1198.27 421.497C1199.09 419.748 1199.92 418 1200.75 416.252C1202.06 413.497 1202.06 413.497 1203 410.498ZM1209 455.498C1207.49 458.932 1205.99 462.371 1204.5 465.811C1203.86 467.275 1203.86 467.275 1203.2 468.77C1202.59 470.176 1202.59 470.176 1201.97 471.611C1201.59 472.475 1201.21 473.339 1200.83 474.23C1199.83 476.566 1199.83 476.566 1200 479.498C1206.93 479.498 1213.86 479.498 1221 479.498C1217.7 471.578 1214.4 463.658 1211 455.498C1210.34 455.498 1209.68 455.498 1209 455.498Z" fill="#2F6633"/>
<path d="M1427 134.498C1428.65 134.828 1430.3 135.158 1432 135.498C1432.78 137.697 1432.78 137.697 1433 140.498C1431.13 142.955 1431.13 142.955 1428.56 145.31C1427.72 146.101 1426.87 146.891 1426 147.705C1425.34 148.297 1424.68 148.888 1424 149.498C1424.44 150.366 1424.44 150.366 1424.89 151.252C1430.04 161.706 1429.32 171.266 1426.44 182.412C1425.99 184.543 1425.97 186.45 1425.94 188.623C1424.99 198.375 1416.15 210.204 1409 216.498C1398.47 224.399 1387 226.742 1374 225.498C1363.84 223.639 1355.37 219.147 1348.22 211.627C1345.23 206.418 1346.38 199.154 1347.69 193.518C1351.57 182.001 1357.64 174.818 1368 168.498C1369.95 167.535 1371.9 166.598 1373.88 165.685C1379.5 163.027 1383.72 159.565 1388.33 155.478C1394.44 150.108 1401.05 145.345 1409.44 145.373C1410.2 145.37 1410.96 145.368 1411.75 145.365C1414 145.498 1414 145.498 1418 146.498C1420.97 142.538 1423.94 138.578 1427 134.498Z" fill="#A7CE45"/>
<path d="M1324.68 171.776C1332.42 177.524 1337.94 186.05 1340 195.498C1340.87 207.944 1340.12 217.811 1333 228.498C1330.29 228.859 1330.29 228.859 1326.81 228.839C1325.5 228.838 1324.2 228.838 1322.86 228.838C1321.44 228.823 1320.01 228.807 1318.59 228.791C1317.13 228.785 1315.68 228.781 1314.22 228.778C1310.39 228.767 1306.56 228.737 1302.73 228.704C1298.82 228.673 1294.92 228.66 1291.01 228.645C1283.34 228.612 1275.67 228.561 1268 228.498C1267.02 226.584 1266.04 224.667 1265.06 222.748C1264.52 221.681 1263.97 220.613 1263.41 219.514C1259.37 210.877 1259.62 199.299 1262.75 190.373C1264.43 186.424 1266.39 182.922 1269 179.498C1269.6 178.694 1270.19 177.889 1270.8 177.06C1284.59 160.964 1307.86 161.047 1324.68 171.776Z" fill="#FECB29"/>
<path d="M1102 411.498C1119.16 411.498 1136.32 411.498 1154 411.498C1154 419.418 1154 427.338 1154 435.498C1150.04 435.498 1146.08 435.498 1142 435.498C1142 454.308 1142 473.118 1142 492.498C1146.29 492.498 1150.58 492.498 1155 492.498C1155 500.418 1155 508.338 1155 516.498C1137.18 516.498 1119.36 516.498 1101 516.498C1101 508.578 1101 500.658 1101 492.498C1105.62 492.498 1110.24 492.498 1115 492.498C1115 473.688 1115 454.878 1115 435.498C1110.71 435.498 1106.42 435.498 1102 435.498C1102 427.578 1102 419.658 1102 411.498Z" fill="#306734"/>
<path d="M1381 135.498C1381.33 135.498 1381.66 135.498 1382 135.498C1381.5 148.761 1377.79 157.371 1368 166.498C1357.63 174.975 1347.07 176.674 1334 175.498C1327.63 174.013 1322.21 171.47 1317 167.498C1316.11 166.838 1315.23 166.178 1314.31 165.498C1312.13 163.612 1310.5 161.952 1309 159.498C1309 158.508 1309 157.518 1309 156.498C1311.44 157.011 1313.55 157.727 1315.86 158.689C1328.6 163.933 1340.97 164.392 1354.06 159.771C1358.68 157.771 1362.85 155.341 1367 152.498C1367.89 151.921 1368.77 151.343 1369.69 150.748C1373.41 147.127 1376.14 142.813 1379 138.498C1379.66 137.508 1380.32 136.518 1381 135.498Z" fill="#BE2E31"/>
<path d="M1342.19 96.0604C1342.94 96.0501 1343.68 96.0398 1344.46 96.0292C1349.88 96.1154 1354.01 97.3687 1359 99.4979C1358.34 101.478 1357.68 103.458 1357 105.498C1355.21 105.554 1355.21 105.554 1353.38 105.611C1339.81 106.129 1329.26 107.629 1319.02 117.385C1313.02 123.899 1308.84 131.03 1308.9 140.045C1308.91 140.889 1308.91 141.734 1308.91 142.604C1308.92 143.476 1308.93 144.349 1308.94 145.248C1308.94 146.136 1308.95 147.024 1308.95 147.939C1308.96 150.126 1308.98 152.312 1309 154.498C1308.01 154.498 1307.02 154.498 1306 154.498C1301.64 142.249 1300.11 131.835 1305 119.498C1309.85 109.643 1316.89 102.449 1327 97.998C1332.04 96.3789 1336.93 96.1206 1342.19 96.0604Z" fill="#F05E55"/>
<path d="M1424 193.498C1427.37 196.873 1426.43 201.771 1426.44 206.321C1426.27 214.766 1423.67 221.492 1419 228.498C1416.29 228.859 1416.29 228.859 1412.81 228.839C1411.5 228.838 1410.2 228.838 1408.86 228.838C1407.44 228.823 1406.01 228.807 1404.59 228.791C1403.13 228.785 1401.68 228.781 1400.22 228.778C1396.39 228.767 1392.56 228.737 1388.73 228.704C1384.82 228.673 1380.92 228.66 1377.01 228.645C1369.34 228.612 1361.67 228.561 1354 228.498C1353.01 226.59 1352.03 224.678 1351.05 222.764C1350.51 221.699 1349.96 220.635 1349.4 219.538C1347.78 216.024 1347.17 213.327 1347 209.498C1348.45 210.797 1348.45 210.797 1349.94 212.123C1360.63 221.187 1370.22 225.215 1384.45 224.842C1395.36 223.786 1405.12 219.745 1412.7 211.689C1417.13 206.092 1420.51 199.698 1424 193.498Z" fill="#619D42"/>
<path d="M1338 194.498C1338.99 194.993 1338.99 194.993 1340 195.498C1340.63 208.011 1340.19 217.714 1333 228.498C1330.29 228.859 1330.29 228.859 1326.81 228.839C1325.5 228.838 1324.2 228.838 1322.86 228.838C1321.44 228.823 1320.01 228.807 1318.59 228.791C1317.13 228.785 1315.68 228.781 1314.22 228.778C1310.39 228.767 1306.56 228.737 1302.73 228.704C1298.82 228.673 1294.92 228.66 1291.01 228.645C1283.34 228.612 1275.67 228.561 1268 228.498C1266.98 226.631 1265.99 224.754 1265 222.873C1264.44 221.829 1263.89 220.785 1263.31 219.709C1261.94 216.357 1261.74 214.078 1262 210.498C1262.89 211.344 1263.77 212.189 1264.69 213.061C1276.74 223.412 1288.52 225.277 1303.73 224.673C1314.5 223.843 1322.57 217.303 1329.75 209.748C1333.59 205.197 1335.81 199.992 1338 194.498Z" fill="#F79832"/>
<path d="M1409.44 145.311C1410.2 145.296 1410.96 145.282 1411.75 145.268C1414.23 145.522 1415.85 146.258 1418 147.498C1416.93 150.413 1416.22 152.276 1414 154.498C1411.97 154.955 1411.97 154.955 1409.5 155.311C1399.8 157.148 1393.09 162.008 1385.65 168.291C1380.12 172.894 1374.78 176.285 1368.06 178.873C1360.49 181.854 1354.63 186.704 1349 192.498C1350.45 183.346 1355.86 176.805 1363.11 171.35C1366.25 169.341 1369.44 167.769 1372.81 166.186C1378.87 163.322 1383.45 159.869 1388.43 155.427C1394.5 150.051 1401.09 145.381 1409.44 145.311Z" fill="#D2DF60"/>
<path d="M1324.86 171.935C1327.42 173.807 1329.28 175.834 1331 178.498C1330.29 178.21 1329.58 177.923 1328.85 177.627C1326.04 176.514 1323.22 175.465 1320.38 174.435C1319.43 174.094 1318.49 173.752 1317.52 173.4C1306.43 169.433 1294.66 170.767 1284 175.498C1283.19 175.848 1282.38 176.199 1281.54 176.56C1272.94 180.781 1267.29 188.1 1263 196.498C1261.86 193.684 1261.96 192.596 1263.04 189.693C1269.1 177.952 1276.05 169.997 1288.88 165.56C1301.92 162.226 1313.68 164.903 1324.86 171.935Z" fill="#FEDF7C"/>
<path d="M1479 191.498C1478.53 195.69 1476.01 197.84 1473 200.498C1470.37 202.542 1467.66 204.458 1464.94 206.373C1457.07 211.972 1449.33 217.718 1441.64 223.56C1437.86 226.417 1434.15 229.191 1430 231.498C1429.67 230.178 1429.34 228.858 1429 227.498C1429.97 226.71 1430.94 225.923 1431.94 225.111C1432.58 224.592 1433.22 224.072 1433.88 223.536C1435.31 222.37 1436.75 221.205 1438.18 220.04C1441.84 217.07 1445.5 214.092 1449.13 211.092C1455.56 205.801 1462.03 200.596 1468.75 195.686C1469.32 195.259 1469.9 194.832 1470.48 194.392C1473.71 192.081 1474.88 191.498 1479 191.498Z" fill="#5C9C41"/>
<path d="M1367 80.498C1372.71 81.2123 1372.71 81.2122 1374 82.4979C1373.66 87.9207 1372.29 91.2085 1369.19 95.623C1368.5 96.6156 1367.81 97.6082 1367.11 98.6309C1365.14 101.313 1363.09 103.91 1361 106.498C1360.46 107.261 1359.93 108.024 1359.38 108.811C1358.92 109.367 1358.47 109.924 1358 110.498C1357.34 110.498 1356.68 110.498 1356 110.498C1357.05 101.406 1360.23 87.2693 1367 80.498Z" fill="#383334"/>
<path d="M1427 134.498C1428.65 134.828 1430.3 135.158 1432 135.498C1432.79 137.682 1432.79 137.682 1433 140.498C1431.09 143.033 1431.09 143.033 1428.38 145.561C1427.5 146.397 1426.62 147.234 1425.71 148.096C1418.49 154.498 1418.49 154.498 1415 154.498C1417.75 146.94 1422.1 140.786 1427 134.498Z" fill="#3C3938"/>
<path d="M1363 102.498C1370.29 105.738 1373.9 110.912 1378 117.498C1377.67 118.158 1377.34 118.818 1377 119.498C1376.44 118.967 1375.89 118.436 1375.31 117.889C1370.46 113.394 1366.07 110.145 1360 107.498C1360.99 105.848 1361.98 104.198 1363 102.498Z" fill="#EE5A51"/>
<path d="M1421 150.498C1424.83 151.952 1426.28 153.806 1428 157.498C1428.19 160.311 1428.19 160.311 1428 162.498C1427.54 162.16 1427.08 161.823 1426.61 161.475C1422.02 158.135 1422.02 158.135 1417 155.498C1418.32 153.848 1419.64 152.198 1421 150.498Z" fill="#CFDE5E"/>
<path d="M1276 178.498C1278.12 178.873 1278.12 178.873 1280 179.498C1279.67 181.148 1279.34 182.798 1279 184.498C1277.35 184.828 1275.7 185.158 1274 185.498C1273.88 183.123 1273.88 183.123 1274 180.498C1274.66 179.838 1275.32 179.178 1276 178.498Z" fill="#403B36"/>
<path d="M1363 171.498C1363.66 171.828 1364.32 172.158 1365 172.498C1361.37 176.128 1357.74 179.758 1354 183.498C1354 179.339 1356.25 177.353 1359 174.498C1361.31 172.623 1361.31 172.623 1363 171.498Z" fill="#C5DD5B"/>
<path d="M1277 171.498C1277.66 171.828 1278.32 172.158 1279 172.498C1275.37 176.128 1271.74 179.758 1268 183.498C1268 179.339 1270.25 177.353 1273 174.498C1275.31 172.623 1275.31 172.623 1277 171.498Z" fill="#FFD96B"/>
<path d="M1323 171.498C1328.75 175.123 1328.75 175.123 1331 178.498C1327.54 177.249 1324.85 175.823 1322 173.498C1322.33 172.838 1322.66 172.178 1323 171.498Z" fill="#FFDA67"/>
<path d="M1264 187.498C1264.99 188.158 1265.98 188.818 1267 189.498C1265.68 191.808 1264.36 194.118 1263 196.498C1261.97 193.71 1261.95 192.63 1262.94 189.748C1263.29 189.006 1263.64 188.263 1264 187.498Z" fill="#FFDB6B"/>
</g>
<path d="M-2586 355.037C-2585.43 356.519 -2584.86 358 -2583.14 358C-2581.43 358 -2576.85 352.074 -2575.14 352.074C-2571.71 353.556 -2568.85 352.074 -2564.85 350.593C-2563.7 350.593 -2563.13 356.518 -2561.99 356.518C-2561.42 356.518 -2560.84 356.518 -2560.27 356.518C-2559.7 356.518 -2555.7 350.593 -2554.55 350.593C-2552.84 350.593 -2549.98 350.593 -2548.27 350.593C-2546.55 350.593 -2545.41 352.074 -2544.26 352.074C-2537.97 355.037 -2538.55 356.519 -2535.69 355.037C-2529.97 352.074 -2523.68 346.148 -2517.96 349.111C-2512.82 352.074 -2509.96 349.111 -2508.24 347.63C-2504.81 346.148 -2503.1 352.074 -2499.1 352.074C-2494.52 352.074 -2489.95 347.63 -2485.37 347.63C-2483.09 347.63 -2480.8 347.63 -2478.51 347.63C-2476.8 347.63 -2474.51 349.111 -2472.8 349.111C-2471.08 349.111 -2468.79 349.111 -2466.51 347.63C-2465.93 347.63 -2464.22 349.111 -2463.08 347.63C-2460.22 343.185 -2457.93 352.074 -2454.5 352.074C-2452.21 352.074 -2451.64 346.148 -2448.78 346.148C-2441.92 346.148 -2439.63 353.556 -2433.35 347.63C-2429.34 343.185 -2424.77 346.148 -2420.77 347.63C-2417.34 349.111 -2415.62 350.593 -2412.19 350.593C-2411.05 350.593 -2409.9 353.556 -2408.76 353.556C-2406.47 353.556 -2403.61 347.63 -2401.33 347.63C-2399.61 347.63 -2396.75 347.63 -2394.47 347.63C-2391.04 347.63 -2391.61 353.556 -2388.18 355.037C-2384.75 355.037 -2377.89 350.593 -2375.03 352.074C-2372.74 352.074 -2369.88 350.593 -2367.6 349.111C-2360.16 346.148 -2363.02 343.185 -2353.3 347.63C-2350.44 349.111 -2349.3 344.667 -2346.44 344.667C-2341.87 344.667 -2340.15 353.556 -2336.15 352.074C-2332.72 350.593 -2324.71 343.185 -2320.71 343.185C-2318.43 343.185 -2317.85 347.63 -2315.57 347.63C-2312.14 349.111 -2310.99 347.63 -2307.56 346.148C-2304.7 344.667 -2301.27 350.593 -2298.99 349.111C-2288.12 341.704 -2288.69 349.111 -2280.12 350.593C-2274.97 352.074 -2272.11 347.63 -2266.97 344.667C-2263.54 343.185 -2256.68 349.111 -2252.68 349.111C-2248.67 349.111 -2246.96 346.148 -2242.96 347.63C-2238.38 349.111 -2237.81 352.074 -2232.66 347.63C-2226.95 343.185 -2229.81 347.63 -2222.94 350.593C-2219.51 352.074 -2217.8 346.148 -2214.37 346.148C-2213.23 346.148 -2208.08 343.185 -2206.36 343.185C-2202.36 344.667 -2200.65 347.63 -2196.64 347.63C-2193.79 347.63 -2188.07 349.111 -2185.21 347.63C-2179.49 344.667 -2182.35 338.741 -2176.63 343.185C-2174.92 344.667 -2171.49 349.111 -2170.34 349.111C-2161.77 355.037 -2162.34 347.63 -2159.48 344.667C-2158.34 343.185 -2157.19 344.667 -2151.48 344.667C-2143.47 344.667 -2147.47 340.222 -2140.04 341.704C-2137.76 341.704 -2135.47 346.148 -2132.61 346.148C-2129.75 346.148 -2123.46 341.704 -2120.6 341.704C-2118.32 341.704 -2116.03 341.704 -2113.74 341.704C-2112.03 341.704 -2109.74 340.222 -2107.45 340.222C-2104.02 340.222 -2102.88 344.667 -2099.45 346.148C-2096.59 347.63 -2095.45 343.185 -2092.59 343.185C-2091.44 343.185 -2089.16 344.667 -2088.59 344.667C-2088.01 344.667 -2083.44 346.148 -2083.44 343.185C-2083.44 341.704 -2080.01 340.222 -2079.44 340.222C-2077.72 340.222 -2074.86 343.185 -2073.15 341.704C-2070.86 340.222 -2068 337.259 -2065.72 338.741C-2063.43 340.222 -2060 346.148 -2058.86 346.148C-2056.57 346.148 -2051.42 347.63 -2049.71 346.148C-2047.42 344.667 -2046.85 341.704 -2044.56 340.222C-2043.42 338.741 -2038.84 344.667 -2037.7 344.667C-2036.56 343.185 -2029.7 338.741 -2027.98 338.741C-2020.55 343.185 -2027.41 346.148 -2018.83 346.148C-2014.26 346.148 -2009.69 344.667 -2005.11 343.185C-2003.97 343.185 -2002.82 347.63 -2001.68 346.148C-2001.11 346.148 -1999.39 341.704 -1998.25 341.704C-1996.54 341.704 -1993.68 344.667 -1991.96 343.185C-1987.96 343.185 -1987.96 335.778 -1985.1 337.259C-1982.24 337.259 -1975.95 344.667 -1973.09 344.667C-1969.66 344.667 -1967.38 341.704 -1963.95 341.704C-1962.23 341.704 -1959.94 343.185 -1957.66 344.667C-1950.22 347.63 -1954.23 343.185 -1947.94 340.222C-1944.51 338.741 -1942.22 343.185 -1938.22 343.185C-1934.22 343.185 -1930.21 337.259 -1926.21 340.222C-1923.35 343.185 -1919.92 344.667 -1917.06 346.148C-1908.49 349.111 -1901.63 338.741 -1892.48 346.148C-1890.19 347.63 -1885.62 341.704 -1883.33 340.222C-1879.33 340.222 -1878.76 346.148 -1874.75 346.148C-1872.47 346.148 -1867.89 340.222 -1865.04 341.704C-1862.18 343.185 -1861.03 338.741 -1858.17 338.741C-1857.03 338.741 -1850.17 344.667 -1849.6 343.185C-1849.03 343.185 -1845.6 338.741 -1845.02 338.741C-1843.88 338.741 -1843.31 343.185 -1842.17 343.185C-1839.31 343.185 -1837.02 343.185 -1834.16 341.704C-1829.59 337.259 -1824.44 343.185 -1819.87 343.185C-1808.43 343.185 -1814.72 344.667 -1806.15 346.148C-1803.29 346.148 -1801 347.63 -1797.57 347.63C-1791.28 347.63 -1787.85 343.185 -1782.13 340.222C-1777.56 337.259 -1776.99 346.148 -1772.41 347.63C-1767.27 349.111 -1761.55 344.667 -1759.26 346.148C-1757.55 346.148 -1755.83 346.148 -1754.12 347.63C-1751.26 347.63 -1748.97 347.63 -1746.69 349.111C-1744.4 349.111 -1742.11 350.593 -1739.82 349.111C-1738.68 349.111 -1737.54 349.111 -1736.39 346.148C-1735.82 344.667 -1734.11 344.667 -1733.53 343.185C-1732.96 341.704 -1727.25 340.222 -1726.1 340.222C-1721.53 340.222 -1714.1 346.148 -1709.52 347.63C-1704.95 349.111 -1703.23 344.667 -1698.66 344.667C-1696.94 344.667 -1695.8 344.667 -1694.66 344.667C-1692.37 344.667 -1688.94 344.667 -1686.65 343.185C-1683.79 341.704 -1680.93 341.704 -1677.5 340.222C-1666.64 335.778 -1670.07 340.222 -1662.64 344.667C-1658.64 347.63 -1655.78 349.111 -1651.78 347.63C-1649.49 346.148 -1648.35 346.148 -1646.06 344.667C-1640.91 341.704 -1639.77 338.741 -1635.2 341.704C-1632.34 343.185 -1627.76 343.185 -1622.62 344.667C-1620.33 346.148 -1615.18 344.667 -1612.9 344.667C-1608.9 344.667 -1605.46 343.185 -1602.03 343.185C-1600.89 343.185 -1599.75 343.185 -1599.18 343.185C-1598.6 343.185 -1598.6 343.185 -1598.03 343.185C-1597.46 343.185 -1597.46 343.185 -1596.89 344.667C-1595.17 346.148 -1593.46 346.148 -1591.74 346.148H-1591.17C-1590.03 344.667 -1588.31 343.185 -1587.74 343.185C-1586.03 343.185 -1583.17 343.185 -1581.45 343.185C-1579.74 343.185 -1578.59 344.667 -1577.45 344.667C-1571.16 347.63 -1571.73 349.111 -1568.87 347.63C-1563.16 344.667 -1556.87 338.741 -1551.15 341.704C-1546 344.667 -1543.15 341.704 -1541.43 340.222C-1538 338.741 -1536.28 344.667 -1532.28 344.667C-1527.71 344.667 -1523.13 340.222 -1518.56 340.222C-1516.27 340.222 -1513.99 340.222 -1511.7 340.222C-1509.98 340.222 -1507.7 341.704 -1505.98 341.704C-1504.27 341.704 -1501.98 341.704 -1499.69 340.222C-1499.12 340.222 -1497.41 341.704 -1496.26 340.222C-1493.4 335.778 -1491.12 344.667 -1487.69 344.667C-1485.4 344.667 -1484.83 338.741 -1481.97 338.741C-1475.11 338.741 -1472.82 346.148 -1466.53 340.222C-1462.53 335.778 -1457.96 338.741 -1453.95 340.222C-1450.52 341.704 -1448.81 343.185 -1445.38 343.185C-1444.23 343.185 -1443.09 346.148 -1441.95 346.148C-1439.66 346.148 -1436.8 340.222 -1434.51 340.222C-1432.8 340.222 -1429.94 340.222 -1427.65 340.222C-1424.22 340.222 -1424.79 346.148 -1421.36 347.63C-1417.93 347.63 -1411.07 343.185 -1408.21 344.667C-1405.93 344.667 -1403.07 343.185 -1400.78 341.704C-1393.35 338.741 -1396.21 335.778 -1386.49 340.222C-1383.63 341.704 -1382.49 337.259 -1379.63 337.259C-1375.05 337.259 -1373.34 346.148 -1369.34 344.667C-1365.91 343.185 -1357.9 335.778 -1353.9 335.778C-1351.61 335.778 -1351.04 340.222 -1348.75 340.222C-1345.32 341.704 -1344.18 340.222 -1340.75 338.741C-1337.89 337.259 -1334.46 343.185 -1332.17 341.704C-1321.31 334.296 -1321.88 341.704 -1313.31 343.185C-1308.16 344.667 -1305.3 340.222 -1300.16 337.259C-1296.72 335.778 -1289.86 341.704 -1285.86 341.704C-1281.86 341.704 -1280.14 338.741 -1276.14 340.222C-1271.57 341.704 -1271 344.667 -1265.85 340.222C-1260.13 335.778 -1262.99 340.222 -1256.13 343.185C-1252.7 344.667 -1250.99 338.741 -1247.56 338.741C-1246.41 338.741 -1241.27 335.778 -1239.55 335.778C-1235.55 337.259 -1233.83 340.222 -1229.83 340.222C-1226.97 340.222 -1221.26 341.704 -1218.4 340.222C-1212.68 337.259 -1215.54 331.333 -1209.82 335.778C-1208.11 337.259 -1204.68 341.704 -1203.53 341.704C-1194.96 347.63 -1195.53 340.222 -1192.67 337.259C-1191.52 335.778 -1190.38 337.259 -1184.66 337.259C-1176.66 337.259 -1180.66 332.815 -1173.23 334.296C-1170.94 334.296 -1168.65 338.741 -1165.8 338.741C-1162.94 338.741 -1156.65 334.296 -1153.79 334.296C-1151.5 334.296 -1149.22 334.296 -1146.93 334.296C-1145.21 334.296 -1142.93 332.815 -1140.64 332.815C-1137.21 332.815 -1136.07 337.259 -1132.64 338.741C-1129.78 340.222 -1128.63 335.778 -1125.77 335.778C-1124.63 335.778 -1122.34 337.259 -1121.77 337.259C-1120.63 337.259 -1116.63 338.741 -1116.63 335.778C-1116.63 334.296 -1113.2 332.815 -1112.62 332.815C-1110.91 332.815 -1108.05 335.778 -1106.34 334.296C-1104.05 332.815 -1101.19 329.852 -1098.9 331.333C-1096.62 332.815 -1093.19 338.741 -1092.04 338.741C-1089.76 338.741 -1084.61 340.222 -1082.89 338.741C-1080.61 337.259 -1080.04 334.296 -1077.75 332.815C-1076.61 331.333 -1072.03 337.259 -1070.89 337.259C-1069.74 335.778 -1062.88 331.333 -1061.17 331.333C-1053.74 335.778 -1060.6 338.741 -1052.02 338.741C-1047.45 338.741 -1042.87 337.259 -1038.3 335.778C-1037.15 335.778 -1036.01 340.222 -1034.87 338.741C-1034.3 338.741 -1032.58 334.296 -1031.44 334.296C-1029.72 334.296 -1026.86 337.259 -1025.15 335.778C-1021.15 335.778 -1021.15 328.37 -1018.29 329.852C-1015.43 329.852 -1009.14 337.259 -1006.28 337.259C-1002.85 337.259 -1000.56 334.296 -997.133 334.296C-995.417 334.296 -993.13 335.778 -990.844 337.259C-983.411 340.222 -987.413 335.778 -981.124 332.815C-977.694 331.333 -975.406 335.778 -971.404 335.778C-967.402 335.778 -963.4 329.852 -959.398 332.815C-956.539 335.778 -953.109 337.259 -950.25 338.741C-941.674 341.704 -934.813 331.333 -925.665 338.741C-923.378 340.222 -918.804 334.296 -916.517 332.815C-912.515 332.815 -911.943 338.741 -907.941 338.741C-905.654 338.741 -901.081 332.815 -898.222 334.296C-895.363 335.778 -894.219 331.333 -891.361 331.333C-890.217 331.333 -883.356 337.259 -882.784 335.778C-882.213 335.778 -878.783 331.333 -878.211 331.333C-877.068 331.333 -876.496 335.778 -875.352 335.778C-872.494 335.778 -870.206 335.778 -867.348 334.296C-862.774 329.852 -857.628 335.778 -853.054 335.778C-841.619 335.778 -847.908 337.259 -839.332 338.741C-836.474 338.741 -834.187 340.222 -830.756 340.222C-824.467 340.222 -821.037 335.778 -815.319 332.815C-810.746 329.852 -810.173 338.741 -805.599 340.222C-800.454 341.704 -794.737 337.259 -792.45 338.741C-790.735 338.741 -789.019 338.741 -787.304 340.222C-784.445 340.222 -782.158 340.222 -779.871 341.704C-777.584 341.704 -775.297 343.185 -773.01 341.704C-771.867 341.704 -770.724 341.704 -769.58 338.741C-769.009 337.259 -767.293 337.259 -766.722 335.778C-766.15 334.296 -760.432 332.815 -759.289 332.815C-754.715 332.815 -747.282 338.741 -742.708 340.222C-738.134 341.704 -736.419 337.259 -731.845 337.259C-730.13 337.259 -728.986 337.259 -727.843 337.259C-725.556 337.259 -722.125 337.259 -719.838 335.778C-716.98 334.296 -714.121 334.296 -710.691 332.815C-699.828 328.37 -703.258 332.815 -695.826 337.259C-691.823 340.222 -688.964 341.704 -684.962 340.222C-682.675 338.741 -681.532 338.741 -679.245 337.259C-674.099 334.296 -672.956 331.333 -668.382 334.296C-665.523 335.778 -660.949 335.778 -655.804 337.259C-653.517 338.741 -648.371 337.259 -646.084 337.259C-642.082 337.259 -638.652 335.778 -635.221 335.778C-631.791 335.778 -628.932 338.741 -625.501 338.741C-624.358 337.259 -622.643 335.778 -622.071 337.259C-618.64 338.741 -615.782 337.259 -611.78 335.778C-610.636 335.778 -610.065 341.704 -608.921 341.704C-608.349 341.704 -607.777 341.704 -607.206 341.704C-606.634 341.704 -602.632 335.778 -601.488 335.778C-599.773 335.778 -596.915 335.778 -595.199 335.778C-593.484 335.778 -592.34 337.259 -591.197 337.259C-584.908 340.222 -585.479 341.704 -582.621 340.222C-576.903 337.259 -570.614 331.333 -564.897 334.296C-559.751 337.259 -556.893 334.296 -555.177 332.815C-551.747 331.333 -550.032 337.259 -546.03 337.259C-541.456 337.259 -536.882 332.815 -532.308 332.815C-530.021 332.815 -527.734 332.815 -525.447 332.815C-523.731 332.815 -521.444 334.296 -519.729 334.296C-518.014 334.296 -515.727 334.296 -513.44 332.815C-512.868 332.815 -511.153 334.296 -510.01 332.815C-507.151 328.37 -504.864 337.259 -501.434 337.259C-499.147 337.259 -498.575 331.333 -495.716 331.333C-488.855 331.333 -486.569 338.741 -480.28 332.815C-476.277 328.37 -471.703 331.333 -467.701 332.815C-464.271 334.296 -462.555 335.778 -459.125 335.778C-457.981 335.778 -456.838 338.741 -455.694 338.741C-453.408 338.741 -450.549 332.815 -448.262 332.815C-446.546 332.815 -443.688 332.815 -441.401 332.815C-437.971 332.815 -438.542 338.741 -435.112 340.222C-431.682 340.222 -424.82 335.778 -421.962 337.259C-419.675 337.259 -416.816 335.778 -414.529 334.296C-407.097 331.333 -409.956 328.37 -400.236 332.815C-397.377 334.296 -396.233 329.852 -393.375 329.852C-388.801 329.852 -387.086 338.741 -383.084 337.259C-379.653 335.778 -371.648 328.37 -367.646 328.37C-365.359 328.37 -364.787 332.815 -362.5 332.815C-359.07 334.296 -357.927 332.815 -354.497 331.333C-351.638 329.852 -348.208 335.778 -345.921 334.296C-335.057 326.889 -335.629 334.296 -327.053 335.778C-321.907 337.259 -319.048 332.815 -313.903 329.852C-310.472 328.37 -303.611 334.296 -299.609 334.296C-295.607 334.296 -293.892 331.333 -289.89 332.815C-285.316 334.296 -284.744 337.259 -279.598 332.815C-273.881 328.37 -276.74 332.815 -269.879 335.778C-266.448 337.259 -264.733 331.333 -261.303 331.333C-260.159 331.333 -255.013 328.37 -253.298 328.37C-249.296 329.852 -247.581 332.815 -243.579 332.815C-240.72 332.815 -235.003 334.296 -232.144 332.815C-226.427 329.852 -229.285 323.926 -223.568 328.37C-221.853 329.852 -218.422 334.296 -217.279 334.296C-208.703 340.222 -209.274 332.815 -206.416 329.852C-205.272 328.37 -204.129 329.852 -198.411 329.852C-190.407 329.852 -194.409 325.407 -186.976 326.889C-184.689 326.889 -182.402 331.333 -179.544 331.333C-176.685 331.333 -170.396 326.889 -167.537 326.889C-165.25 326.889 -162.963 326.889 -160.676 326.889C-158.961 326.889 -156.674 325.407 -154.387 325.407C-150.957 325.407 -149.813 329.852 -146.383 331.333C-143.524 332.815 -142.38 328.37 -139.522 328.37C-138.378 328.37 -136.091 329.852 -135.52 329.852C-134.948 329.852 -130.374 331.333 -130.374 328.37C-130.374 326.889 -126.944 325.407 -126.372 325.407C-124.657 325.407 -121.798 328.37 -120.083 326.889C-117.796 325.407 -114.937 322.444 -112.65 323.926C-110.363 325.407 -106.933 331.333 -105.789 331.333C-103.503 331.333 -98.3563 332.815 -96.6411 331.333C-94.3541 329.852 -93.783 326.889 -91.496 325.407C-90.3525 323.926 -85.7782 329.852 -84.6347 329.852C-83.4912 328.37 -76.6306 323.926 -74.9154 323.926C-67.4827 328.37 -74.3438 331.333 -65.7676 331.333C-61.1937 331.333 -56.6197 329.852 -52.0458 328.37C-50.9023 328.37 -49.7589 332.815 -48.6155 331.333C-48.0437 331.333 -46.3279 326.889 -45.1844 326.889C-43.4692 326.889 -40.6107 329.852 -38.8954 328.37C-34.8932 328.37 -34.8936 320.963 -32.0349 322.444C-29.1761 322.444 -22.8871 329.852 -20.0284 329.852C-16.598 329.852 -14.3104 326.889 -10.88 326.889C-9.16479 326.889 -6.87799 328.37 -4.591 329.852C2.84161 332.815 -1.16083 328.37 5.1283 325.407C8.55878 323.926 10.8461 328.37 14.8483 328.37C18.8505 328.37 22.8525 322.444 26.8547 325.407C29.7134 328.37 33.1437 329.852 36.0024 331.333C44.5786 334.296 51.4397 323.926 60.5876 331.333C62.8745 332.815 67.4483 326.889 69.7353 325.407C73.7375 325.407 74.3092 331.333 78.3114 331.333C80.5983 331.333 85.172 325.407 88.0307 326.889C90.8894 328.37 92.0333 323.926 94.892 323.926C96.0355 323.926 102.896 329.852 103.468 328.37C104.04 328.37 107.47 323.926 108.042 323.926C109.185 323.926 109.757 328.37 110.9 328.37C113.759 328.37 116.046 328.37 118.905 326.889C123.479 322.444 128.624 328.37 133.198 328.37C144.633 328.37 138.344 329.852 146.92 331.333C149.779 331.333 152.066 332.815 155.496 332.815C161.786 332.815 165.216 328.37 170.933 325.407C175.507 322.444 176.079 331.333 180.653 332.815C185.799 334.296 191.516 329.852 193.803 331.333C195.518 331.333 197.233 331.333 198.949 332.815C201.807 332.815 204.094 332.815 206.381 334.296C208.668 334.296 210.955 335.778 213.242 334.296C214.385 334.296 215.529 334.296 216.672 331.333C217.244 329.852 218.959 329.852 219.531 328.37C220.103 326.889 225.82 325.407 226.964 325.407C231.538 325.407 238.971 331.333 243.545 332.815C248.118 334.296 249.833 329.852 254.407 329.852C256.122 329.852 257.266 329.852 258.41 329.852C260.697 329.852 264.127 329.852 266.414 328.37C269.273 326.889 272.131 326.889 275.562 325.407C286.425 320.963 282.994 325.407 290.427 329.852C294.429 332.815 297.288 334.296 301.29 332.815C303.577 331.333 304.721 331.333 307.008 329.852C312.153 326.889 313.297 323.926 317.871 326.889C320.73 328.37 325.303 328.37 330.449 329.852C332.736 331.333 337.881 329.852 340.168 329.852C344.17 329.852 347.601 328.37 351.031 328.37C352.175 328.37 353.318 328.37 353.89 328.37C354.462 328.37 354.462 328.37 355.034 328.37C355.606 328.37 355.605 328.37 356.177 329.852C357.892 331.333 359.608 331.333 361.323 331.333H361.895C363.038 329.852 364.753 328.37 365.325 328.37C367.04 328.37 369.899 328.37 371.614 328.37C373.329 328.37 374.473 329.852 375.617 329.852C381.906 332.815 381.334 334.296 384.193 332.815C389.91 329.852 396.199 323.926 401.916 326.889C407.062 329.852 409.921 326.889 411.636 325.407C415.066 323.926 416.782 329.852 420.784 329.852C425.358 329.852 429.931 325.407 434.505 325.407C436.792 325.407 439.08 325.407 441.367 325.407C443.082 325.407 445.369 326.889 447.084 326.889C448.799 326.889 451.086 326.889 453.373 325.407C453.945 325.407 455.66 326.889 456.803 325.407C459.662 320.963 461.949 329.852 465.38 329.852C467.666 329.852 468.238 323.926 471.097 323.926C477.958 323.926 480.245 331.333 486.534 325.407C490.537 320.963 495.11 323.926 499.112 325.407C502.543 326.889 504.258 328.37 507.688 328.37C508.832 328.37 509.975 331.333 511.119 331.333C513.406 331.333 516.265 325.407 518.552 325.407C520.267 325.407 523.125 325.407 525.412 325.407C528.843 325.407 528.271 331.333 531.701 332.815C535.132 332.815 541.993 328.37 544.852 329.852C547.139 329.852 549.998 328.37 552.285 326.889C559.717 323.926 556.858 320.963 566.578 325.407C569.437 326.889 570.58 322.444 573.439 322.444C578.013 322.444 579.728 331.333 583.73 329.852C587.161 328.37 595.165 320.963 599.167 320.963C601.454 320.963 602.026 325.407 604.313 325.407C607.743 326.889 608.887 325.407 612.317 323.926C615.176 322.444 618.606 328.37 620.893 326.889C631.756 319.481 631.184 326.889 639.76 328.37C644.906 329.852 647.765 325.407 652.911 322.444C656.341 320.963 663.202 326.889 667.204 326.889C671.206 326.889 672.921 323.926 676.924 325.407C681.497 326.889 682.069 329.852 687.215 325.407C692.933 320.963 690.074 325.407 696.934 328.37C700.365 329.852 702.08 323.926 705.511 323.926C706.654 323.926 711.8 320.963 713.515 320.963C717.517 322.444 719.232 325.407 723.234 325.407C726.093 325.407 731.811 326.889 734.669 325.407C740.387 322.444 737.528 316.519 743.245 320.963C744.961 322.444 748.392 326.889 749.535 326.889C758.111 332.815 757.539 325.407 760.398 322.444C761.541 320.963 762.685 322.444 768.402 322.444C776.406 322.444 772.404 318 779.837 319.481C782.124 319.481 784.411 323.926 787.27 323.926C790.128 323.926 796.417 319.481 799.276 319.481C801.563 319.481 803.85 319.481 806.137 319.481C807.852 319.481 810.14 318 812.426 318C814.713 318 815.857 319.481 817 320.963V349.111H-623.786H-640.939H-2585.43V355.037H-2586Z" fill="#A4C858"/>
<path d="M-2579.15 516H-637.108H-619.987H817V485.565C817 484.044 814.717 484.043 814.717 484.043C813.005 484.043 811.864 484.043 810.152 484.043C807.869 482.522 805.016 481 802.733 484.043C800.45 485.565 795.314 491.652 794.173 491.652C791.89 491.652 786.754 493.174 785.042 491.652C782.759 490.13 779.335 487.087 777.052 485.565C775.911 484.044 774.769 484.044 773.628 482.522C772.487 481 769.633 481 767.921 482.522C760.502 487.087 762.214 491.652 754.225 491.652C749.659 491.652 745.093 490.13 740.528 488.609C739.387 488.609 738.816 488.609 737.675 487.087C737.104 487.087 734.821 487.087 733.68 487.087C731.968 487.087 730.256 485.565 728.544 485.565C724.549 485.565 720.554 481 717.701 481C714.847 481 712.564 487.087 709.711 487.087C706.287 487.087 702.292 487.087 698.868 487.087C697.156 487.087 694.873 488.609 692.59 490.13C685.171 493.174 689.166 488.609 682.889 485.565C679.465 484.044 675.47 482.522 671.475 482.522C667.48 482.522 665.198 482.522 661.774 487.087C658.92 490.13 655.496 491.652 652.642 493.174C644.082 496.217 634.951 488.609 626.391 488.609C624.108 488.609 621.255 487.087 618.972 487.087C614.977 487.087 612.124 487.087 608.129 487.087C605.846 487.087 603.563 487.087 601.28 488.609C598.427 490.13 595.574 490.13 592.72 490.13C591.579 490.13 587.014 491.652 585.872 490.13C585.302 490.13 583.019 490.13 582.448 488.609C581.307 488.609 579.594 488.609 578.453 488.609C575.6 488.609 573.317 488.609 570.464 487.087C565.898 482.522 564.757 482.522 559.621 482.522C548.207 482.522 550.49 490.13 542.5 491.652C539.647 491.652 537.364 493.174 533.94 493.174C527.662 493.174 524.238 488.609 518.531 485.565C513.966 482.522 511.112 482.522 507.117 484.043C501.981 485.565 497.986 490.13 495.704 491.652C493.992 491.652 492.28 491.652 490.568 493.174C487.715 493.174 485.432 493.174 483.149 494.696C480.866 494.696 478.584 496.217 476.301 494.696C475.159 494.696 474.018 494.696 472.876 491.652C472.305 490.13 470.593 490.13 470.023 488.609C469.452 487.087 463.746 485.565 462.604 485.565C458.609 485.565 454.615 487.087 450.62 487.087C449.479 487.087 446.625 487.087 446.054 488.609C445.483 490.13 443.771 488.609 443.201 490.13C440.347 490.13 438.064 491.652 435.211 491.652C433.499 491.652 432.358 491.652 431.216 491.652C428.934 491.652 425.509 491.652 423.227 490.13C420.373 488.609 417.52 488.609 414.096 487.087C403.253 482.522 406.677 487.087 399.258 491.652C395.263 494.696 392.41 496.217 388.415 494.696C386.132 493.174 384.991 493.174 382.708 491.652C377.572 488.609 371.865 484.043 366.729 487.087C363.875 488.609 363.876 490.13 359.31 493.174C358.74 493.174 357.598 493.174 355.886 493.174C354.173 491.652 352.462 490.13 349.608 491.652C348.467 491.652 346.755 491.652 345.614 493.174C343.331 493.174 340.477 491.652 338.194 491.652C337.053 491.652 335.912 491.652 335.341 491.652C334.77 491.652 334.771 491.652 334.2 491.652C333.059 491.652 332.488 491.652 331.346 490.13C330.776 490.13 330.205 490.13 329.634 490.13C329.063 490.13 325.069 491.652 323.927 491.652C322.215 491.652 319.362 491.652 317.65 491.652C315.938 491.652 312.514 491.652 310.802 491.652C304.524 494.696 305.095 493.174 299.959 490.13C294.252 485.565 292.54 488.609 286.833 493.174C281.697 496.217 278.843 493.174 277.131 491.652C273.707 490.13 271.425 490.13 268 490.13C263.435 490.13 258.869 491.652 254.304 491.652C252.021 491.652 249.738 491.652 247.455 491.652C245.743 491.652 243.46 493.174 241.748 493.174C240.036 493.174 237.754 493.174 235.471 491.652C234.9 491.652 233.188 493.174 232.047 491.652C229.194 487.087 228.052 488.609 224.628 490.13C222.345 490.13 220.633 490.13 217.78 490.13C210.932 490.13 208.649 497.739 202.372 491.652C198.377 487.087 193.811 490.13 189.816 491.652C186.392 493.174 184.68 494.696 181.256 494.696C180.114 494.696 177.261 491.652 176.12 491.652C173.837 491.652 172.125 491.652 169.842 491.652C168.13 491.652 165.277 491.652 162.994 491.652C159.57 491.652 156.716 491.652 153.292 491.652C149.868 491.652 146.444 494.696 143.591 496.217C141.308 496.217 138.454 494.696 136.172 493.174C128.753 490.13 131.606 487.087 121.904 491.652C119.051 493.174 116.198 494.696 113.344 494.696C108.779 494.696 106.496 493.174 102.502 491.652C99.0775 490.13 95.0825 490.13 91.6584 490.13C89.3757 490.13 86.522 491.652 84.2392 493.174C80.8151 494.696 78.5327 496.217 74.5378 494.696C71.6844 493.174 70.5426 488.609 67.6892 487.087C56.8461 479.478 56.8467 494.696 48.2864 496.217C43.1503 497.739 36.8726 496.217 31.7364 494.696C28.3123 493.174 26.5998 490.13 22.0343 490.13C18.0395 490.13 14.6154 491.652 10.6206 493.174C6.05511 494.696 5.48486 497.739 0.348694 493.174C-5.35822 488.609 -3.07587 490.13 -9.35339 491.652C-12.7775 493.174 -13.9183 491.652 -17.3425 491.652C-18.4838 491.652 -20.7667 493.174 -22.4788 493.174C-26.4736 494.696 -31.0395 494.696 -35.0343 493.174C-37.8877 493.174 -42.4528 491.652 -45.3062 490.13C-51.0131 487.087 -52.1543 488.609 -57.2905 493.174C-59.0025 494.696 -60.1443 496.217 -61.2857 496.217C-73.8408 505.348 -68.1339 491.652 -84.1131 491.652C-92.1027 491.652 -86.9661 490.13 -94.3851 493.174C-96.6678 493.174 -99.5214 494.696 -102.375 494.696C-105.228 494.696 -107.511 491.652 -110.935 491.652C-113.218 491.652 -115.501 491.652 -117.784 491.652C-119.496 491.652 -121.778 490.13 -124.061 490.13C-127.485 490.13 -129.768 493.174 -133.192 493.174C-136.045 494.696 -138.328 493.174 -141.182 493.174C-142.323 493.174 -142.323 493.174 -143.465 493.174C-144.035 493.174 -149.742 491.652 -149.742 490.13C-149.742 488.609 -151.454 488.609 -152.025 488.609C-153.737 488.609 -154.878 488.609 -156.59 488.609C-158.873 487.087 -161.726 485.565 -164.009 488.609C-166.292 490.13 -171.428 496.217 -172.569 496.217C-174.852 496.217 -179.988 497.739 -181.7 496.217C-183.983 494.696 -187.407 491.652 -189.69 490.13C-190.831 488.609 -191.973 488.609 -193.114 487.087C-194.255 485.565 -197.109 485.565 -198.821 487.087C-206.24 491.652 -204.528 496.217 -212.517 496.217C-217.083 496.217 -221.649 494.696 -226.214 493.174C-227.355 493.174 -227.926 493.174 -229.068 491.652C-229.638 491.652 -231.921 491.652 -233.062 491.652C-234.774 491.652 -236.486 490.13 -238.198 490.13C-242.193 490.13 -246.188 485.565 -249.042 485.565C-251.895 485.565 -254.177 491.652 -257.031 491.652C-260.455 491.652 -264.45 491.652 -267.874 491.652C-269.586 491.652 -271.868 493.174 -274.151 494.696C-281.57 497.739 -277.576 493.174 -283.853 490.13C-287.277 488.609 -291.272 487.087 -295.267 487.087C-299.262 487.087 -301.544 487.087 -304.968 491.652C-307.822 494.696 -311.246 496.217 -314.099 497.739C-322.659 500.783 -331.791 493.174 -340.351 493.174C-342.634 493.174 -345.487 491.652 -347.77 491.652C-351.765 491.652 -354.618 491.652 -358.613 491.652C-360.896 491.652 -363.178 491.652 -365.461 493.174C-368.314 494.696 -371.168 494.696 -374.021 494.696C-375.162 494.696 -379.728 496.217 -380.87 494.696C-381.44 494.696 -383.723 494.696 -384.294 493.174C-385.435 493.174 -387.147 493.174 -388.288 493.174C-391.142 493.174 -393.425 493.174 -396.278 491.652C-400.844 487.087 -401.985 487.087 -407.121 487.087C-418.535 487.087 -416.252 494.696 -424.242 496.217C-427.095 496.217 -429.378 497.739 -432.802 497.739C-439.08 497.739 -442.503 493.174 -448.21 490.13C-452.776 487.087 -455.629 487.087 -459.624 488.609C-464.76 490.13 -468.755 494.696 -471.038 496.217C-472.75 496.217 -474.462 496.217 -476.174 497.739C-479.027 497.739 -481.31 497.739 -483.593 499.261C-485.876 499.261 -488.158 500.783 -490.441 499.261C-491.583 499.261 -492.724 499.261 -493.865 496.217C-494.436 494.696 -496.148 494.696 -496.719 493.174C-497.289 491.652 -502.996 490.13 -504.138 490.13C-508.133 490.13 -512.127 491.652 -516.122 491.652C-517.263 491.652 -520.117 491.652 -520.688 493.174C-521.259 494.696 -522.971 493.174 -523.541 494.696C-526.395 494.696 -528.677 496.217 -531.531 496.217C-533.243 496.217 -534.384 496.217 -535.526 496.217C-537.808 496.217 -541.233 496.217 -543.515 494.696C-546.369 493.174 -549.222 493.174 -552.646 491.652C-563.489 487.087 -560.065 491.652 -567.484 496.217C-571.479 499.261 -574.332 500.783 -578.327 499.261C-580.61 497.739 -581.751 497.739 -584.034 496.217C-589.17 493.174 -594.877 488.609 -600.013 491.652C-602.867 493.174 -602.866 494.696 -607.432 497.739C-609.714 499.261 -614.851 497.739 -617.134 497.739C-621.129 497.739 -624.552 496.217 -627.976 496.217C-629.118 496.217 -630.83 496.217 -631.972 497.739C-633.113 497.739 -634.254 496.217 -635.966 496.217C-637.678 496.217 -639.39 496.217 -641.673 497.739C-645.097 499.261 -647.951 497.739 -651.946 496.217C-653.087 496.217 -653.658 496.217 -654.799 494.696C-655.37 494.696 -655.94 494.696 -656.511 494.696C-657.081 494.696 -661.076 496.217 -662.218 496.217C-663.93 496.217 -666.784 496.217 -668.496 496.217C-670.208 496.217 -673.631 496.217 -675.344 496.217C-681.621 499.261 -681.051 497.739 -686.187 494.696C-691.894 490.13 -693.605 493.174 -699.312 497.739C-704.448 500.783 -707.302 497.739 -709.014 496.217C-712.438 494.696 -714.721 494.696 -718.145 494.696C-722.71 494.696 -727.276 496.217 -731.842 496.217C-734.124 496.217 -736.407 496.217 -738.69 496.217C-740.402 496.217 -742.684 497.739 -744.396 497.739C-746.108 497.739 -748.391 497.739 -750.674 496.217C-751.245 496.217 -752.957 497.739 -754.099 496.217C-756.952 491.652 -758.093 493.174 -761.517 494.696C-763.8 494.696 -765.512 494.696 -768.366 494.696C-775.214 494.696 -777.496 502.304 -783.774 496.217C-787.769 491.652 -792.334 494.696 -796.329 496.217C-799.753 497.739 -801.465 499.261 -804.889 499.261C-806.03 499.261 -808.884 496.217 -810.025 496.217C-812.308 496.217 -814.02 496.217 -816.303 496.217C-818.015 496.217 -820.869 496.217 -823.151 496.217C-826.575 496.217 -829.429 496.217 -832.853 496.217C-836.277 496.217 -839.701 499.261 -842.555 500.783C-844.838 500.783 -847.691 499.261 -849.973 497.739C-857.392 494.696 -854.539 491.652 -864.24 496.217C-867.094 497.739 -869.947 499.261 -872.801 499.261C-877.366 499.261 -879.649 497.739 -883.644 496.217C-887.068 494.696 -891.063 494.696 -894.487 494.696C-896.77 494.696 -899.623 496.217 -901.906 497.739C-905.33 499.261 -907.613 500.783 -911.608 499.261C-914.461 497.739 -915.602 493.174 -918.456 491.652C-929.299 484.043 -929.299 499.261 -937.859 500.783C-942.995 502.304 -949.273 500.783 -954.409 499.261C-957.833 497.739 -959.545 494.696 -964.11 494.696C-968.105 494.696 -971.529 496.217 -975.524 497.739C-980.09 499.261 -980.661 502.304 -985.797 497.739C-991.504 493.174 -989.221 494.696 -995.498 496.217C-998.922 497.739 -1000.06 496.217 -1003.49 496.217C-1004.63 496.217 -1006.91 497.739 -1008.62 497.739C-1012.62 499.261 -1017.18 499.261 -1021.18 497.739C-1024.03 497.739 -1028.6 496.217 -1031.45 494.696C-1037.16 491.652 -1038.3 493.174 -1043.44 497.739C-1045.15 499.261 -1046.29 500.783 -1047.43 500.783C-1059.99 509.913 -1054.28 496.217 -1070.26 496.217C-1078.25 496.217 -1073.11 494.696 -1080.53 497.739C-1082.81 497.739 -1085.67 499.261 -1088.52 499.261C-1091.37 499.261 -1093.66 496.217 -1097.08 496.217C-1099.36 496.217 -1101.65 496.217 -1103.93 496.217C-1105.64 496.217 -1107.92 494.696 -1110.21 494.696C-1113.63 494.696 -1115.91 497.739 -1119.34 497.739C-1122.19 499.261 -1124.47 497.739 -1127.33 497.739C-1128.47 497.739 -1128.47 497.739 -1129.61 497.739C-1130.18 497.739 -1135.89 496.217 -1135.89 494.696C-1135.89 493.174 -1137.6 493.174 -1138.17 493.174C-1139.88 493.174 -1141.02 493.174 -1142.74 493.174C-1145.02 491.652 -1147.87 490.13 -1150.15 493.174C-1152.44 494.696 -1157.57 500.783 -1158.71 500.783C-1161 500.783 -1166.13 502.304 -1167.85 500.783C-1170.13 499.261 -1173.55 496.217 -1175.83 494.696C-1176.98 493.174 -1178.12 493.174 -1179.26 491.652C-1180.4 490.13 -1183.25 490.13 -1184.97 491.652C-1192.39 496.217 -1190.67 500.783 -1198.66 500.783C-1203.23 500.783 -1207.79 499.261 -1212.36 497.739C-1213.5 497.739 -1214.07 497.739 -1215.21 496.217C-1215.78 496.217 -1218.07 496.217 -1219.21 496.217C-1220.92 496.217 -1222.63 494.696 -1224.34 494.696C-1228.34 494.696 -1232.33 490.13 -1235.19 490.13C-1238.04 490.13 -1240.32 496.217 -1243.18 496.217C-1246.6 496.217 -1250.59 496.217 -1254.02 496.217C-1255.73 496.217 -1258.01 497.739 -1260.3 499.261C-1267.72 502.304 -1263.72 497.739 -1270 494.696C-1273.42 493.174 -1277.42 491.652 -1281.41 491.652C-1285.41 491.652 -1287.69 491.652 -1291.11 496.217C-1293.97 499.261 -1297.39 500.783 -1300.24 502.304C-1308.8 505.348 -1317.94 497.739 -1326.5 497.739C-1328.78 497.739 -1331.63 496.217 -1333.92 496.217C-1337.91 496.217 -1340.76 496.217 -1344.76 496.217C-1347.04 496.217 -1349.32 496.217 -1351.61 497.739C-1354.46 499.261 -1357.31 499.261 -1360.17 499.261C-1361.31 499.261 -1365.87 500.783 -1367.01 499.261C-1367.59 499.261 -1369.87 499.261 -1370.44 497.739C-1371.58 497.739 -1373.29 497.739 -1374.43 497.739C-1377.29 497.739 -1379.57 497.739 -1382.42 496.217C-1386.99 491.652 -1388.13 491.652 -1393.27 491.652C-1404.68 491.652 -1402.4 499.261 -1410.39 500.783C-1413.24 500.783 -1415.52 502.304 -1418.95 502.304C-1425.23 502.304 -1428.65 497.739 -1434.36 494.696C-1438.92 491.652 -1441.77 491.652 -1445.77 493.174C-1450.91 494.696 -1454.9 499.261 -1457.18 500.783C-1458.9 500.783 -1460.61 500.783 -1462.32 502.304C-1465.17 502.304 -1467.46 502.304 -1469.74 503.826C-1472.02 503.826 -1474.3 505.348 -1476.59 503.826C-1477.73 503.826 -1478.87 503.826 -1480.01 500.783C-1480.58 499.261 -1482.29 499.261 -1482.86 497.739C-1483.43 496.217 -1489.14 494.696 -1490.28 494.696C-1494.28 494.696 -1498.27 496.217 -1502.27 496.217C-1503.41 496.217 -1506.26 496.217 -1506.83 497.739C-1507.4 499.261 -1509.12 497.739 -1509.69 499.261C-1512.54 499.261 -1514.82 500.783 -1517.68 500.783C-1519.39 500.783 -1520.53 500.783 -1521.67 500.783C-1523.95 500.783 -1527.38 500.783 -1529.66 499.261C-1532.51 497.739 -1535.37 497.739 -1538.79 496.217C-1549.63 491.652 -1546.21 496.217 -1553.63 500.783C-1557.62 503.826 -1560.48 505.348 -1564.47 503.826C-1566.76 502.304 -1567.9 502.304 -1570.18 500.783C-1575.32 497.739 -1581.02 493.174 -1586.16 496.217C-1589.01 497.739 -1589.01 499.261 -1593.58 502.304C-1594.15 502.304 -1595.29 502.304 -1597 502.304C-1598.71 500.783 -1600.43 499.261 -1603.28 500.783C-1604.42 500.783 -1606.13 500.783 -1607.27 502.304C-1609.56 502.304 -1612.41 500.783 -1614.69 500.783C-1615.83 500.783 -1616.98 500.783 -1617.55 500.783C-1618.12 500.783 -1618.12 500.783 -1618.69 500.783C-1619.83 500.783 -1620.4 500.783 -1621.54 499.261C-1622.11 499.261 -1622.68 499.261 -1623.25 499.261C-1623.82 499.261 -1627.82 500.783 -1628.96 500.783C-1630.67 500.783 -1633.52 500.783 -1635.24 500.783C-1636.95 500.783 -1640.37 500.783 -1642.09 500.783C-1648.36 503.826 -1647.79 502.304 -1652.93 499.261C-1658.64 494.696 -1660.35 497.739 -1666.05 502.304C-1671.19 505.348 -1674.04 502.304 -1675.76 500.783C-1679.18 499.261 -1681.46 499.261 -1684.89 499.261C-1689.45 499.261 -1694.02 500.783 -1698.58 500.783C-1700.87 500.783 -1703.15 500.783 -1705.43 500.783C-1707.14 500.783 -1709.43 502.304 -1711.14 502.304C-1712.85 502.304 -1715.13 502.304 -1717.42 500.783C-1717.99 500.783 -1719.7 502.304 -1720.84 500.783C-1723.69 496.217 -1724.83 497.739 -1728.26 499.261C-1730.54 499.261 -1732.25 499.261 -1735.11 499.261C-1741.96 499.261 -1744.24 506.87 -1750.52 500.783C-1754.51 496.217 -1759.08 499.261 -1763.07 500.783C-1766.49 502.304 -1768.21 503.826 -1771.63 503.826C-1772.77 503.826 -1775.63 500.783 -1776.77 500.783C-1779.05 500.783 -1780.76 500.783 -1783.04 500.783C-1784.76 500.783 -1787.61 500.783 -1789.89 500.783C-1793.32 500.783 -1796.17 500.783 -1799.59 500.783C-1803.02 500.783 -1806.44 503.826 -1809.3 505.348C-1811.58 505.348 -1814.43 503.826 -1816.72 502.304C-1824.13 499.261 -1821.28 496.217 -1830.98 500.783C-1833.84 502.304 -1836.69 503.826 -1839.54 503.826C-1844.11 503.826 -1846.39 502.304 -1850.39 500.783C-1853.81 499.261 -1857.8 499.261 -1861.23 499.261C-1863.51 499.261 -1866.36 500.783 -1868.65 502.304C-1872.07 503.826 -1874.35 505.348 -1878.35 503.826C-1881.2 502.304 -1882.34 497.739 -1885.2 496.217C-1896.04 488.609 -1896.04 503.826 -1904.6 505.348C-1909.74 506.87 -1916.01 505.348 -1921.15 503.826C-1924.58 502.304 -1926.29 499.261 -1930.85 499.261C-1934.85 499.261 -1938.27 500.783 -1942.27 502.304C-1946.83 503.826 -1947.4 506.87 -1952.54 502.304C-1958.25 497.739 -1955.96 499.261 -1962.24 500.783C-1965.66 502.304 -1966.81 500.783 -1970.23 500.783C-1971.37 500.783 -1973.65 502.304 -1975.37 502.304C-1979.36 503.826 -1983.93 503.826 -1987.92 502.304C-1990.77 502.304 -1995.34 500.783 -1998.19 499.261C-2003.9 496.217 -2005.04 497.739 -2010.18 502.304C-2011.89 503.826 -2013.03 505.348 -2014.17 505.348C-2026.73 514.478 -2021.02 500.783 -2037 500.783C-2044.99 500.783 -2039.85 499.261 -2047.27 502.304C-2049.56 502.304 -2052.41 503.826 -2055.26 503.826C-2058.12 503.826 -2060.4 500.783 -2063.82 500.783C-2066.11 500.783 -2068.39 500.783 -2070.67 500.783C-2072.38 500.783 -2074.67 499.261 -2076.95 499.261C-2080.37 499.261 -2082.65 502.304 -2086.08 502.304C-2088.93 503.826 -2091.22 502.304 -2094.07 502.304C-2095.21 502.304 -2095.21 502.304 -2096.35 502.304C-2096.92 502.304 -2102.63 500.783 -2102.63 499.261C-2102.63 497.739 -2104.34 497.739 -2104.91 497.739C-2106.62 497.739 -2107.77 497.739 -2109.48 497.739C-2111.76 496.217 -2114.61 494.696 -2116.9 497.739C-2119.18 499.261 -2124.31 505.348 -2125.46 505.348C-2127.74 505.348 -2132.88 506.87 -2134.59 505.348C-2136.87 503.826 -2140.29 500.783 -2142.58 499.261C-2143.72 497.739 -2144.86 497.739 -2146 496.217C-2147.14 494.696 -2150 494.696 -2151.71 496.217C-2159.13 500.783 -2157.41 505.348 -2165.4 505.348C-2169.97 505.348 -2174.54 503.826 -2179.1 502.304C-2180.24 502.304 -2180.81 502.304 -2181.95 500.783C-2182.52 500.783 -2184.81 500.783 -2185.95 500.783C-2187.66 500.783 -2189.37 499.261 -2191.08 499.261C-2195.08 499.261 -2199.07 494.696 -2201.93 494.696C-2204.78 494.696 -2207.06 500.783 -2209.92 500.783C-2213.34 500.783 -2217.34 500.783 -2220.76 500.783C-2222.47 500.783 -2224.76 502.304 -2227.04 503.826C-2234.46 506.87 -2230.46 502.304 -2236.74 499.261C-2240.16 497.739 -2244.16 496.217 -2248.15 496.217C-2252.15 496.217 -2254.43 496.217 -2257.86 500.783C-2260.71 503.826 -2264.13 505.348 -2266.99 506.87C-2275.55 509.913 -2284.68 502.304 -2293.24 502.304C-2295.52 502.304 -2298.37 500.783 -2300.66 500.783C-2304.65 500.783 -2307.5 500.783 -2311.5 500.783C-2313.78 500.783 -2316.07 500.783 -2318.35 502.304C-2321.2 503.826 -2324.06 503.826 -2326.91 503.826C-2328.05 503.826 -2332.62 505.348 -2333.76 503.826C-2334.33 503.826 -2336.61 503.826 -2337.18 502.304C-2338.32 502.304 -2340.03 502.304 -2341.18 502.304C-2344.03 502.304 -2346.31 502.304 -2349.17 500.783C-2353.73 496.217 -2354.87 496.217 -2360.01 496.217C-2371.42 496.217 -2369.14 503.826 -2377.13 505.348C-2379.98 505.348 -2382.26 506.87 -2385.69 506.87C-2391.97 506.87 -2395.39 502.304 -2401.1 499.261C-2405.66 496.217 -2408.52 496.217 -2412.51 497.739C-2417.65 499.261 -2421.64 503.826 -2423.93 505.348C-2425.64 505.348 -2427.35 505.348 -2429.06 506.87C-2431.91 506.87 -2434.2 506.87 -2436.48 508.391C-2438.76 508.391 -2441.05 509.913 -2443.33 508.391C-2444.47 508.391 -2445.61 508.391 -2446.75 505.348C-2447.32 503.826 -2449.04 503.826 -2449.61 502.304C-2450.18 500.783 -2455.88 499.261 -2457.02 499.261C-2461.02 499.261 -2465.01 500.783 -2469.01 500.783C-2470.15 500.783 -2473 500.783 -2473.57 502.304C-2474.15 503.826 -2475.86 502.304 -2476.43 503.826C-2479.28 503.826 -2481.56 505.348 -2484.42 505.348C-2486.13 505.348 -2487.27 505.348 -2488.41 505.348C-2490.7 505.348 -2494.12 505.348 -2496.4 503.826C-2499.26 502.304 -2502.11 502.304 -2505.53 500.783C-2516.38 496.217 -2512.95 500.783 -2520.37 505.348C-2524.37 508.391 -2527.22 509.913 -2531.21 508.391C-2533.5 506.87 -2534.64 506.87 -2536.92 505.348C-2542.06 502.304 -2547.76 497.739 -2552.9 500.783C-2555.75 502.304 -2555.75 503.826 -2560.32 506.87C-2562.6 508.391 -2567.74 506.87 -2570.02 506.87C-2574.02 506.87 -2577.44 505.348 -2580.86 505.348C-2582.58 505.348 -2584.29 506.87 -2586 506.87V516H-2579.15Z" fill="#754140"/>
<path d="M-2600 138.977C-2598.28 137.216 -2597.13 137.216 -2594.84 137.216C-2593.12 137.216 -2593.12 144.26 -2591.39 144.26C-2587.95 146.021 -2582.79 137.216 -2578.77 137.216C-2577.63 137.216 -2577.05 137.216 -2575.9 135.455C-2575.33 135.455 -2574.76 135.455 -2574.18 135.455C-2573.61 135.455 -2569.59 137.216 -2568.45 137.216C-2566.72 137.216 -2563.86 137.216 -2562.14 137.216C-2560.41 137.216 -2556.97 137.216 -2555.25 137.216C-2548.94 140.738 -2549.51 138.977 -2544.35 135.455C-2538.61 130.172 -2536.89 133.694 -2531.16 138.977C-2525.99 142.499 -2521.98 144.26 -2519.68 144.26C-2516.24 142.499 -2515.09 135.455 -2511.65 135.455C-2507.06 135.455 -2502.47 137.216 -2497.88 137.216C-2495.59 137.216 -2493.29 146.021 -2490.42 146.021C-2488.7 146.021 -2486.41 138.977 -2484.69 138.977C-2482.96 138.977 -2480.67 138.977 -2478.37 137.216C-2477.8 137.216 -2476.08 138.977 -2474.93 137.216C-2472.06 131.933 -2470.92 133.694 -2467.47 135.455C-2465.18 135.455 -2463.46 135.455 -2460.59 135.455C-2453.71 135.455 -2451.41 144.26 -2445.1 137.216C-2441.08 131.933 -2436.49 135.455 -2432.48 137.216C-2429.04 138.977 -2427.31 140.738 -2423.87 140.738C-2422.72 140.738 -2419.86 137.216 -2418.71 137.216C-2416.41 137.216 -2415.84 142.499 -2413.55 144.26C-2411.82 144.26 -2408.96 144.26 -2406.66 144.26C-2403.22 144.26 -2399.2 137.216 -2395.76 137.216C-2392.32 137.216 -2388.88 140.738 -2386.01 142.499C-2383.71 142.499 -2380.84 140.738 -2378.55 138.977C-2371.09 135.455 -2376.25 137.216 -2366.5 142.499C-2363.63 144.26 -2358.47 140.738 -2355.6 140.738C-2351.01 140.738 -2345.85 142.499 -2341.83 140.738C-2338.39 138.977 -2337.24 135.455 -2333.8 135.455C-2331.5 135.455 -2328.64 137.216 -2326.34 138.977C-2322.9 140.738 -2320.6 142.499 -2316.59 140.738C-2313.72 138.977 -2309.13 140.738 -2306.84 137.216C-2295.94 128.411 -2299.38 140.738 -2290.77 142.499C-2285.61 144.26 -2277.58 147.781 -2272.41 146.021C-2268.97 144.26 -2268.97 135.455 -2264.96 135.455C-2260.94 135.455 -2257.5 137.216 -2253.48 138.977C-2248.89 140.738 -2248.32 144.26 -2243.15 138.977C-2237.42 133.694 -2239.71 135.455 -2233.4 137.216C-2229.96 138.977 -2228.81 137.216 -2225.37 137.216C-2224.22 137.216 -2220.21 142.499 -2219.06 142.499C-2215.04 144.26 -2212.17 138.977 -2208.16 138.977C-2205.29 138.977 -2200.7 137.216 -2197.83 135.455C-2192.09 131.933 -2196.11 140.738 -2190.37 146.021C-2188.65 147.781 -2182.92 140.738 -2181.19 142.499C-2168.57 153.064 -2174.31 137.216 -2158.25 137.216C-2150.21 137.216 -2155.38 135.455 -2147.92 138.977C-2145.62 138.977 -2142.76 140.738 -2139.89 140.738C-2137.02 140.738 -2134.72 137.216 -2131.28 137.216C-2128.99 137.216 -2128.99 142.499 -2126.69 142.499C-2124.97 142.499 -2120.38 135.455 -2118.66 135.455C-2115.22 135.455 -2112.92 138.977 -2109.48 138.977C-2106.61 140.738 -2104.32 138.977 -2101.45 138.977C-2100.3 138.977 -2100.3 138.977 -2099.15 138.977C-2098.58 138.977 -2092.84 137.216 -2092.84 135.455C-2092.84 133.694 -2091.12 133.694 -2090.55 133.694C-2088.83 133.694 -2087.68 133.694 -2085.96 133.694C-2083.66 131.933 -2081.94 138.977 -2079.07 140.738C-2076.78 142.499 -2071.62 135.455 -2070.47 135.455C-2068.17 135.455 -2061.86 144.26 -2060.14 142.499C-2057.85 140.738 -2054.4 137.216 -2052.11 135.455C-2050.96 133.694 -2049.81 133.694 -2048.67 131.933C-2047.52 130.172 -2044.65 130.172 -2042.93 131.933C-2035.47 137.216 -2037.19 142.499 -2029.16 142.499C-2024.57 142.499 -2019.98 140.738 -2015.39 138.977C-2014.24 138.977 -2013.67 138.977 -2012.52 137.216C-2011.95 137.216 -2009.66 142.499 -2008.51 142.499C-2006.79 142.499 -2005.07 140.738 -2003.34 140.738C-1999.33 140.738 -1995.31 128.411 -1992.44 130.172C-1989.58 130.172 -1987.28 137.216 -1984.41 137.216C-1980.97 137.216 -1976.95 137.216 -1973.51 137.216C-1971.79 137.216 -1969.5 138.977 -1967.2 140.738C-1959.74 144.26 -1962.61 140.738 -1956.87 137.216C-1953.43 135.455 -1949.99 138.977 -1945.97 138.977C-1941.96 138.977 -1940.24 131.933 -1936.22 135.455C-1933.35 138.977 -1929.91 140.738 -1927.04 142.499C-1918.44 146.021 -1909.26 137.216 -1900.65 137.216C-1898.36 137.216 -1895.49 135.455 -1893.19 135.455C-1889.18 135.455 -1886.31 135.455 -1882.29 135.455C-1880 135.455 -1877.7 135.455 -1875.41 137.216C-1872.54 138.977 -1869.67 138.977 -1866.8 138.977C-1865.66 138.977 -1861.07 140.738 -1859.92 138.977C-1859.34 138.977 -1857.05 138.977 -1856.48 137.216C-1855.33 137.216 -1853.61 137.216 -1852.46 137.216C-1849.59 137.216 -1847.3 137.216 -1844.43 135.455C-1839.84 130.172 -1833.53 135.455 -1828.94 135.455C-1817.46 135.455 -1824.92 138.977 -1816.89 140.738C-1814.02 140.738 -1811.73 142.499 -1808.28 142.499C-1801.97 142.499 -1798.53 137.216 -1792.79 133.694C-1788.2 130.172 -1785.34 130.172 -1781.32 131.933C-1776.16 133.694 -1776.16 138.977 -1773.86 140.738C-1772.14 140.738 -1766.98 140.738 -1765.26 142.499C-1762.39 142.499 -1760.09 142.499 -1757.8 144.26C-1755.5 144.26 -1753.21 146.021 -1750.91 144.26C-1749.77 144.26 -1748.62 144.26 -1747.47 140.738C-1746.9 138.977 -1745.18 138.977 -1744.6 137.216C-1744.03 135.455 -1738.29 133.694 -1737.14 133.694C-1733.13 133.694 -1726.24 140.738 -1722.23 142.499C-1721.08 142.499 -1718.21 142.499 -1717.64 144.26C-1717.06 146.021 -1715.34 144.26 -1714.77 146.021C-1711.9 146.021 -1712.48 140.738 -1709.61 140.738C-1707.89 140.738 -1706.74 140.738 -1705.59 140.738C-1703.3 140.738 -1699.85 140.738 -1697.56 138.977C-1694.69 137.216 -1695.84 144.26 -1692.97 144.26C-1682.07 138.977 -1681.49 135.455 -1674.04 142.499C-1670.02 146.021 -1669.45 144.26 -1664.86 142.499C-1662.56 140.738 -1659.12 144.26 -1656.83 142.499C-1651.66 138.977 -1645.93 133.694 -1640.76 137.216C-1638.47 138.977 -1639.04 142.499 -1637.89 144.26C-1637.32 144.26 -1637.32 144.26 -1636.75 144.26C-1635.02 146.021 -1633.88 146.021 -1631.58 144.26C-1628.71 142.499 -1626.99 140.738 -1623.55 140.738C-1622.98 140.738 -1622.4 140.738 -1622.4 142.499C-1618.96 142.499 -1615.52 140.738 -1612.08 140.738C-1610.93 140.738 -1609.78 140.738 -1609.21 140.738C-1608.63 140.738 -1608.63 140.738 -1608.06 140.738C-1606.91 140.738 -1606.34 140.738 -1605.19 138.977C-1604.62 138.977 -1604.04 138.977 -1603.47 138.977C-1602.9 138.977 -1598.88 140.738 -1597.73 140.738C-1596.01 140.738 -1593.14 140.738 -1591.42 140.738C-1589.7 140.738 -1586.26 140.738 -1584.54 140.738C-1578.23 144.26 -1578.8 142.499 -1573.64 138.977C-1567.9 133.694 -1566.18 137.216 -1560.44 142.499C-1555.28 146.021 -1551.26 147.781 -1548.97 147.781C-1545.53 146.021 -1544.38 138.977 -1540.94 138.977C-1536.35 138.977 -1531.76 140.738 -1527.17 140.738C-1524.87 140.738 -1522.58 149.542 -1519.71 149.542C-1517.99 149.542 -1515.69 142.499 -1513.97 142.499C-1512.25 142.499 -1509.96 142.499 -1507.66 140.738C-1507.09 140.738 -1505.37 142.499 -1504.22 140.738C-1501.35 135.455 -1500.2 137.216 -1496.76 138.977C-1494.47 138.977 -1492.75 138.977 -1489.88 138.977C-1482.99 138.977 -1480.7 147.781 -1474.39 140.738C-1470.37 135.455 -1465.78 138.977 -1461.76 140.738C-1458.32 142.499 -1456.6 144.26 -1453.16 144.26C-1452.01 144.26 -1449.14 140.738 -1448 140.738C-1445.7 140.738 -1445.13 146.021 -1442.83 147.781C-1441.11 147.781 -1438.24 147.781 -1435.95 147.781C-1432.51 147.781 -1428.49 140.738 -1425.05 140.738C-1421.61 140.738 -1418.16 144.26 -1415.29 146.021C-1413 146.021 -1410.13 144.26 -1407.84 142.499C-1400.38 138.977 -1405.54 140.738 -1395.79 146.021C-1392.92 147.781 -1387.76 144.26 -1384.89 144.26C-1380.3 144.26 -1375.14 146.021 -1371.12 144.26C-1367.68 142.499 -1366.53 138.977 -1363.09 138.977C-1360.79 138.977 -1357.92 140.738 -1355.63 142.499C-1352.19 144.26 -1349.89 146.021 -1345.88 144.26C-1343.01 142.499 -1338.42 144.26 -1336.12 140.738C-1325.22 131.933 -1328.67 144.26 -1320.06 146.021C-1314.9 147.781 -1306.86 151.303 -1301.7 149.542C-1298.26 147.781 -1298.26 138.977 -1294.24 138.977C-1290.23 138.977 -1286.78 140.738 -1282.77 142.499C-1278.18 144.26 -1277.6 147.781 -1272.44 142.499C-1266.7 137.216 -1269 138.977 -1262.69 140.738C-1259.25 142.499 -1258.1 140.738 -1254.66 140.738C-1253.51 140.738 -1249.49 146.021 -1248.35 146.021C-1244.33 147.781 -1241.46 142.499 -1237.45 142.499C-1234.58 142.499 -1229.99 140.738 -1227.12 138.977C-1221.38 135.455 -1225.4 144.26 -1219.66 149.542C-1217.94 151.303 -1212.2 144.26 -1210.48 146.021C-1197.86 156.586 -1203.6 140.738 -1187.53 140.738C-1179.5 140.738 -1184.66 138.977 -1177.21 142.499C-1174.91 142.499 -1172.04 144.26 -1169.17 144.26C-1166.31 144.26 -1164.01 140.738 -1160.57 140.738C-1158.27 140.738 -1158.27 146.021 -1155.98 146.021C-1154.26 146.021 -1149.67 138.977 -1147.95 138.977C-1144.51 138.977 -1142.21 142.499 -1138.77 142.499C-1135.9 144.26 -1133.6 142.499 -1130.74 142.499C-1129.59 142.499 -1129.59 142.499 -1128.44 142.499C-1127.29 142.499 -1122.13 140.738 -1122.13 138.977C-1122.13 137.216 -1120.41 137.216 -1119.84 137.216C-1118.11 137.216 -1116.97 137.216 -1115.25 137.216C-1112.95 135.455 -1111.23 142.499 -1108.36 144.26C-1106.07 146.021 -1100.9 138.977 -1099.76 138.977C-1097.46 138.977 -1091.15 147.781 -1089.43 146.021C-1087.13 144.26 -1083.69 140.738 -1081.4 138.977C-1080.25 137.216 -1079.1 137.216 -1077.96 135.455C-1076.81 133.694 -1073.94 133.694 -1072.22 135.455C-1064.76 140.738 -1066.48 146.021 -1058.45 146.021C-1053.86 146.021 -1049.27 144.26 -1044.68 142.499C-1043.53 142.499 -1042.96 142.499 -1041.81 140.738C-1041.24 140.738 -1038.94 146.021 -1037.8 146.021C-1036.07 146.021 -1034.35 144.26 -1032.63 144.26C-1028.62 144.26 -1024.6 131.933 -1021.73 133.694C-1018.86 133.694 -1016.57 140.738 -1013.7 140.738C-1010.26 140.738 -1006.24 140.738 -1002.8 140.738C-1001.08 140.738 -998.783 142.499 -996.488 144.26C-989.03 147.781 -991.899 144.26 -986.162 140.738C-982.72 138.977 -979.277 142.499 -975.261 142.499C-971.246 142.499 -969.524 135.455 -965.508 138.977C-962.64 142.499 -959.197 144.26 -956.329 146.021C-947.723 149.542 -938.544 140.738 -929.938 140.738C-927.644 140.738 -924.775 138.977 -922.48 138.977C-918.464 138.977 -915.596 138.977 -911.58 138.977C-909.285 138.977 -906.99 138.977 -904.695 140.738C-901.827 142.499 -898.958 142.499 -896.09 142.499C-894.942 142.499 -890.353 144.26 -889.205 142.499C-888.632 142.499 -886.337 142.499 -885.763 140.738C-884.616 140.738 -882.894 140.738 -881.747 140.738C-878.878 140.738 -876.583 140.738 -873.715 138.977C-869.125 133.694 -862.815 138.977 -858.225 138.977C-846.751 138.977 -854.209 142.499 -846.177 144.26C-843.309 144.26 -841.014 146.021 -837.572 146.021C-831.261 146.021 -827.818 140.738 -822.081 137.216C-817.491 133.694 -814.623 133.694 -810.607 135.455C-805.444 137.216 -805.444 142.499 -803.149 144.26C-801.428 144.26 -796.265 144.26 -794.544 146.021C-791.675 146.021 -789.38 146.021 -787.085 147.781C-784.79 147.781 -782.496 149.542 -780.201 147.781C-779.054 147.781 -777.906 147.781 -776.759 144.26C-776.185 142.499 -774.464 142.499 -773.891 140.738C-773.317 138.977 -767.579 137.216 -766.432 137.216C-762.416 137.216 -755.532 144.26 -751.516 146.021C-750.368 146.021 -747.5 146.021 -746.926 147.781C-746.352 149.542 -744.631 147.781 -744.057 149.542C-741.189 149.542 -741.762 144.26 -738.894 144.26C-737.173 144.26 -736.026 144.26 -734.878 144.26C-732.583 144.26 -729.141 144.26 -726.846 142.499C-723.977 140.738 -725.125 147.781 -722.257 147.781C-711.356 142.499 -710.782 138.977 -703.324 146.021C-699.308 149.542 -698.734 147.781 -694.145 146.021C-691.85 144.26 -688.408 147.781 -686.113 146.021C-680.949 142.499 -675.212 137.216 -670.049 140.738C-667.18 142.499 -669.476 147.781 -664.886 149.542C-662.591 151.303 -655.132 146.021 -652.838 146.021C-648.822 146.021 -645.38 144.26 -641.938 144.26C-640.79 144.26 -639.069 144.26 -637.921 146.021C-636.774 146.021 -635.627 144.26 -633.906 144.26C-632.758 144.26 -632.758 146.021 -632.184 147.781H-631.611C-630.463 147.781 -629.316 149.542 -628.742 151.303C-625.3 149.542 -621.284 144.26 -618.415 144.26C-617.268 144.26 -616.694 144.26 -615.547 142.499C-614.973 142.499 -614.4 142.499 -613.826 142.499C-613.252 142.499 -609.236 144.26 -608.089 144.26C-606.368 144.26 -603.499 144.26 -601.778 144.26C-600.057 144.26 -596.615 144.26 -594.893 144.26C-588.583 147.781 -589.156 146.021 -583.993 142.499C-578.256 137.216 -576.535 140.738 -570.798 146.021C-565.635 149.542 -561.619 151.303 -559.324 151.303C-555.882 149.542 -554.734 142.499 -551.292 142.499C-546.702 142.499 -542.112 144.26 -537.523 144.26C-535.228 144.26 -532.933 153.064 -530.065 153.064C-528.344 153.064 -526.049 146.021 -524.328 146.021C-522.607 146.021 -520.311 146.021 -518.016 144.26C-517.443 144.26 -515.722 146.021 -514.574 144.26C-511.706 138.977 -510.559 140.738 -507.117 142.499C-504.822 142.499 -503.1 142.499 -500.232 142.499C-493.347 142.499 -491.053 151.303 -484.742 144.26C-480.726 138.977 -476.136 142.499 -472.12 144.26C-468.678 146.021 -466.957 147.781 -463.514 147.781C-462.367 147.781 -459.499 144.26 -458.351 144.26C-456.057 144.26 -455.483 149.542 -453.188 151.303C-451.467 151.303 -448.598 151.303 -446.303 151.303C-442.861 151.303 -438.845 144.26 -435.403 144.26C-431.961 144.26 -428.518 147.781 -425.65 149.542C-423.355 149.542 -420.487 147.781 -418.192 146.021C-410.734 142.499 -415.897 144.26 -406.144 149.542C-403.275 151.303 -398.112 147.781 -395.244 147.781C-390.654 147.781 -385.49 149.542 -381.474 147.781C-378.032 146.021 -376.885 142.499 -373.443 142.499C-371.148 142.499 -368.279 144.26 -365.984 146.021C-362.542 147.781 -360.247 149.542 -356.231 147.781C-353.363 146.021 -348.773 147.781 -346.479 144.26C-335.578 135.455 -339.02 147.781 -330.414 149.542C-325.251 151.303 -317.219 154.825 -312.056 153.064C-308.614 151.303 -308.614 142.499 -304.598 142.499C-300.582 142.499 -297.139 144.26 -293.124 146.021C-288.534 147.781 -287.96 151.303 -282.797 146.021C-277.059 140.738 -279.354 142.499 -273.044 144.26C-269.602 146.021 -268.454 144.26 -265.012 144.26C-263.864 144.26 -259.849 149.542 -258.701 149.542C-254.685 151.303 -251.816 146.021 -247.8 146.021C-244.932 146.021 -240.343 144.26 -237.474 142.499C-231.737 138.977 -235.753 147.781 -230.016 153.064C-228.295 154.825 -222.558 147.781 -220.837 149.542C-208.215 160.108 -213.952 144.26 -197.888 144.26C-189.856 144.26 -195.019 142.499 -187.561 146.021C-185.266 146.021 -182.398 147.781 -179.529 147.781C-176.661 147.781 -174.366 144.26 -170.924 144.26C-168.629 144.26 -168.629 149.542 -166.334 149.542C-164.613 149.542 -160.023 142.499 -158.302 142.499C-154.86 142.499 -152.565 146.021 -149.123 146.021C-146.255 147.781 -143.96 146.021 -141.091 146.021C-139.944 146.021 -139.943 146.021 -138.796 146.021C-138.222 146.021 -132.485 144.26 -132.485 142.499C-132.485 140.738 -130.764 140.738 -130.19 140.738C-128.469 140.738 -127.322 140.738 -125.601 140.738C-123.306 138.977 -121.585 146.021 -118.716 147.781C-116.422 149.542 -111.258 142.499 -110.111 142.499C-107.816 142.499 -101.506 151.303 -99.7844 149.542C-97.4896 147.781 -94.0472 144.26 -91.7524 142.499C-90.605 140.738 -89.4577 140.738 -88.3103 138.977C-87.1628 137.216 -84.2943 137.216 -82.5732 138.977C-75.115 144.26 -76.836 149.542 -68.8041 149.542C-64.2144 149.542 -59.6246 147.781 -55.035 146.021C-53.8876 146.021 -53.3138 146.021 -52.1664 144.26C-51.5927 144.26 -49.2982 149.542 -48.1507 149.542C-46.4296 149.542 -44.7084 147.781 -42.9872 147.781C-38.9713 147.781 -34.9552 135.455 -32.0867 137.216C-29.2181 137.216 -26.9232 144.26 -24.0546 144.26C-20.6124 144.26 -16.5963 144.26 -13.1541 144.26C-11.4329 144.26 -9.13831 146.021 -6.84344 147.781C0.614746 151.303 -2.25421 147.781 3.48291 144.26C6.92511 142.499 10.3676 146.021 14.3835 146.021C18.3995 146.021 20.1209 138.977 24.1369 142.499C27.0054 146.021 30.4476 147.781 33.3161 149.542C41.9217 153.064 51.1009 144.26 59.7065 144.26C62.0013 144.26 64.8701 142.499 67.1649 142.499C71.1808 142.499 74.0488 142.499 78.0648 142.499C80.3596 142.499 82.6549 142.499 84.9497 144.26C87.8182 146.021 90.6868 146.021 93.5554 146.021C94.7028 146.021 99.2921 147.781 100.44 146.021C101.013 146.021 103.308 146.021 103.882 144.26C105.029 144.26 106.751 144.26 107.898 144.26C110.767 144.26 113.062 144.26 115.93 142.499C120.52 137.216 126.83 142.499 131.42 142.499C142.894 142.499 135.436 146.021 143.468 147.781C146.336 147.781 148.631 149.542 152.073 149.542C158.384 149.542 161.827 144.26 167.564 140.738C172.153 137.216 175.022 137.216 179.038 138.977C184.201 140.738 184.201 146.021 186.496 147.781C188.217 147.781 193.38 147.781 195.101 149.542C197.97 149.542 200.265 149.542 202.56 151.303C204.855 151.303 207.149 153.064 209.444 151.303C210.591 151.303 211.739 151.303 212.886 147.781C213.46 146.021 215.181 146.021 215.755 144.26C216.328 142.499 222.066 140.738 223.213 140.738C227.229 140.738 234.113 147.781 238.129 149.542C239.277 149.542 242.146 149.542 242.719 151.303C243.293 153.064 245.014 151.303 245.588 153.064C248.456 153.064 247.883 147.781 250.751 147.781C252.472 147.781 253.62 147.781 254.767 147.781C257.062 147.781 260.504 147.781 262.799 146.021C265.667 144.26 264.52 151.303 267.388 151.303C278.289 146.021 278.863 142.499 286.321 149.542C290.337 153.064 290.91 151.303 295.5 149.542C297.795 147.781 301.237 151.303 303.532 149.542C308.695 146.021 314.433 140.738 319.596 144.26C321.891 146.021 321.317 149.542 322.465 151.303C323.038 151.303 323.038 151.303 323.612 151.303C325.333 153.064 326.48 153.064 328.775 151.303C331.644 149.542 333.365 147.781 336.807 147.781C337.381 147.781 337.954 147.781 337.954 149.542C341.397 149.542 344.839 147.781 348.281 147.781C349.429 147.781 350.576 147.781 351.15 147.781C351.724 147.781 351.723 147.781 352.297 147.781C353.445 147.781 354.018 147.781 355.166 146.021C355.739 146.021 356.313 146.021 356.887 146.021C357.461 146.021 361.477 147.781 362.624 147.781C364.345 147.781 367.214 147.781 368.935 147.781C370.656 147.781 374.098 147.781 375.819 147.781C382.13 151.303 381.556 149.542 386.72 146.021C392.457 140.738 394.178 144.26 399.915 149.542C405.078 153.064 409.094 154.825 411.389 154.825C414.832 153.064 415.978 146.021 419.421 146.021C424.01 146.021 428.6 147.781 433.19 147.781C435.485 147.781 437.78 156.586 440.648 156.586C442.369 156.586 444.664 149.542 446.385 149.542C448.106 149.542 450.401 149.542 452.696 147.781C453.27 147.781 454.991 149.542 456.138 147.781C459.007 142.499 460.154 144.26 463.596 146.021C465.891 146.021 467.612 146.021 470.481 146.021C477.365 146.021 479.66 154.825 485.971 147.781C489.987 142.499 494.577 146.021 498.592 147.781C502.035 149.542 503.756 151.303 507.198 151.303C508.346 151.303 511.214 147.781 512.362 147.781C514.656 147.781 515.23 153.064 517.525 154.825C519.246 154.825 522.115 154.825 524.409 154.825C527.852 154.825 531.868 147.781 535.31 147.781C538.752 147.781 542.194 151.303 545.063 153.064C547.357 153.064 550.226 151.303 552.521 149.542C559.979 146.021 554.816 147.781 564.569 153.064C567.437 154.825 572.601 151.303 575.469 151.303C580.059 151.303 585.223 153.064 589.239 151.303C592.681 149.542 593.828 146.021 597.27 146.021C599.565 146.021 602.434 147.781 604.728 149.542C608.171 151.303 610.465 153.064 614.481 151.303C617.35 149.542 621.94 151.303 624.235 147.781C635.135 138.977 631.692 151.303 640.298 153.064C645.461 154.825 653.494 158.347 658.657 156.586C662.099 154.825 662.099 146.021 666.115 146.021C670.131 146.021 673.573 147.781 677.589 149.542C682.179 151.303 682.753 154.825 687.916 149.542C693.653 144.26 691.358 146.021 697.669 147.781C701.111 149.542 702.258 147.781 705.701 147.781C706.848 147.781 710.864 153.064 712.011 153.064C716.027 154.825 718.896 149.542 722.912 149.542C725.78 149.542 730.37 147.781 733.239 146.021C738.976 142.499 734.96 151.303 740.697 156.586C742.418 158.347 748.155 151.303 749.877 153.064C762.498 163.63 756.761 147.781 772.825 147.781C780.857 147.781 775.693 146.021 783.151 149.542C785.446 149.542 788.315 151.303 791.183 151.303C794.052 151.303 796.347 147.781 799.789 147.781C802.084 147.781 802.084 153.064 804.379 153.064C806.1 153.064 810.689 146.021 812.41 146.021C814.131 146.021 815.853 146.021 817 147.781V183H-628.742H-645.953H-2597.13V138.977H-2600Z" fill="#43A6DA"/>
</g>
<defs>
<clipPath id="clip0_3129_2985">
<rect width="1623" height="520" fill="white"/>
</clipPath>
<clipPath id="clip1_3129_2985">
<rect width="721" height="520" fill="white" transform="translate(902)"/>
</clipPath>
</defs>
</svg>
